<svg width="169" height="32" viewBox="0 0 169 32" fill="none" xmlns="http://www.w3.org/2000/svg">
<path d="M3.3113 19.3304C3.09623 19.3304 2.87913 19.3162 2.66 19.2878C2.44493 19.2594 2.23797 19.2128 2.03913 19.1478C1.84029 19.0829 1.65362 19.0017 1.47913 18.9043C1.3087 18.8029 1.15855 18.6812 1.0287 18.5391C0.902899 18.3971 0.803478 18.2328 0.730435 18.0461C0.657391 17.8594 0.62087 17.6484 0.62087 17.413C0.62087 17.1614 0.665507 16.922 0.754783 16.6948C0.844058 16.4675 0.963768 16.2545 1.11391 16.0557C1.26406 15.8568 1.43855 15.6722 1.63739 15.5017C1.83623 15.3313 2.04522 15.1771 2.26435 15.0391C2.48348 14.8971 2.70464 14.7713 2.92783 14.6617C3.15507 14.5481 3.37015 14.4507 3.57304 14.3696L3.49391 13.4443L5.03391 13.1157C5.03797 13.1522 5.04609 13.2333 5.05826 13.3591C5.07043 13.4809 5.08464 13.627 5.10087 13.7974C5.12116 13.9678 5.14145 14.1504 5.16174 14.3452C5.18203 14.5359 5.20029 14.7165 5.21652 14.887C5.23681 15.0533 5.25304 15.1994 5.26522 15.3252C5.27739 15.447 5.28551 15.522 5.28957 15.5504C5.35043 16.0699 5.40522 16.4939 5.45391 16.8226C5.50667 17.1513 5.5513 17.413 5.58783 17.6078C5.62435 17.7986 5.65478 17.9345 5.67913 18.0157C5.70754 18.0928 5.72783 18.1435 5.74 18.1678C5.78058 18.2571 5.82725 18.3322 5.88 18.393C5.93275 18.4499 5.99362 18.4965 6.06261 18.533C6.13159 18.5655 6.21275 18.5899 6.30609 18.6061C6.39942 18.6183 6.50899 18.6243 6.63478 18.6243H6.75652V20.1826H6.63478C6.41971 20.1786 6.21681 20.1704 6.02609 20.1583C5.83942 20.1501 5.65884 20.1157 5.48435 20.0548C5.31391 19.998 5.15159 19.9067 4.99739 19.7809C4.84319 19.6551 4.6971 19.4725 4.55913 19.233C4.32783 19.2655 4.11072 19.2899 3.90783 19.3061C3.70493 19.3223 3.50609 19.3304 3.3113 19.3304ZM4.01739 17.7296C3.9971 17.62 3.97681 17.4901 3.95652 17.34C3.93623 17.1899 3.91594 17.0275 3.89565 16.853C3.87536 16.6745 3.85304 16.4899 3.8287 16.2991C3.80841 16.1084 3.78609 15.9177 3.76174 15.727C3.65623 15.7716 3.53855 15.8284 3.4087 15.8974C3.27884 15.9664 3.14493 16.0435 3.00696 16.1287C2.86899 16.2139 2.73304 16.3072 2.59913 16.4087C2.46928 16.5061 2.35362 16.6075 2.25217 16.713C2.15072 16.8145 2.06754 16.918 2.00261 17.0235C1.94174 17.129 1.9113 17.2304 1.9113 17.3278C1.9113 17.4171 1.95594 17.4922 2.04522 17.553C2.13449 17.6099 2.24609 17.6565 2.38 17.693C2.51797 17.7255 2.66609 17.7499 2.82435 17.7661C2.98261 17.7783 3.13275 17.7843 3.27478 17.7843C3.40464 17.7843 3.53449 17.7803 3.66435 17.7722C3.7942 17.76 3.91188 17.7458 4.01739 17.7296ZM6.50912 18.6243H7.80564C7.99637 18.6243 8.20129 18.6142 8.42042 18.5939C8.64361 18.5696 8.84854 18.5229 9.03521 18.4539C9.22593 18.3809 9.38216 18.2774 9.5039 18.1435C9.6297 18.0096 9.6926 17.831 9.6926 17.6078C9.6926 17.5023 9.67028 17.3542 9.62564 17.1635C9.581 16.9728 9.52216 16.7617 9.44912 16.5304C9.37608 16.2991 9.28883 16.0597 9.18738 15.8122C9.08999 15.5646 8.98651 15.3333 8.87695 15.1183L10.283 14.4243C10.3845 14.6557 10.4859 14.9012 10.5874 15.1609C10.6888 15.4206 10.7781 15.6884 10.8552 15.9643C10.9364 16.2362 11.0013 16.5101 11.05 16.7861C11.0987 17.062 11.123 17.3319 11.123 17.5957C11.123 18.0664 11.0358 18.4661 10.8613 18.7948C10.6868 19.1235 10.4474 19.3913 10.143 19.5983C9.84274 19.8012 9.4897 19.9493 9.0839 20.0426C8.68216 20.1359 8.25202 20.1826 7.79347 20.1826H6.50912V18.6243ZM8.77347 21.9843L7.73869 23.0191L6.69173 21.9783L7.72651 20.9374L8.77347 21.9843ZM11.0743 21.9904L10.0396 23.0313L8.9926 21.9843L10.0274 20.9496L11.0743 21.9904ZM15.6505 20.1826H15.407C14.5832 20.1826 13.9583 19.9757 13.5322 19.5617C13.1061 19.1478 12.891 18.5229 12.887 17.687C12.887 17.5571 12.891 17.3441 12.8992 17.0478C12.9073 16.7475 12.9113 16.3823 12.9113 15.9522C12.9113 15.6965 12.9093 15.4226 12.9053 15.1304C12.9012 14.8342 12.8951 14.5339 12.887 14.2296C12.8789 13.9212 12.8667 13.6148 12.8505 13.3104C12.8383 13.002 12.8221 12.7058 12.8018 12.4217C12.7815 12.1336 12.7571 11.8658 12.7287 11.6183C12.7003 11.3667 12.6679 11.1455 12.6313 10.9548L14.1592 10.4983C14.2038 10.7336 14.2444 11.0217 14.2809 11.3626C14.3174 11.6994 14.3499 12.0606 14.3783 12.4461C14.4067 12.8316 14.427 13.2252 14.4392 13.627C14.4554 14.0246 14.4635 14.4 14.4635 14.753C14.4635 14.9681 14.4655 15.1974 14.4696 15.4409C14.4737 15.6803 14.4757 15.8913 14.4757 16.0739C14.4757 16.2281 14.4737 16.3742 14.4696 16.5122C14.4696 16.6461 14.4676 16.7759 14.4635 16.9017C14.4635 17.0275 14.4615 17.1513 14.4574 17.273C14.4574 17.3948 14.4574 17.5186 14.4574 17.6443C14.4574 17.6768 14.4574 17.7093 14.4574 17.7417C14.4574 17.8878 14.4716 18.0177 14.5 18.1313C14.5325 18.2449 14.5873 18.3403 14.6644 18.4174C14.7415 18.4904 14.8389 18.5432 14.9566 18.5757C15.0783 18.6081 15.2183 18.6243 15.3766 18.6243H15.6505V20.1826ZM15.5312 18.6243C15.8275 18.6243 16.0852 18.5696 16.3043 18.46C16.5234 18.3464 16.7162 18.2003 16.8826 18.0217C17.053 17.8432 17.2011 17.6423 17.3269 17.4191C17.4568 17.1959 17.5785 16.9728 17.6921 16.7496C17.8057 16.5142 17.9295 16.2809 18.0634 16.0496C18.1973 15.8183 18.3495 15.6113 18.5199 15.4287C18.6904 15.242 18.8852 15.0919 19.1043 14.9783C19.3234 14.8606 19.577 14.8017 19.8652 14.8017C20.1249 14.8017 20.3623 14.8423 20.5773 14.9235C20.7965 15.0006 20.9913 15.1101 21.1617 15.2522C21.3362 15.3901 21.4884 15.5525 21.6182 15.7391C21.7481 15.9217 21.8556 16.1206 21.9408 16.3357C22.026 16.5467 22.0889 16.7658 22.1295 16.993C22.1741 17.2203 22.1965 17.4455 22.1965 17.6687C22.1965 17.8757 22.1782 18.0765 22.1417 18.2713C22.1092 18.4661 22.0585 18.6548 21.9895 18.8374C21.9124 19.0322 21.811 19.2087 21.6852 19.367C21.5634 19.5252 21.4234 19.6612 21.2652 19.7748C21.1069 19.8843 20.9365 19.9696 20.7539 20.0304C20.5713 20.0913 20.3805 20.1217 20.1817 20.1217C20.0113 20.1217 19.8307 20.0994 19.6399 20.0548C19.4533 20.0142 19.2626 19.9574 19.0678 19.8843C18.9826 19.8478 18.8872 19.8052 18.7817 19.7565C18.6762 19.7038 18.5686 19.647 18.4591 19.5861C18.3495 19.5252 18.2399 19.4623 18.1304 19.3974C18.0249 19.3284 17.9255 19.2614 17.8321 19.1965C17.5115 19.513 17.1666 19.7565 16.7973 19.927C16.4321 20.0974 16.0101 20.1826 15.5312 20.1826H15.4095V18.6243H15.5312ZM18.7452 17.9122C18.8547 17.9852 18.9907 18.0664 19.153 18.1557C19.3194 18.2449 19.4918 18.3261 19.6704 18.3991C19.8489 18.4722 20.0255 18.527 20.1999 18.5635C20.2973 18.5878 20.3866 18.6 20.4678 18.6C20.5327 18.6 20.5915 18.5919 20.6443 18.5757C20.6849 18.5675 20.7275 18.5432 20.7721 18.5026C20.8208 18.458 20.8634 18.3991 20.8999 18.3261C20.9405 18.253 20.973 18.1678 20.9973 18.0704C21.0136 17.9893 21.0217 17.9 21.0217 17.8026C21.0217 17.7823 21.0217 17.762 21.0217 17.7417C21.0217 17.5591 20.9892 17.3765 20.9243 17.1939C20.8634 17.0072 20.7782 16.8429 20.6686 16.7009C20.5591 16.5588 20.4292 16.4493 20.2791 16.3722C20.1776 16.3235 20.0681 16.2991 19.9504 16.2991C19.8936 16.2991 19.8347 16.3052 19.7739 16.3174C19.717 16.3296 19.6602 16.362 19.6034 16.4148C19.5507 16.4635 19.4857 16.5487 19.4086 16.6704C19.3315 16.7881 19.2402 16.9484 19.1347 17.1513C19.0292 17.3501 18.8994 17.6038 18.7452 17.9122ZM27.7096 20.1826H27.5209C27.4154 20.1826 27.2814 20.1704 27.1191 20.1461C26.9609 20.1217 26.7864 20.0487 26.5956 19.927C26.5429 20.4383 26.3867 20.9272 26.127 21.3939C25.8672 21.8646 25.5406 22.3049 25.147 22.7148C24.7574 23.1246 24.3171 23.5 23.8261 23.8409C23.3391 24.1817 22.838 24.48 22.3226 24.7357L21.6409 23.3296C21.9249 23.1835 22.211 23.0252 22.4991 22.8548C22.7832 22.6843 23.0551 22.5017 23.3148 22.307C23.5745 22.1122 23.8159 21.9093 24.0391 21.6983C24.2664 21.4872 24.4612 21.2661 24.6235 21.0348C24.7899 20.8035 24.9197 20.5661 25.013 20.3226C25.1104 20.0791 25.1591 19.8296 25.1591 19.5739C25.1591 19.3913 25.1328 19.1904 25.08 18.9713C25.0272 18.7481 24.9603 18.5168 24.8791 18.2774C24.798 18.038 24.7107 17.7965 24.6174 17.553C24.5241 17.3055 24.4388 17.0661 24.3617 16.8348L25.8226 16.2261C25.9809 16.7009 26.1249 17.0945 26.2548 17.407C26.3887 17.7154 26.5185 17.9609 26.6443 18.1435C26.7742 18.322 26.9081 18.4478 27.0461 18.5209C27.1881 18.5899 27.3484 18.6243 27.527 18.6243H27.7156L27.7096 20.1826ZM27.7116 18.6243C27.9348 18.6243 28.1336 18.5757 28.3081 18.4783C28.4867 18.3809 28.6429 18.251 28.7768 18.0887C28.9148 17.9264 29.0345 17.7417 29.1359 17.5348C29.2414 17.3278 29.3327 17.1148 29.4098 16.8957C29.4869 16.6765 29.5539 16.4614 29.6107 16.2504C29.6675 16.0354 29.7182 15.8426 29.7629 15.6722L31.2846 16.007C31.2481 16.1206 31.1994 16.2667 31.1385 16.4452C31.0777 16.6197 31.0188 16.8064 30.962 17.0052C30.9093 17.2 30.8646 17.3968 30.8281 17.5957C30.7997 17.7458 30.7855 17.8858 30.7855 18.0157C30.7855 18.0562 30.7896 18.1272 30.7977 18.2287C30.8058 18.3301 30.8464 18.4316 30.9194 18.533C30.9965 18.6304 31.1203 18.6791 31.2907 18.6791C31.4733 18.6791 31.6377 18.6284 31.7838 18.527C31.9298 18.4214 32.0597 18.2855 32.1733 18.1191C32.291 17.9487 32.3925 17.7559 32.4777 17.5409C32.5669 17.3258 32.642 17.1067 32.7029 16.8835C32.7678 16.6562 32.8206 16.4351 32.8611 16.22C32.9058 16.0049 32.9403 15.8122 32.9646 15.6417L34.389 15.9157C34.3768 16.013 34.3585 16.1287 34.3342 16.2626C34.3139 16.3965 34.2916 16.5426 34.2672 16.7009C34.2429 16.8551 34.2185 17.0174 34.1942 17.1878C34.1739 17.3583 34.1577 17.5287 34.1455 17.6991C34.1455 17.7316 34.1455 17.7641 34.1455 17.7965C34.1455 17.8939 34.1556 17.9954 34.1759 18.1009C34.1962 18.2023 34.2388 18.2997 34.3038 18.393C34.3687 18.4823 34.4539 18.5554 34.5594 18.6122C34.6649 18.6649 34.7948 18.6933 34.949 18.6974C35.2371 18.6974 35.4725 18.6243 35.6551 18.4783C35.8377 18.3322 35.929 18.109 35.929 17.8087C35.929 17.5896 35.8985 17.3522 35.8377 17.0965C35.7809 16.8409 35.7098 16.5913 35.6246 16.3478C35.5435 16.1043 35.4562 15.8751 35.3629 15.66C35.2696 15.4449 35.1884 15.2664 35.1194 15.1243L36.4281 14.3939C36.4525 14.4386 36.491 14.5197 36.5438 14.6374C36.6006 14.7551 36.6635 14.9012 36.7325 15.0757C36.8055 15.2461 36.8785 15.4388 36.9516 15.6539C37.0246 15.869 37.0916 16.0962 37.1525 16.3357C37.2174 16.571 37.2681 16.8125 37.3046 17.06C37.3452 17.3075 37.3655 17.551 37.3655 17.7904C37.3655 18.1678 37.3067 18.5087 37.189 18.813C37.0754 19.1174 36.9049 19.3771 36.6777 19.5922C36.4545 19.8072 36.1785 19.9716 35.8498 20.0852C35.5333 20.1988 35.1701 20.2557 34.7603 20.2557C34.7481 20.2557 34.7339 20.2557 34.7177 20.2557C34.7014 20.2557 34.6872 20.2557 34.6751 20.2557C34.4843 20.2557 34.3098 20.2293 34.1516 20.1765C33.9933 20.1278 33.8472 20.0588 33.7133 19.9696C33.5835 19.8762 33.4658 19.7707 33.3603 19.653C33.2588 19.5354 33.1675 19.4157 33.0864 19.2939C32.993 19.4278 32.8916 19.5536 32.782 19.6713C32.6725 19.7849 32.5446 19.8843 32.3985 19.9696C32.2565 20.0548 32.0942 20.1217 31.9116 20.1704C31.733 20.2232 31.5261 20.2516 31.2907 20.2557C31.2785 20.2557 31.2643 20.2557 31.2481 20.2557C31.0655 20.2557 30.8951 20.2313 30.7368 20.1826C30.5826 20.1339 30.4385 20.067 30.3046 19.9817C30.1748 19.8925 30.0551 19.789 29.9455 19.6713C29.84 19.5536 29.7426 19.4299 29.6533 19.3C29.5762 19.4136 29.4829 19.5232 29.3733 19.6287C29.2678 19.7342 29.1359 19.8296 28.9777 19.9148C28.8235 19.9959 28.6409 20.0609 28.4298 20.1096C28.2188 20.1583 27.9713 20.1826 27.6872 20.1826H27.4681V18.6243H27.7116ZM47.0006 20.1826H46.8119C46.7064 20.1826 46.5725 20.1704 46.4101 20.1461C46.2519 20.1217 46.0774 20.0487 45.8867 19.927C45.8339 20.4383 45.6777 20.9272 45.418 21.3939C45.1583 21.8646 44.8316 22.3049 44.438 22.7148C44.0484 23.1246 43.6081 23.5 43.1171 23.8409C42.6301 24.1817 42.129 24.48 41.6136 24.7357L40.9319 23.3296C41.2159 23.1835 41.502 23.0252 41.7901 22.8548C42.0742 22.6843 42.3461 22.5017 42.6058 22.307C42.8655 22.1122 43.107 21.9093 43.3301 21.6983C43.5574 21.4872 43.7522 21.2661 43.9145 21.0348C44.0809 20.8035 44.2107 20.5661 44.3041 20.3226C44.4014 20.0791 44.4501 19.8296 44.4501 19.5739C44.4501 19.3913 44.4238 19.1904 44.371 18.9713C44.3183 18.7481 44.2513 18.5168 44.1701 18.2774C44.089 18.038 44.0017 17.7965 43.9084 17.553C43.8151 17.3055 43.7299 17.0661 43.6528 16.8348L45.1136 16.2261C45.2719 16.7009 45.4159 17.0945 45.5458 17.407C45.6797 17.7154 45.8096 17.9609 45.9354 18.1435C46.0652 18.322 46.1991 18.4478 46.3371 18.5209C46.4791 18.5899 46.6394 18.6243 46.818 18.6243H47.0067L47.0006 20.1826ZM46.7591 18.6243H47.52C47.7188 18.6243 47.9238 18.6223 48.1348 18.6183C48.3498 18.6142 48.5568 18.6 48.7556 18.5757C48.9545 18.5513 49.1432 18.5128 49.3217 18.46C49.5003 18.4072 49.6565 18.3322 49.7904 18.2348C49.9243 18.1333 50.0298 18.0075 50.1069 17.8574C50.184 17.7032 50.2226 17.5145 50.2226 17.2913C50.2226 16.9991 50.1516 16.7009 50.0096 16.3965C49.8675 16.0881 49.6727 15.7736 49.4252 15.453C49.1777 15.1284 48.8855 14.7957 48.5487 14.4548C48.2159 14.1139 47.8568 13.767 47.4713 13.4139L47.6356 11.9591L52.4809 9.80435L53.0956 11.253L49.1269 12.9696C49.3096 13.1238 49.4901 13.2861 49.6687 13.4565C49.8513 13.627 50.0359 13.8157 50.2226 14.0226C50.5026 14.3351 50.74 14.6475 50.9348 14.96C51.1296 15.2684 51.2858 15.5667 51.4035 15.8548C51.5252 16.1429 51.6125 16.4168 51.6652 16.6765C51.722 16.9362 51.7504 17.1736 51.7504 17.3887C51.7504 17.8148 51.6693 18.2003 51.5069 18.5452C51.3487 18.8901 51.1336 19.1843 50.8617 19.4278C50.5898 19.6672 50.2733 19.8539 49.9122 19.9878C49.5551 20.1177 49.1797 20.1826 48.7861 20.1826H46.7591V18.6243ZM52.2009 9.25652L47.5261 11.3139L47.5687 10.5409L51.933 8.64174L52.2009 9.25652ZM57.5689 20.1826H57.3802C57.2747 20.1826 57.1408 20.1704 56.9785 20.1461C56.8202 20.1217 56.6457 20.0487 56.455 19.927C56.4023 20.4383 56.246 20.9272 55.9863 21.3939C55.7266 21.8646 55.4 22.3049 55.0063 22.7148C54.6168 23.1246 54.1765 23.5 53.6855 23.8409C53.1985 24.1817 52.6973 24.48 52.182 24.7357L51.5002 23.3296C51.7843 23.1835 52.0704 23.0252 52.3585 22.8548C52.6426 22.6843 52.9144 22.5017 53.1742 22.307C53.4339 22.1122 53.6753 21.9093 53.8985 21.6983C54.1257 21.4872 54.3205 21.2661 54.4828 21.0348C54.6492 20.8035 54.7791 20.5661 54.8724 20.3226C54.9698 20.0791 55.0185 19.8296 55.0185 19.5739C55.0185 19.3913 54.9921 19.1904 54.9394 18.9713C54.8866 18.7481 54.8197 18.5168 54.7385 18.2774C54.6573 18.038 54.5701 17.7965 54.4768 17.553C54.3834 17.3055 54.2982 17.0661 54.2211 16.8348L55.682 16.2261C55.8402 16.7009 55.9843 17.0945 56.1142 17.407C56.2481 17.7154 56.3779 17.9609 56.5037 18.1435C56.6336 18.322 56.7675 18.4478 56.9055 18.5209C57.0475 18.5899 57.2078 18.6243 57.3863 18.6243H57.575L57.5689 20.1826ZM62.757 18.6243V20.1826H62.6353C62.2417 20.1826 61.9089 20.1197 61.637 19.9939C61.3652 19.8681 61.1339 19.7058 60.9431 19.507C60.8092 19.6774 60.6104 19.8093 60.3466 19.9026C60.0869 19.9919 59.7968 20.0568 59.4762 20.0974C59.1556 20.142 58.8249 20.1664 58.484 20.1704C58.1472 20.1786 57.8368 20.1826 57.5527 20.1826H57.3275V18.6243H57.5527C58.0275 18.6243 58.4272 18.598 58.7518 18.5452C59.0765 18.4884 59.3382 18.4072 59.537 18.3017C59.7399 18.1962 59.886 18.0643 59.9753 17.9061C60.0646 17.7438 60.1092 17.5571 60.1092 17.3461C60.1092 17.2081 60.0828 17.0255 60.0301 16.7983C59.9773 16.567 59.8982 16.2707 59.7927 15.9096L61.2901 15.4896C61.3428 15.6681 61.3834 15.8264 61.4118 15.9643C61.4443 16.0983 61.4686 16.2342 61.4849 16.3722C61.5052 16.5061 61.5214 16.6522 61.5336 16.8104C61.5498 16.9646 61.566 17.1493 61.5823 17.3643C61.5944 17.4942 61.6249 17.6342 61.6736 17.7843C61.7223 17.9304 61.7892 18.0664 61.8744 18.1922C61.9637 18.3139 62.0712 18.4174 62.197 18.5026C62.3228 18.5838 62.4689 18.6243 62.6353 18.6243H62.757ZM59.5918 21.9843L58.557 23.0191L57.5101 21.9783L58.5449 20.9374L59.5918 21.9843ZM61.8927 21.9904L60.8579 23.0313L59.811 21.9843L60.8457 20.9496L61.8927 21.9904ZM62.5091 18.6243H63.4891C63.6798 18.6243 63.8746 18.6142 64.0735 18.5939C64.2764 18.5696 64.459 18.5229 64.6213 18.4539C64.7836 18.3809 64.9155 18.2774 65.0169 18.1435C65.1225 18.0096 65.1752 17.831 65.1752 17.6078C65.1752 17.5023 65.1529 17.3542 65.1083 17.1635C65.0636 16.9728 65.0048 16.7617 64.9317 16.5304C64.8587 16.2991 64.7714 16.0597 64.67 15.8122C64.5726 15.5646 64.4691 15.3333 64.3596 15.1183L65.7656 14.4243C65.8671 14.6557 65.9685 14.9012 66.07 15.1609C66.1714 15.4206 66.2607 15.6884 66.3378 15.9643C66.419 16.2362 66.4839 16.5101 66.5326 16.7861C66.5813 17.062 66.6056 17.3319 66.6056 17.5957C66.6056 18.0501 66.5285 18.4417 66.3743 18.7704C66.2201 19.0951 66.0051 19.3629 65.7291 19.5739C65.4532 19.7809 65.1225 19.933 64.7369 20.0304C64.3555 20.1319 63.9355 20.1826 63.4769 20.1826H62.5091V18.6243ZM65.6439 22.1609L64.4752 23.3296L63.3126 22.1609L64.4752 20.9983L65.6439 22.1609ZM70.1376 20.1826C69.6304 20.1826 69.1516 20.069 68.7011 19.8417C68.2547 19.6145 67.8347 19.298 67.4411 18.8922L68.3359 17.6322C68.7052 17.973 69.0501 18.2206 69.3707 18.3748C69.6913 18.5249 69.9976 18.6 70.2898 18.6C70.4318 18.6 70.582 18.5878 70.7403 18.5635C70.9026 18.5351 71.0629 18.4965 71.2211 18.4478C71.3794 18.3991 71.5295 18.3423 71.6716 18.2774C71.8176 18.2084 71.9434 18.1354 72.049 18.0583L70.1072 13.3713L71.5498 12.7687C71.6188 12.9472 71.6959 13.138 71.7811 13.3409C71.8663 13.5438 71.9576 13.7629 72.055 13.9983L73.5829 17.6809C73.6397 17.8188 73.6985 17.9467 73.7594 18.0643C73.8243 18.178 73.8974 18.2774 73.9785 18.3626C74.0637 18.4438 74.1591 18.5087 74.2646 18.5574C74.3742 18.602 74.5 18.6243 74.642 18.6243H74.782V20.1826H74.642C74.3863 20.1826 74.1652 20.1623 73.9785 20.1217C73.7959 20.0852 73.6356 20.0345 73.4976 19.9696C73.3597 19.9006 73.2379 19.8214 73.1324 19.7322C73.0269 19.6388 72.9255 19.5394 72.8281 19.4339C72.6333 19.58 72.4345 19.7017 72.2316 19.7991C72.0287 19.8965 71.8156 19.9736 71.5924 20.0304C71.3692 20.0872 71.1379 20.1258 70.8985 20.1461C70.6591 20.1704 70.4055 20.1826 70.1376 20.1826ZM74.5404 18.6243H75.8369C76.0276 18.6243 76.2325 18.6142 76.4517 18.5939C76.6749 18.5696 76.8798 18.5229 77.0665 18.4539C77.2572 18.3809 77.4134 18.2774 77.5352 18.1435C77.6609 18.0096 77.7238 17.831 77.7238 17.6078C77.7238 17.5023 77.7015 17.3542 77.6569 17.1635C77.6123 16.9728 77.5534 16.7617 77.4804 16.5304C77.4073 16.2991 77.3201 16.0597 77.2186 15.8122C77.1212 15.5646 77.0178 15.3333 76.9082 15.1183L78.3143 14.4243C78.4157 14.6557 78.5172 14.9012 78.6186 15.1609C78.7201 15.4206 78.8094 15.6884 78.8865 15.9643C78.9676 16.2362 79.0325 16.5101 79.0812 16.7861C79.1299 17.062 79.1543 17.3319 79.1543 17.5957C79.1543 18.0664 79.067 18.4661 78.8925 18.7948C78.7181 19.1235 78.4786 19.3913 78.1743 19.5983C77.874 19.8012 77.5209 19.9493 77.1152 20.0426C76.7134 20.1359 76.2833 20.1826 75.8247 20.1826H74.5404V18.6243ZM77.2673 12.2817L76.2325 13.3165L75.1856 12.2757L76.2204 11.2348L77.2673 12.2817ZM79.5682 12.2878L78.5334 13.3287L77.4865 12.2817L78.5212 11.247L79.5682 12.2878ZM92.403 14.7591C92.5856 14.7186 92.7723 14.6942 92.963 14.6861C93.0157 14.682 93.0685 14.68 93.1213 14.68C93.2552 14.68 93.4013 14.6901 93.5595 14.7104C93.7218 14.7307 93.8923 14.7693 94.0708 14.8261C94.2534 14.8829 94.4279 14.9559 94.5943 15.0452L94.0404 16.5061C93.8294 16.4128 93.6102 16.3499 93.383 16.3174C93.2856 16.3052 93.1902 16.2991 93.0969 16.2991C92.963 16.2991 92.8291 16.3113 92.6952 16.3357C92.5572 16.3478 92.4091 16.3884 92.2508 16.4574C92.0926 16.5264 91.9343 16.6157 91.776 16.7252C91.6218 16.8307 91.4717 16.9545 91.3256 17.0965C91.1836 17.2345 91.0578 17.3826 90.9482 17.5409C90.8386 17.6951 90.7494 17.8554 90.6804 18.0217C90.6155 18.1841 90.583 18.3423 90.583 18.4965C90.583 18.671 90.6236 18.809 90.7047 18.9104C90.79 19.0078 90.9015 19.089 91.0395 19.1539C91.1815 19.2148 91.3439 19.2655 91.5265 19.3061C91.7091 19.3426 91.8998 19.3872 92.0986 19.44C92.3421 19.4968 92.5876 19.5617 92.8352 19.6348C93.0827 19.7078 93.3059 19.8093 93.5047 19.9391C93.7036 20.0649 93.8618 20.2313 93.9795 20.4383C94.081 20.6209 94.1317 20.8461 94.1317 21.1139C94.1317 21.1504 94.1297 21.189 94.1256 21.2296C94.1013 21.6557 94.0039 22.031 93.8334 22.3557C93.663 22.6843 93.4418 22.9684 93.17 23.2078C92.8981 23.4472 92.5876 23.6461 92.2386 23.8043C91.8897 23.9667 91.5244 24.0965 91.143 24.1939C90.7615 24.2913 90.376 24.3603 89.9865 24.4009C89.5969 24.4414 89.2256 24.4617 88.8726 24.4617C88.1584 24.4617 87.505 24.3664 86.9126 24.1757C86.3242 23.9849 85.8271 23.7009 85.4213 23.3235C85.0155 22.9501 84.7213 22.4835 84.5386 21.9235C84.4169 21.5583 84.356 21.1545 84.356 20.7122C84.356 20.4768 84.3723 20.2333 84.4047 19.9817C84.4372 19.7139 84.4818 19.442 84.5386 19.1661C84.5955 18.8901 84.6563 18.6243 84.7213 18.3687C84.7862 18.109 84.8531 17.8635 84.9221 17.6322C84.9911 17.4009 85.054 17.198 85.1108 17.0235C85.1676 16.849 85.2163 16.707 85.2569 16.5974C85.2975 16.4878 85.3218 16.4249 85.33 16.4087L86.6691 16.9504C86.5717 17.2548 86.4824 17.5409 86.4013 17.8087C86.3201 18.0725 86.2471 18.3322 86.1821 18.5878C86.1172 18.8435 86.0584 19.1012 86.0056 19.3609C85.9569 19.6165 85.9143 19.8884 85.8778 20.1765C85.8615 20.3104 85.8534 20.4403 85.8534 20.5661C85.8534 20.8542 85.9082 21.1403 86.0178 21.4243C86.1314 21.7125 86.3242 21.9661 86.596 22.1852C86.872 22.4084 87.2047 22.5748 87.5943 22.6843C87.9839 22.7939 88.41 22.8487 88.8726 22.8487C89.4123 22.8487 89.9134 22.8061 90.376 22.7209C90.8427 22.6397 91.2465 22.5301 91.5873 22.3922C91.9323 22.2542 92.2062 22.098 92.4091 21.9235C92.616 21.753 92.7317 21.5765 92.756 21.3939C92.752 21.3574 92.7134 21.3229 92.6404 21.2904C92.5673 21.258 92.476 21.2255 92.3665 21.193C92.2569 21.1646 92.1352 21.1342 92.0013 21.1017C91.8714 21.0733 91.7456 21.0429 91.6239 21.0104C91.283 20.9252 90.9665 20.8278 90.6743 20.7183C90.3821 20.6128 90.1285 20.4728 89.9134 20.2983C89.6984 20.1238 89.53 19.9026 89.4082 19.6348C89.2865 19.367 89.2256 19.0301 89.2256 18.6243C89.2459 18.178 89.3392 17.7438 89.5056 17.3217C89.672 16.8997 89.8952 16.5162 90.1752 16.1713C90.4592 15.8223 90.79 15.5241 91.1673 15.2765C91.5447 15.029 91.9566 14.8565 92.403 14.7591ZM98.8277 16.1348C98.9089 16.3904 98.9921 16.6583 99.0773 16.9383C99.1665 17.2142 99.2457 17.4942 99.3147 17.7783C99.3877 18.0623 99.4465 18.3464 99.4912 18.6304C99.5358 18.9104 99.5581 19.1843 99.5581 19.4522C99.5581 19.8174 99.5013 20.1725 99.3877 20.5174C99.2781 20.8664 99.1239 21.2012 98.9251 21.5217C98.7303 21.8464 98.497 22.1548 98.2251 22.447C97.9573 22.7391 97.6651 23.0151 97.3486 23.2748C97.0321 23.5345 96.6973 23.7759 96.3442 23.9991C95.9912 24.2223 95.6341 24.4232 95.2729 24.6017L94.579 23.2078C94.8671 23.0658 95.1512 22.9075 95.4312 22.733C95.7112 22.5626 95.977 22.38 96.2286 22.1852C96.4842 21.9904 96.7196 21.7855 96.9347 21.5704C97.1538 21.3554 97.3405 21.1322 97.4947 20.9009C97.6529 20.6696 97.7767 20.4322 97.866 20.1887C97.9552 19.9452 97.9999 19.6997 97.9999 19.4522C97.9999 19.2209 97.9735 18.9774 97.9208 18.7217C97.868 18.4661 97.8031 18.2145 97.726 17.967C97.6529 17.7154 97.5758 17.4739 97.4947 17.2426C97.4176 17.0113 97.3526 16.8064 97.2999 16.6278L98.8277 16.1348ZM102.327 10.4983C102.429 11.2733 102.5 12.0139 102.541 12.72C102.581 13.422 102.605 14.1099 102.614 14.7835C102.622 15.3557 102.624 15.8852 102.62 16.3722C102.62 16.8591 102.616 17.3136 102.607 17.7357C102.599 18.1536 102.587 18.5452 102.571 18.9104C102.555 19.2716 102.539 19.6104 102.522 19.927L100.927 20.1704C101.013 18.8313 101.055 17.6484 101.055 16.6217C101.055 16.2078 101.049 15.8203 101.037 15.4591C101.005 14.6272 100.968 13.8461 100.927 13.1157C100.887 12.3812 100.832 11.6791 100.763 11.0096L102.327 10.4983ZM108.292 20.1826H108.103C107.997 20.1826 107.863 20.1704 107.701 20.1461C107.543 20.1217 107.368 20.0487 107.178 19.927C107.125 20.4383 106.969 20.9272 106.709 21.3939C106.449 21.8646 106.123 22.3049 105.729 22.7148C105.339 23.1246 104.899 23.5 104.408 23.8409C103.921 24.1817 103.42 24.48 102.905 24.7357L102.223 23.3296C102.507 23.1835 102.793 23.0252 103.081 22.8548C103.365 22.6843 103.637 22.5017 103.897 22.307C104.157 22.1122 104.398 21.9093 104.621 21.6983C104.848 21.4872 105.043 21.2661 105.206 21.0348C105.372 20.8035 105.502 20.5661 105.595 20.3226C105.692 20.0791 105.741 19.8296 105.741 19.5739C105.741 19.3913 105.715 19.1904 105.662 18.9713C105.609 18.7481 105.542 18.5168 105.461 18.2774C105.38 18.038 105.293 17.7965 105.199 17.553C105.106 17.3055 105.021 17.0661 104.944 16.8348L106.405 16.2261C106.563 16.7009 106.707 17.0945 106.837 17.407C106.971 17.7154 107.101 17.9609 107.226 18.1435C107.356 18.322 107.49 18.4478 107.628 18.5209C107.77 18.5899 107.93 18.6243 108.109 18.6243H108.298L108.292 20.1826ZM106.782 13.5417L105.613 14.7104L104.451 13.5417L105.613 12.3791L106.782 13.5417ZM108.05 18.6243H108.811C109.01 18.6243 109.215 18.6223 109.426 18.6183C109.641 18.6142 109.848 18.6 110.047 18.5757C110.245 18.5513 110.434 18.5128 110.613 18.46C110.791 18.4072 110.948 18.3322 111.081 18.2348C111.215 18.1333 111.321 18.0075 111.398 17.8574C111.475 17.7032 111.514 17.5145 111.514 17.2913C111.514 16.9991 111.443 16.7009 111.301 16.3965C111.159 16.0881 110.964 15.7736 110.716 15.453C110.469 15.1284 110.177 14.7957 109.84 14.4548C109.507 14.1139 109.148 13.767 108.762 13.4139L108.927 11.9591L113.772 9.80435L114.387 11.253L110.418 12.9696C110.601 13.1238 110.781 13.2861 110.96 13.4565C111.142 13.627 111.327 13.8157 111.514 14.0226C111.794 14.3351 112.031 14.6475 112.226 14.96C112.421 15.2684 112.577 15.5667 112.694 15.8548C112.816 16.1429 112.903 16.4168 112.956 16.6765C113.013 16.9362 113.041 17.1736 113.041 17.3887C113.041 17.8148 112.96 18.2003 112.798 18.5452C112.64 18.8901 112.425 19.1843 112.153 19.4278C111.881 19.6672 111.564 19.8539 111.203 19.9878C110.846 20.1177 110.471 20.1826 110.077 20.1826H108.05V18.6243ZM113.492 9.25652L108.817 11.3139L108.86 10.5409L113.224 8.64174L113.492 9.25652ZM117.162 16.1348C117.243 16.3904 117.326 16.6583 117.411 16.9383C117.501 17.2142 117.58 17.4942 117.649 17.7783C117.722 18.0623 117.781 18.3464 117.825 18.6304C117.87 18.9104 117.892 19.1843 117.892 19.4522C117.892 19.8174 117.835 20.1725 117.722 20.5174C117.612 20.8664 117.458 21.2012 117.259 21.5217C117.064 21.8464 116.831 22.1548 116.559 22.447C116.291 22.7391 115.999 23.0151 115.683 23.2748C115.366 23.5345 115.031 23.7759 114.678 23.9991C114.325 24.2223 113.968 24.4232 113.607 24.6017L112.913 23.2078C113.201 23.0658 113.485 22.9075 113.765 22.733C114.045 22.5626 114.311 22.38 114.563 22.1852C114.818 21.9904 115.054 21.7855 115.269 21.5704C115.488 21.3554 115.674 21.1322 115.829 20.9009C115.987 20.6696 116.111 20.4322 116.2 20.1887C116.289 19.9452 116.334 19.6997 116.334 19.4522C116.334 19.2209 116.307 18.9774 116.255 18.7217C116.202 18.4661 116.137 18.2145 116.06 17.967C115.987 17.7154 115.91 17.4739 115.829 17.2426C115.752 17.0113 115.687 16.8064 115.634 16.6278L117.162 16.1348ZM122.195 20.1826H121.952C121.128 20.1826 120.503 19.9757 120.077 19.5617C119.651 19.1478 119.436 18.5229 119.432 17.687C119.432 17.5571 119.436 17.3441 119.444 17.0478C119.452 16.7475 119.456 16.3823 119.456 15.9522C119.456 15.6965 119.454 15.4226 119.45 15.1304C119.446 14.8342 119.44 14.5339 119.432 14.2296C119.424 13.9212 119.412 13.6148 119.395 13.3104C119.383 13.002 119.367 12.7058 119.347 12.4217C119.326 12.1336 119.302 11.8658 119.274 11.6183C119.245 11.3667 119.213 11.1455 119.176 10.9548L120.704 10.4983C120.749 10.7336 120.789 11.0217 120.826 11.3626C120.862 11.6994 120.895 12.0606 120.923 12.4461C120.952 12.8316 120.972 13.2252 120.984 13.627C121 14.0246 121.008 14.4 121.008 14.753C121.008 14.9681 121.01 15.1974 121.015 15.4409C121.019 15.6803 121.021 15.8913 121.021 16.0739C121.021 16.2281 121.019 16.3742 121.015 16.5122C121.015 16.6461 121.012 16.7759 121.008 16.9017C121.008 17.0275 121.006 17.1513 121.002 17.273C121.002 17.3948 121.002 17.5186 121.002 17.6443C121.002 17.6768 121.002 17.7093 121.002 17.7417C121.002 17.8878 121.017 18.0177 121.045 18.1313C121.077 18.2449 121.132 18.3403 121.209 18.4174C121.286 18.4904 121.384 18.5432 121.501 18.5757C121.623 18.6081 121.763 18.6243 121.921 18.6243H122.195V20.1826ZM121.954 18.6243H122.715C122.914 18.6243 123.119 18.6223 123.33 18.6183C123.545 18.6142 123.752 18.6 123.951 18.5757C124.15 18.5513 124.338 18.5128 124.517 18.46C124.696 18.4072 124.852 18.3322 124.986 18.2348C125.12 18.1333 125.225 18.0075 125.302 17.8574C125.379 17.7032 125.418 17.5145 125.418 17.2913C125.418 16.9991 125.347 16.7009 125.205 16.3965C125.063 16.0881 124.868 15.7736 124.621 15.453C124.373 15.1284 124.081 14.7957 123.744 14.4548C123.411 14.1139 123.052 13.767 122.667 13.4139L122.831 11.9591L127.676 9.80435L128.291 11.253L124.322 12.9696C124.505 13.1238 124.685 13.2861 124.864 13.4565C125.047 13.627 125.231 13.8157 125.418 14.0226C125.698 14.3351 125.935 14.6475 126.13 14.96C126.325 15.2684 126.481 15.5667 126.599 15.8548C126.721 16.1429 126.808 16.4168 126.861 16.6765C126.917 16.9362 126.946 17.1736 126.946 17.3887C126.946 17.8148 126.865 18.2003 126.702 18.5452C126.544 18.8901 126.329 19.1843 126.057 19.4278C125.785 19.6672 125.469 19.8539 125.107 19.9878C124.75 20.1177 124.375 20.1826 123.981 20.1826H121.954V18.6243Z" fill="#1E2329"/>
<g clip-path="url(#clip0_630_66784)">
<path fill-rule="evenodd" clip-rule="evenodd" d="M137 0.00292969H169V0.188104L160.847 8.24048C158.85 6.35562 156.157 5.20065 153.194 5.20065C147.035 5.20065 142.041 10.1942 142.041 16.3537C142.041 18.9278 142.914 21.2986 144.379 23.1855H137V0.00292969ZM145.02 23.9397C147.057 26.1334 149.965 27.5067 153.194 27.5067C159.354 27.5067 164.347 22.5131 164.347 16.3537C164.347 13.6085 163.355 11.0951 161.71 9.15216H168.999V32.0036H136.999V31.861L145.019 23.9404L145.02 23.9397Z" fill="#0D3F6D"/>
<path d="M153.155 24.7212C157.869 24.7212 161.69 20.9 161.69 16.1863C161.69 11.4726 157.869 7.65137 153.155 7.65137C148.441 7.65137 144.62 11.4726 144.62 16.1863C144.62 20.9 148.441 24.7212 153.155 24.7212Z" fill="#0D3F6D"/>
</g>
<defs>
<clipPath id="clip0_630_66784">
<rect width="32" height="32" fill="white" transform="translate(137)"/>
</clipPath>
</defs>
</svg>
