<svg width="883" height="778" viewBox="0 0 883 778" fill="none" xmlns="http://www.w3.org/2000/svg">
<g opacity="0.3">
<path d="M470.546 113.471C438.866 23.5971 347.041 -21.34 298.302 -41H707.705V942H0.99762C33.4899 836.211 182.989 677.994 380.38 512.289C509.607 403.805 522.987 262.242 470.546 113.471Z" fill="#C8E1F9"/>
<path d="M564.458 113.471C493.509 -15.7229 399.827 -21.34 350.897 -41H777.25V942H185.195C185.195 829.657 295.342 677.994 493.509 512.289C623.244 403.805 639.055 249.309 564.458 113.471Z" fill="#DAEBFB"/>
<path d="M647.561 108.424C616.095 25.7237 519.752 -27.8432 429.534 -41H882.504V938.241L413.342 931.882C413.342 819.969 520.605 624.884 602.902 510.173C704.266 368.883 702.375 252.484 647.561 108.424Z" fill="#EDF5FD"/>
</g>
</svg>
