<?xml version="1.0" encoding="UTF-8"?>
<svg xmlns="http://www.w3.org/2000/svg" xmlns:xlink="http://www.w3.org/1999/xlink" width="65pt" height="65pt" viewBox="0 0 65 65" version="1.1">
<g id="surface1">
<path style=" stroke:none;fill-rule:nonzero;fill:rgb(2.352941%,38.039216%,21.568627%);fill-opacity:1;" d="M 46.632812 6.089844 L 49.835938 14.316406 L 17.136719 29.601562 L 15.265625 14.460938 C 16.265625 14.011719 17.1875 13.597656 18.113281 13.1875 C 23.664062 10.730469 29.210938 8.269531 34.757812 5.808594 C 35.503906 5.460938 36.328125 5.3125 37.144531 5.382812 C 40.15625 5.632812 43.167969 5.8125 46.179688 6.023438 C 46.304688 6.03125 46.429688 6.058594 46.632812 6.089844 Z M 46.632812 6.089844 "/>
<path style=" stroke:none;fill-rule:nonzero;fill:rgb(2.352941%,38.039216%,21.568627%);fill-opacity:1;" d="M 19.347656 52.296875 L 19.347656 48.03125 L 24.875 48.03125 L 28.996094 43.71875 L 32.773438 43.71875 L 32.773438 34.039062 L 45.933594 33.601562 L 44.203125 36.464844 L 36.046875 36.933594 C 35.996094 37.210938 35.964844 37.492188 35.949219 37.777344 C 35.9375 39.5625 35.949219 41.335938 35.933594 43.117188 C 35.894531 43.53125 36.042969 43.941406 36.332031 44.238281 C 37.585938 45.453125 38.824219 46.675781 40.167969 48.003906 L 45.789062 48.003906 C 45.789062 49.464844 45.796875 50.839844 45.789062 52.273438 L 32.550781 59.585938 Z M 27.199219 49.03125 L 32.585938 51.007812 L 37.804688 49.039062 L 36.871094 47.671875 L 28.398438 47.671875 Z M 27.199219 49.03125 "/>
<path style=" stroke:none;fill-rule:nonzero;fill:rgb(2.352941%,38.039216%,21.568627%);fill-opacity:1;" d="M 49.832031 15.667969 L 48.425781 29.921875 L 31.617188 23.730469 Z M 49.832031 15.667969 "/>
<path style=" stroke:none;fill-rule:nonzero;fill:rgb(2.352941%,38.039216%,21.568627%);fill-opacity:1;" d="M 28.523438 33.929688 L 28.945312 36.9375 L 20.570312 36.492188 L 18.839844 33.472656 Z M 28.523438 33.929688 "/>
</g>
</svg>
