<svg width="48" height="48" viewBox="0 0 48 48" fill="none" xmlns="http://www.w3.org/2000/svg">
<path d="M35.1635 4.53469L37.5289 10.6097L13.3817 21.8972L12 10.7164C12.7385 10.3847 13.4192 10.0789 14.1029 9.77604C18.2019 7.96162 22.2981 6.14431 26.3942 4.327C26.9452 4.07027 27.5538 3.96065 28.1567 4.01258C30.3808 4.19719 32.6048 4.32989 34.8288 4.48566C34.9212 4.49142 35.0135 4.51162 35.1635 4.53469Z" fill="#2D8686"/>
<path d="M15.0186 38.6558V35.5058H19.1003L22.1436 32.3212H24.933V25.1731L34.6512 24.85L33.3734 26.9644L27.3503 27.3106C27.3128 27.5154 27.2897 27.7231 27.2782 27.9337C27.2695 29.2519 27.2782 30.5615 27.2666 31.8769C27.2378 32.1827 27.3474 32.4856 27.5609 32.7048C28.4868 33.6019 29.4012 34.5048 30.3936 35.4856H34.5445C34.5445 36.5644 34.5503 37.5798 34.5445 38.6385L24.7686 44.0385L15.0186 38.6558ZM20.8166 36.2442L24.7945 37.7039L28.6484 36.25L27.9589 35.2404H21.7022L20.8166 36.2442Z" fill="#2D8686"/>
<path d="M37.5262 11.6078L36.4877 22.1337L24.0752 17.5616L37.5262 11.6078Z" fill="#2D8686"/>
<path d="M21.7945 25.0938L22.1061 27.3149L15.9214 26.9861L14.6436 24.7563L21.7945 25.0938Z" fill="#2D8686"/>
</svg>
