<svg xmlns="http://www.w3.org/2000/svg" width="14" height="14" viewBox="0 0 14 14" fill="currentColor">
<path d="M6.75773 0.333984C7.63321 0.333984 8.50012 0.506423 9.30895 0.841454C10.1178 1.17649 10.8527 1.66755 11.4718 2.28661C12.0908 2.90566 12.5819 3.64059 12.9169 4.44943C13.252 5.25827 13.4244 6.12517 13.4244 7.00065C13.4244 8.76876 12.722 10.4645 11.4718 11.7147C10.2215 12.9649 8.52584 13.6673 6.75773 13.6673C5.88225 13.6673 5.01535 13.4949 4.20651 13.1598C3.39767 12.8248 2.66274 12.3338 2.04369 11.7147C0.793443 10.4645 0.0910645 8.76876 0.0910645 7.00065C0.0910645 5.23254 0.793443 3.53685 2.04369 2.28661C3.29393 1.03636 4.98962 0.333984 6.75773 0.333984ZM3.4244 5.66732L6.75773 9.00065L10.0911 5.66732H3.4244Z" fill="currentColor"/>
</svg>