<svg width="24" height="24" viewBox="0 0 24 24" fill="none" xmlns="http://www.w3.org/2000/svg">
<rect width="24" height="24" rx="12" transform="matrix(-1.19249e-08 -1 -1 1.19249e-08 24 24)" fill="#0C73E9"/>
<path d="M10.5902 7.00005L14.8302 11.2901C14.9239 11.383 14.9983 11.4936 15.0491 11.6155C15.0998 11.7373 15.126 11.868 15.126 12.0001C15.126 12.1321 15.0998 12.2628 15.0491 12.3846C14.9983 12.5065 14.9239 12.6171 14.8302 12.7101L10.5902 16.9501C10.4972 17.0438 10.3866 17.1182 10.2648 17.1689C10.1429 17.2197 10.0122 17.2458 9.88018 17.2458C9.74817 17.2458 9.61746 17.2197 9.4956 17.1689C9.37374 17.1182 9.26314 17.0438 9.17018 16.9501C8.98393 16.7627 8.87939 16.5092 8.87939 16.2451C8.87939 15.9809 8.98393 15.7274 9.17018 15.5401L12.7102 12.0001L9.17018 8.46005C8.98543 8.27379 8.88128 8.02239 8.88018 7.76005C8.87942 7.62844 8.90464 7.49798 8.95441 7.37614C9.00417 7.25431 9.0775 7.14349 9.17018 7.05005C9.2598 6.95298 9.36776 6.87462 9.48784 6.81952C9.60791 6.76441 9.73772 6.73364 9.86975 6.72899C10.0018 6.72434 10.1334 6.7459 10.2571 6.79243C10.3807 6.83895 10.494 6.90952 10.5902 7.00005Z" fill="white"/>
</svg>
