<svg width="24" height="24" viewBox="0 0 24 24" fill="none" xmlns="http://www.w3.org/2000/svg">
<rect y="24" width="24" height="24" rx="12" transform="rotate(-90 0 24)" fill="#0C73E9"/>
<path d="M13.4098 7.00005L9.16982 11.2901C9.07609 11.383 9.0017 11.4936 8.95093 11.6155C8.90016 11.7373 8.87402 11.868 8.87402 12.0001C8.87402 12.1321 8.90016 12.2628 8.95093 12.3846C9.0017 12.5065 9.07609 12.6171 9.16982 12.7101L13.4098 16.9501C13.5028 17.0438 13.6134 17.1182 13.7352 17.1689C13.8571 17.2197 13.9878 17.2458 14.1198 17.2458C14.2518 17.2458 14.3825 17.2197 14.5044 17.1689C14.6263 17.1182 14.7369 17.0438 14.8298 16.9501C15.0161 16.7627 15.1206 16.5092 15.1206 16.2451C15.1206 15.9809 15.0161 15.7274 14.8298 15.5401L11.2898 12.0001L14.8298 8.46005C15.0146 8.27379 15.1187 8.02239 15.1198 7.76005C15.1206 7.62844 15.0954 7.49798 15.0456 7.37614C14.9958 7.25431 14.9225 7.14349 14.8298 7.05005C14.7402 6.95298 14.6322 6.87462 14.5122 6.81952C14.3921 6.76441 14.2623 6.73364 14.1302 6.72899C13.9982 6.72434 13.8666 6.7459 13.7429 6.79243C13.6193 6.83895 13.506 6.90952 13.4098 7.00005Z" fill="white"/>
</svg>
