<svg width="15" height="15" viewBox="0 0 20 20" fill="none" xmlns="http://www.w3.org/2000/svg">
    <path
        d="M9.99726 13.6624C9.98655 13.912 9.90391 14.1474 9.72791 14.3279L8.76991 15.3104L7.24566 16.8735L6.89827 17.2297C6.82023 17.3099 6.72992 17.3726 6.63351 17.4165C6.29531 17.5719 5.87292 17.5107 5.59899 17.2297L2.76935 14.3279C2.60254 14.1567 2.5 13.9041 2.5 13.6624C2.5 13.4317 2.59948 13.1555 2.76935 12.997C2.9438 12.8321 3.17336 12.7097 3.41823 12.7207C3.66308 12.7332 3.89416 12.818 4.07015 12.997L5.02816 13.9795L5.32965 14.2886V3.97578C5.32965 3.80472 5.32811 3.63365 5.32965 3.46415V3.44217C5.32965 3.20048 5.43217 2.9478 5.59899 2.77673C5.75815 2.61351 6.01984 2.49108 6.24786 2.50051C6.48507 2.5115 6.73146 2.59153 6.89674 2.77673C7.06202 2.96036 7.16609 3.18792 7.16609 3.44217V14.2934L8.08278 13.3532L8.43016 12.997C8.59698 12.8259 8.84336 12.7207 9.07904 12.7207C9.304 12.7207 9.57335 12.8227 9.72791 12.997C9.8886 13.1759 10.008 13.4114 9.99726 13.6624Z"
        fill="currentColor" />
    <path
        d="M9.1194 9.36417C8.87148 9.36417 8.64958 9.4709 8.47053 9.6404C8.28994 9.8099 8.21189 10.0626 8.20118 10.3058C8.192 10.5397 8.31137 10.8081 8.47053 10.9713C8.63734 11.1424 8.88373 11.2475 9.1194 11.2475H9.13164C9.43313 11.2507 9.73614 11.2475 10.0376 11.2475H16.5799C16.8279 11.2475 17.0498 11.1408 17.2288 10.9713C17.4094 10.8018 17.4875 10.5491 17.4981 10.3058C17.5074 10.072 17.388 9.80362 17.2288 9.6404C17.062 9.46934 16.8156 9.36417 16.5799 9.36417H16.5678C16.2663 9.36104 15.9633 9.36417 15.6618 9.36417H9.1194ZM14.2216 8.47901C14.4711 8.47901 14.6915 8.37228 14.8705 8.20279C15.0511 8.03329 15.1291 7.78061 15.1399 7.53734C15.149 7.3035 15.0296 7.03511 14.8705 6.8719C14.7038 6.70082 14.4574 6.59567 14.2216 6.59567H9.1194C8.87148 6.59567 8.64958 6.7024 8.47053 6.8719C8.28994 7.0414 8.21189 7.29407 8.20118 7.53734C8.192 7.77119 8.31137 8.03956 8.47053 8.20279C8.63734 8.37386 8.88373 8.47901 9.1194 8.47901H14.2216ZM11.8618 5.71207C12.1113 5.71207 12.3316 5.60535 12.5108 5.43585C12.6913 5.26635 12.7694 5.01367 12.78 4.7704C12.7893 4.53656 12.6699 4.26817 12.5108 4.10496C12.3439 3.93389 12.0975 3.82874 11.8618 3.82874H9.1194C8.87148 3.82874 8.64958 3.93546 8.47053 4.10496C8.28994 4.27446 8.21189 4.52714 8.20118 4.7704C8.192 5.00425 8.31137 5.27262 8.47053 5.43585C8.63734 5.60692 8.88373 5.71207 9.1194 5.71207H11.8618Z"
        fill="currentColor" />
</svg>
    