<svg width="15" height="15" viewBox="0 0 20 20" fill="none" xmlns="http://www.w3.org/2000/svg">
    <path
        d="M10.0027 6.33763C10.0135 6.088 10.0961 5.85263 10.2721 5.67213L11.2301 4.68963L12.7543 3.1265L13.1017 2.77025C13.1798 2.69013 13.2701 2.62738 13.3665 2.5835C13.7047 2.42813 14.1271 2.48925 14.401 2.77025L17.2307 5.67213C17.3975 5.84325 17.5 6.09588 17.5 6.33763C17.5 6.56825 17.4005 6.8445 17.2307 7.003C17.0562 7.16788 16.8266 7.29025 16.5818 7.27925C16.3369 7.26675 16.1058 7.182 15.9299 7.003L14.9718 6.0205L14.6704 5.71138L14.6704 16.0242C14.6704 16.1953 14.6719 16.3664 14.6704 16.5359L14.6704 16.5578C14.6704 16.7995 14.5678 17.0522 14.401 17.2233C14.2419 17.3865 13.9802 17.5089 13.7521 17.4995C13.5149 17.4885 13.2685 17.4085 13.1033 17.2233C12.938 17.0396 12.8339 16.8121 12.8339 16.5578L12.8339 5.70663L11.9172 6.64675L11.5698 7.003C11.403 7.17413 11.1566 7.27925 10.921 7.27925C10.696 7.27925 10.4267 7.17725 10.2721 7.003C10.1114 6.82413 9.99203 6.58863 10.0027 6.33763Z"
        fill="currentColor" />
    <path
        d="M10.8806 10.6358C11.1285 10.6358 11.3504 10.5291 11.5295 10.3596C11.7101 10.1901 11.7881 9.93742 11.7988 9.69415C11.808 9.4603 11.6886 9.19193 11.5295 9.0287C11.3627 8.85764 11.1163 8.75249 10.8806 8.75249L10.8684 8.75249C10.5669 8.74934 10.2639 8.75249 9.96238 8.75249L3.42012 8.75249C3.17212 8.75249 2.95025 8.8592 2.77125 9.0287C2.59062 9.1982 2.5125 9.45089 2.50187 9.69415C2.49262 9.928 2.612 10.1964 2.77125 10.3596C2.938 10.5307 3.18437 10.6358 3.42012 10.6358L3.43225 10.6358C3.73375 10.639 4.03675 10.6358 4.33825 10.6358L10.8806 10.6358ZM5.77837 11.521C5.52887 11.521 5.3085 11.6277 5.1295 11.7972C4.94887 11.9667 4.87087 12.2194 4.86012 12.4627C4.851 12.6965 4.97037 12.9649 5.1295 13.1281C5.29625 13.2992 5.54262 13.4043 5.77837 13.4043L10.8806 13.4043C11.1285 13.4043 11.3504 13.2976 11.5295 13.1281C11.7101 12.9586 11.7881 12.7059 11.7988 12.4627C11.808 12.2288 11.6886 11.9604 11.5295 11.7972C11.3627 11.6261 11.1163 11.521 10.8806 11.521L5.77837 11.521ZM8.13818 14.2879C7.88873 14.2879 7.66836 14.3947 7.48925 14.5642C7.30875 14.7337 7.23062 14.9863 7.22 15.2296C7.21075 15.4634 7.33012 15.7318 7.48925 15.895C7.65612 16.0661 7.90251 16.1713 8.13818 16.1713L10.8806 16.1713C11.1285 16.1713 11.3504 16.0645 11.5295 15.895C11.7101 15.7255 11.7881 15.4729 11.7988 15.2296C11.808 14.9958 11.6886 14.7274 11.5295 14.5642C11.3627 14.3931 11.1163 14.2879 10.8806 14.2879L8.13818 14.2879Z"
        fill="currentColor" />
</svg>
    