<<svg width="24" height="24" viewBox="0 0 24 24" fill="none" xmlns="http://www.w3.org/2000/svg">
<path fill-rule="evenodd" clip-rule="evenodd" d="M9.5101 6.01137C9.04018 6.66408 8.875 7.47354 8.875 8V9.125H15.125V8C15.125 7.47354 14.9598 6.66408 14.4899 6.01137C14.0521 5.40329 13.3148 4.875 12 4.875C10.6852 4.875 9.9479 5.40329 9.5101 6.01137ZM16.875 9.125V8C16.875 7.19346 16.6402 6.00292 15.9101 4.98888C15.1479 3.93021 13.8852 3.125 12 3.125C10.1148 3.125 8.8521 3.93021 8.0899 4.98888C7.35982 6.00292 7.125 7.19346 7.125 8V9.125H4.01177H3.99032H3C2.51675 9.125 2.125 9.51675 2.125 10C2.125 10.4832 2.51675 10.875 3 10.875H3.20814L4.12934 20.0871C4.17407 20.5344 4.55047 20.875 5 20.875H19C19.4495 20.875 19.8259 20.5344 19.8707 20.0871L20.7919 10.875H21C21.4832 10.875 21.875 10.4832 21.875 10C21.875 9.51675 21.4832 9.125 21 9.125H20.0097H19.9882H16.875ZM9 13.125C9.48325 13.125 9.875 13.5168 9.875 14V16C9.875 16.4832 9.48325 16.875 9 16.875C8.51675 16.875 8.125 16.4832 8.125 16V14C8.125 13.5168 8.51675 13.125 9 13.125ZM12 13.125C12.4832 13.125 12.875 13.5168 12.875 14V16C12.875 16.4832 12.4832 16.875 12 16.875C11.5168 16.875 11.125 16.4832 11.125 16V14C11.125 13.5168 11.5168 13.125 12 13.125ZM15 13.125C15.4832 13.125 15.875 13.5168 15.875 14V16C15.875 16.4832 15.4832 16.875 15 16.875C14.5168 16.875 14.125 16.4832 14.125 16V14C14.125 13.5168 14.5168 13.125 15 13.125Z" fill="currentColor"/>
</svg>
