<svg width="22" height="18" viewBox="0 0 22 18" fill="none" xmlns="http://www.w3.org/2000/svg">
    <path
        d="M1.03058 8.242H1.90558C1.90558 8.16864 1.89636 8.09557 1.87812 8.02452L1.03058 8.242ZM2.02855 7V6.125H2.02832L2.02855 7ZM19.9714 7L19.9717 6.125H19.9714V7ZM20.9694 8.242L21.8168 8.45999L21.817 8.45948L20.9694 8.242ZM19.1062 15.485L18.2588 15.267L18.2588 15.2671L19.1062 15.485ZM17.1103 17V17.875H17.1104L17.1103 17ZM4.88974 17L4.88961 17.875H4.88974V17ZM2.8938 15.485L3.74123 15.2671L3.74121 15.267L2.8938 15.485ZM1.03058 8.243H0.155581C0.155581 8.31654 0.164853 8.3898 0.183178 8.46102L1.03058 8.243ZM8.78849 11C8.78849 10.5168 8.39674 10.125 7.91349 10.125C7.43024 10.125 7.03849 10.5168 7.03849 11H8.78849ZM7.03849 13C7.03849 13.4832 7.43024 13.875 7.91349 13.875C8.39674 13.875 8.78849 13.4832 8.78849 13H7.03849ZM14.9615 11C14.9615 10.5168 14.5698 10.125 14.0865 10.125C13.6033 10.125 13.2115 10.5168 13.2115 11H14.9615ZM13.2115 13C13.2115 13.4832 13.6033 13.875 14.0865 13.875C14.5698 13.875 14.9615 13.4832 14.9615 13H13.2115ZM4.10541 6.50508C3.83207 6.90359 3.93355 7.44824 4.33206 7.72158C4.73058 7.99492 5.27523 7.89344 5.54857 7.49492L4.10541 6.50508ZM9.66391 1.49492C9.93725 1.09641 9.83577 0.55176 9.43725 0.278422C9.03874 0.00508267 8.49409 0.106559 8.22075 0.505076L9.66391 1.49492ZM16.4514 7.49492C16.7248 7.89344 17.2694 7.99492 17.6679 7.72158C18.0665 7.44824 18.1679 6.90359 17.8946 6.50508L16.4514 7.49492ZM13.7793 0.505076C13.5059 0.106559 12.9613 0.00508267 12.5627 0.278422C12.1642 0.55176 12.0628 1.09641 12.3361 1.49492L13.7793 0.505076ZM1.87812 8.02452C1.87425 8.00942 1.87399 7.99407 1.87728 7.97903L0.167631 7.6054C0.105972 7.88753 0.111275 8.17981 0.18304 8.45948L1.87812 8.02452ZM1.87728 7.97903C1.88058 7.96393 1.88775 7.94789 1.90008 7.93255L0.535902 6.83641C0.35584 7.0605 0.229275 7.32333 0.167631 7.6054L1.87728 7.97903ZM1.90008 7.93255C1.91248 7.91711 1.93001 7.9026 1.95261 7.89188L1.20262 6.31073C0.944322 6.43325 0.715878 6.61242 0.535902 6.83641L1.90008 7.93255ZM1.95261 7.89188C1.97528 7.88112 2.00142 7.87501 2.02879 7.875L2.02832 6.125C1.74313 6.12508 1.46083 6.18825 1.20262 6.31073L1.95261 7.89188ZM2.02855 7.875H19.9714V6.125H2.02855V7.875ZM19.9712 7.875C19.9986 7.87501 20.0247 7.88112 20.0474 7.89188L20.7974 6.31073C20.5392 6.18825 20.2569 6.12508 19.9717 6.125L19.9712 7.875ZM20.0474 7.89188C20.07 7.9026 20.0875 7.91711 20.0999 7.93255L21.4641 6.83641C21.2841 6.61242 21.0557 6.43325 20.7974 6.31073L20.0474 7.89188ZM20.0999 7.93255C20.1122 7.94788 20.1194 7.96393 20.1227 7.97903L21.8324 7.6054C21.7707 7.32333 21.6442 7.0605 21.4641 6.83641L20.0999 7.93255ZM20.1227 7.97903C20.126 7.99407 20.1257 8.00942 20.1219 8.02452L21.817 8.45948C21.8887 8.17981 21.894 7.88753 21.8324 7.6054L20.1227 7.97903ZM20.122 8.02401L18.2588 15.267L19.9536 15.703L21.8168 8.45999L20.122 8.02401ZM18.2588 15.2671C18.1975 15.5054 18.0547 15.722 17.8474 15.8793L18.9054 17.2733C19.4214 16.8816 19.7924 16.33 19.9536 15.7029L18.2588 15.2671ZM17.8474 15.8793C17.6396 16.037 17.3802 16.125 17.1101 16.125L17.1104 17.875C17.758 17.8749 18.3899 17.6646 18.9054 17.2733L17.8474 15.8793ZM17.1103 16.125H4.88974V17.875H17.1103V16.125ZM4.88987 16.125C4.61983 16.125 4.36037 16.037 4.15261 15.8793L3.09456 17.2733C3.61009 17.6646 4.24196 17.8749 4.88961 17.875L4.88987 16.125ZM4.15261 15.8793C3.94528 15.722 3.80252 15.5054 3.74123 15.2671L2.04638 15.7029C2.20763 16.33 2.57861 16.8816 3.09456 17.2733L4.15261 15.8793ZM3.74121 15.267L1.87798 8.02498L0.183178 8.46102L2.0464 15.703L3.74121 15.267ZM1.90558 8.243V8.242H0.155581V8.243H1.90558ZM7.03849 11V13H8.78849V11H7.03849ZM13.2115 11V13H14.9615V11H13.2115ZM5.54857 7.49492L9.66391 1.49492L8.22075 0.505076L4.10541 6.50508L5.54857 7.49492ZM17.8946 6.50508L13.7793 0.505076L12.3361 1.49492L16.4514 7.49492L17.8946 6.50508Z"
        fill="currentColor" />
</svg>