<svg xmlns="http://www.w3.org/2000/svg" width="24" height="24" viewBox="0 0 24 24" fill="none">
  <path d="M2 8.88184H2.58824H2ZM22 8.88184H21.4118H22ZM21.4118 8.88184L20.5955 17.0446C20.391 19.0894 18.6704 20.6465 16.6153 20.6465H7.38466C5.32965 20.6465 3.60899 19.0894 3.40451 17.0446L2.58824 8.88184" fill="#ECF4FE"/>
  <path d="M2 8.88184H2.58824M2.58824 8.88184L3.40451 17.0446C3.60899 19.0894 5.32965 20.6465 7.38466 20.6465H16.6153C18.6704 20.6465 20.391 19.0894 20.5955 17.0446L21.4118 8.88184M2.58824 8.88184H21.4118M22 8.88184H21.4118" stroke="#ECF4FE" stroke-width="1.75" stroke-linecap="round" stroke-linejoin="round"/>
  <path d="M16.7067 10.0588H7.29492V7.70588C7.29492 6.13765 8.2361 3 12.0008 3C15.7655 3 16.7067 6.13765 16.7067 7.70588V10.0588Z" stroke="#ECF4FE" stroke-width="1.75" stroke-linecap="round" stroke-linejoin="round"/>
  <path d="M12.0021 14.7637V17.1166M15.5315 14.7637V17.1166M8.47266 14.7637V17.1166" stroke="#04264E" stroke-width="1.75" stroke-linecap="round" stroke-linejoin="round"/>
</svg>