<svg width="32" height="32" viewBox="0 0 32 32" fill="none" xmlns="http://www.w3.org/2000/svg">
<path fill-rule="evenodd" clip-rule="evenodd" d="M2.66756 2.66675H29.3337V2.82106L22.5396 9.53122C20.8754 7.96054 18.6317 6.99809 16.1628 6.99809C11.0301 6.99809 6.8688 11.1593 6.8688 16.2921C6.8688 18.4372 7.59585 20.4128 8.81681 21.9852H2.66756V2.66675ZM9.35069 22.6136C11.0481 24.4417 13.4714 25.5861 16.1628 25.5861C21.2961 25.5861 25.4567 21.4248 25.4567 16.2921C25.4567 14.0045 24.6295 11.91 23.2587 10.2909H29.3331V29.3334H2.66699V29.2146L9.35069 22.6136Z" fill="#ECF4FE"/>
<path d="M16.13 23.2681C20.058 23.2681 23.2423 20.0839 23.2423 16.1559C23.2423 12.2279 20.058 9.04356 16.13 9.04356C12.202 9.04356 9.01776 12.2279 9.01776 16.1559C9.01776 20.0839 12.202 23.2681 16.13 23.2681Z" fill="#ECF4FE"/>
</svg>
