<svg width="16" height="19" viewBox="0 0 16 19" fill="none" xmlns="http://www.w3.org/2000/svg">
<path d="M13.8929 0.666504H2.10714C1.25 0.666504 0.5 1.43213 0.5 2.30713V16.5259C0.5 17.4009 1.25 18.1665 2.10714 18.1665H13.8929C14.75 18.1665 15.5 17.4009 15.5 16.5259V2.30713C15.5 1.43213 14.75 0.666504 13.8929 0.666504ZM4.78571 15.5415C4.78571 15.7603 4.57143 15.979 4.35714 15.979H3.07143C2.85714 15.979 2.64286 15.7603 2.64286 15.5415V14.229C2.64286 14.0103 2.85714 13.7915 3.07143 13.7915H4.35714C4.57143 13.7915 4.78571 14.0103 4.78571 14.229V15.5415ZM4.78571 11.1665C4.78571 11.3853 4.57143 11.604 4.35714 11.604H3.07143C2.85714 11.604 2.64286 11.3853 2.64286 11.1665V9.854C2.64286 9.63525 2.85714 9.4165 3.07143 9.4165H4.35714C4.57143 9.4165 4.78571 9.63525 4.78571 9.854V11.1665ZM9.07143 15.5415C9.07143 15.7603 8.85714 15.979 8.64286 15.979H7.35714C7.14286 15.979 6.92857 15.7603 6.92857 15.5415V14.229C6.92857 14.0103 7.14286 13.7915 7.35714 13.7915H8.64286C8.85714 13.7915 9.07143 14.0103 9.07143 14.229V15.5415ZM9.07143 11.1665C9.07143 11.3853 8.85714 11.604 8.64286 11.604H7.35714C7.14286 11.604 6.92857 11.3853 6.92857 11.1665V9.854C6.92857 9.63525 7.14286 9.4165 7.35714 9.4165H8.64286C8.85714 9.4165 9.07143 9.63525 9.07143 9.854V11.1665ZM13.3571 15.5415C13.3571 15.7603 13.1429 15.979 12.9286 15.979H11.6429C11.4286 15.979 11.2143 15.7603 11.2143 15.5415V9.854C11.2143 9.63525 11.4286 9.4165 11.6429 9.4165H12.9286C13.1429 9.4165 13.3571 9.63525 13.3571 9.854V15.5415ZM13.3571 6.7915C13.3571 7.01025 13.1429 7.229 12.9286 7.229H3.07143C2.85714 7.229 2.64286 7.01025 2.64286 6.7915V3.2915C2.64286 3.07275 2.85714 2.854 3.07143 2.854H12.9286C13.1429 2.854 13.3571 3.07275 13.3571 3.2915V6.7915Z" fill="currentColor"/>
</svg>
