<svg xmlns="http://www.w3.org/2000/svg" width="12" height="14" viewBox="0 0 12 14" fill="currentColor">
<path d="M0.00451188 4.84827C-0.0329672 4.10396 0.16393 3.36875 0.562369 2.75231L0.666158 2.60074L0.674736 2.59243L0.746791 2.50788L0.822277 2.42155L0.830855 2.41265C0.974965 2.26492 1.13451 2.13498 1.30665 2.02402L1.35525 1.99325L1.40386 1.96469L1.51824 1.89883C1.56456 1.87688 1.61488 1.85077 1.6612 1.82882C1.69494 1.81577 1.72868 1.79856 1.76242 1.78551C1.8259 1.75881 1.89338 1.7327 1.96086 1.71075C1.98373 1.69947 2.00775 1.69057 2.03234 1.68464L2.05965 1.67366L2.08953 1.66269C2.39719 1.57072 2.71343 1.50724 3.0331 1.47816L3 1.48204V0.818949C3 0.553078 3.21446 0.338106 3.4797 0.338106C3.74494 0.338106 3.96 0.553078 3.96 0.818949V2.91478C3.96 3.18065 3.74494 3.39622 3.4797 3.39622C3.21446 3.39622 3 3.18065 3 2.91478L3.00003 2.43024C2.68513 2.46176 2.37593 2.54012 2.08266 2.66423C1.32589 3.00468 0.964967 3.65303 0.930767 4.6805L0.928072 4.84589V5.10399H11.0724V4.83937C11.0918 4.36352 10.9963 3.89004 10.7939 3.46225C10.5994 3.09617 10.2883 2.81196 9.91262 2.6577C9.67336 2.5547 9.42274 2.48283 9.16664 2.44363L9 2.42337L9.00002 2.91236C9.00002 3.17708 8.78522 3.3915 8.52002 3.3915C8.25482 3.3915 8.04002 3.17708 8.04002 2.91236L8.04 2.38737L3.96467 2.38773V1.43426L8.04 1.43404L8.04002 0.816128C8.03762 0.551405 8.25122 0.335193 8.51642 0.333385C8.78162 0.3316 8.99822 0.544217 9.00002 0.808941L9.0004 1.47835C9.23332 1.50133 9.46434 1.54197 9.6917 1.60002L9.91777 1.66387C9.93607 1.66743 9.94979 1.67218 9.97496 1.68108C10.0001 1.68998 10.0213 1.69888 10.0464 1.70719C10.1133 1.72914 10.1757 1.75525 10.2403 1.78195C10.2775 1.795 10.3118 1.81221 10.3409 1.82526C10.3913 1.84721 10.4427 1.87332 10.4839 1.89527C10.5262 1.91723 10.5668 1.94155 10.6023 1.96113C10.6377 1.98071 10.6652 2.00266 10.6949 2.02046C10.8245 2.10412 10.9476 2.19846 11.0625 2.30223L11.1747 2.40909L11.1799 2.41799L11.2583 2.50121L11.332 2.58887L11.336 2.59718C11.7673 3.19361 11.9992 3.91795 12 4.66006L11.9954 4.84589V5.10399H12V10.2735C12 12.5278 10.7411 13.6667 8.24607 13.6667H3.74821C1.25894 13.6667 8.93975e-10 12.5278 8.93975e-10 10.2735V5.10399H0.00451188V4.84827ZM8.74392 9.83089C8.43491 9.83089 8.18884 10.0846 8.18884 10.3974C8.19456 10.7102 8.44063 10.9639 8.74392 10.9639C9.04721 10.9639 9.29328 10.7102 9.29328 10.3974C9.29328 10.0846 9.04721 9.83089 8.74392 9.83089ZM6.00286 9.82499C5.69385 9.83089 5.44778 10.0846 5.44778 10.3974C5.44778 10.7102 5.69957 10.9639 6.00286 10.9639C6.30615 10.9639 6.55222 10.7102 6.55222 10.3915C6.5465 10.0846 6.30615 9.83089 6.00286 9.82499ZM3.25608 9.82499C2.94707 9.82499 2.701 10.0846 2.70672 10.3974C2.70672 10.7102 2.95279 10.9639 3.25608 10.9639C3.55937 10.9639 3.80544 10.7043 3.80544 10.3915C3.80544 10.0787 3.55937 9.82499 3.25608 9.82499ZM8.74392 7.41138C8.43491 7.41138 8.19456 7.66513 8.19456 7.9779C8.19456 8.29067 8.44063 8.54442 8.74392 8.54442C9.04721 8.54442 9.29328 8.29067 9.29328 7.9779C9.29328 7.66513 9.04721 7.41138 8.74392 7.41138ZM6.00286 7.40548C5.69385 7.41138 5.44778 7.66513 5.44778 7.9779C5.44778 8.29067 5.69957 8.54442 6.00286 8.54442C6.30615 8.54442 6.55222 8.29067 6.55222 7.972C6.55222 7.66513 6.30615 7.41138 6.00286 7.40548ZM3.2618 7.40548C2.95279 7.40548 2.70672 7.66513 2.70672 7.9779C2.70672 8.29067 2.95279 8.54442 3.25608 8.54442C3.56509 8.54442 3.81116 8.28477 3.80544 7.972C3.80544 7.65923 3.55937 7.40548 3.2618 7.40548Z" fill="currentColor"/>
</svg>
