<svg width="2.4rem" height="2.4rem" viewBox="0 0 24 25" fill="none" xmlns="http://www.w3.org/2000/svg">
	<path
		d="M3.00677 9.27234C2.95055 8.15588 3.24589 7.05307 3.84355 6.12841L3.99924 5.90105L4.0121 5.88859L4.12019 5.76176L4.23342 5.63227L4.24628 5.61892C4.46245 5.39731 4.70177 5.2024 4.95997 5.03598L5.03288 4.98981L5.10579 4.94698L5.27735 4.84819C5.34683 4.81526 5.42232 4.7761 5.4918 4.74317C5.54241 4.72359 5.59302 4.69778 5.64363 4.6782C5.73885 4.63815 5.84007 4.59899 5.94129 4.56606C5.9756 4.54915 6.01163 4.5358 6.04851 4.5269L6.08947 4.51044L6.13429 4.49397C6.59578 4.35602 7.07015 4.26079 7.54965 4.21718L7.5 4.223V3.22836C7.5 2.82956 7.82169 2.5071 8.21955 2.5071C8.61741 2.5071 8.94 2.82956 8.94 3.22836V6.3721C8.94 6.77091 8.61741 7.09427 8.21955 7.09427C7.82169 7.09427 7.5 6.77091 7.5 6.3721L7.50005 5.64529C7.0277 5.69259 6.56389 5.81011 6.124 5.99628C4.98883 6.50696 4.44745 7.47948 4.39615 9.02069L4.39211 9.26878V9.65593H19.6085V9.25899C19.6377 8.54522 19.4945 7.835 19.1908 7.19332C18.8991 6.64419 18.4325 6.21789 17.8689 5.98649C17.51 5.83198 17.1341 5.72419 16.75 5.66538L16.5 5.635L16.5 6.36848C16.5 6.76556 16.1778 7.08719 15.78 7.08719C15.3822 7.08719 15.06 6.76556 15.06 6.36848L15.06 5.581L8.947 5.58154V4.15132L15.06 4.151L15.06 3.22413C15.0564 2.82705 15.3768 2.50273 15.7746 2.50002C16.1724 2.49734 16.4973 2.81627 16.5 3.21335L16.5006 4.21747C16.85 4.25194 17.1965 4.31289 17.5375 4.39997L17.8767 4.49575C17.9041 4.50109 17.9247 4.50821 17.9624 4.52156C18.0002 4.53491 18.0319 4.54826 18.0697 4.56072C18.17 4.59365 18.2635 4.63281 18.3605 4.67286C18.4162 4.69244 18.4677 4.71825 18.5114 4.73783C18.5869 4.77076 18.6641 4.80992 18.7259 4.84285C18.7893 4.87578 18.8503 4.91227 18.9034 4.94164C18.9566 4.97101 18.9978 5.00394 19.0424 5.03064C19.2367 5.15612 19.4213 5.29763 19.5938 5.45328L19.7621 5.61358L19.7698 5.62693L19.8874 5.75175L19.998 5.88325L20.004 5.89571C20.6509 6.79036 20.9989 7.87686 21 8.99003L20.993 9.26878V9.65593H21V17.4102C21 20.7916 19.1116 22.5 15.3691 22.5H8.62232C4.88841 22.5 3 20.7916 3 17.4102V9.65593H3.00677V9.27234ZM16.1159 16.7463C15.6524 16.7463 15.2833 17.1269 15.2833 17.5961C15.2918 18.0652 15.6609 18.4458 16.1159 18.4458C16.5708 18.4458 16.9399 18.0652 16.9399 17.5961C16.9399 17.1269 16.5708 16.7463 16.1159 16.7463ZM12.0043 16.7374C11.5408 16.7463 11.1717 17.1269 11.1717 17.5961C11.1717 18.0652 11.5494 18.4458 12.0043 18.4458C12.4592 18.4458 12.8283 18.0652 12.8283 17.5872C12.8197 17.1269 12.4592 16.7463 12.0043 16.7374ZM7.88412 16.7374C7.4206 16.7374 7.0515 17.1269 7.06009 17.5961C7.06009 18.0652 7.42918 18.4458 7.88412 18.4458C8.33906 18.4458 8.70815 18.0564 8.70815 17.5872C8.70815 17.1181 8.33906 16.7374 7.88412 16.7374ZM16.1159 13.117C15.6524 13.117 15.2918 13.4976 15.2918 13.9668C15.2918 14.4359 15.6609 14.8166 16.1159 14.8166C16.5708 14.8166 16.9399 14.4359 16.9399 13.9668C16.9399 13.4976 16.5708 13.117 16.1159 13.117ZM12.0043 13.1082C11.5408 13.117 11.1717 13.4976 11.1717 13.9668C11.1717 14.4359 11.5494 14.8166 12.0043 14.8166C12.4592 14.8166 12.8283 14.4359 12.8283 13.9579C12.8283 13.4976 12.4592 13.117 12.0043 13.1082ZM7.8927 13.1082C7.42918 13.1082 7.06009 13.4976 7.06009 13.9668C7.06009 14.4359 7.42918 14.8166 7.88412 14.8166C8.34764 14.8166 8.71674 14.4271 8.70815 13.9579C8.70815 13.4888 8.33906 13.1082 7.8927 13.1082Z"
		fill="currentColor" />
</svg>