<svg width="24" height="24" viewBox="0 0 24 24" fill="none" xmlns="http://www.w3.org/2000/svg">
<g clip-path="url(#clip0_4237_187570)">
<path fill-rule="evenodd" clip-rule="evenodd" d="M15.7702 5.25425C16.9259 5.26475 17.9872 6.2555 18.0059 7.47575C18.0224 9.23975 18.0112 11.003 18.0059 12.767C17.9954 13.9243 17.0002 14.9833 15.7844 15.0028C11.7712 15.0403 7.7579 15.0148 3.7439 15.0028C2.58815 14.9915 1.52765 14.0015 1.5089 12.7805C1.4924 11.0173 1.5029 9.25325 1.50815 7.49C1.5194 6.335 2.5139 5.273 3.7304 5.25425C7.74365 5.21675 11.7569 5.2415 15.7702 5.25425ZM3.0074 12.1393C3.00815 12.3433 3.00815 12.5473 3.00815 12.752C3.00815 13.1398 3.3464 13.4938 3.7439 13.5028C3.9569 13.5058 4.1699 13.5088 4.3829 13.5118C4.37765 13.4968 4.3724 13.4818 4.36715 13.4668C4.13765 12.8533 3.62465 12.365 3.0074 12.1393ZM16.5134 12.1393C15.8962 12.3695 15.3809 12.8743 15.1447 13.5035C15.3487 13.5028 15.5519 13.5028 15.7552 13.5028C16.1437 13.5028 16.4977 13.1645 16.5059 12.767C16.5097 12.5578 16.5119 12.3485 16.5134 12.1393ZM9.7739 7.5035C10.9882 7.5155 12.1252 8.4575 12.3412 9.665C12.6314 11.288 11.1164 13.0498 9.2774 12.7093C8.2124 12.5113 7.3184 11.5873 7.16015 10.511C6.94715 9.0575 8.1314 7.5395 9.7064 7.50425C9.7289 7.5035 9.7514 7.5035 9.7739 7.5035ZM4.37165 6.7535C4.16765 6.7535 3.96365 6.7535 3.75965 6.7535C3.3719 6.755 3.01715 7.091 3.00815 7.49C3.00515 7.70225 3.0029 7.91525 3.00065 8.1275C3.01565 8.123 3.0299 8.11775 3.04415 8.1125C3.65765 7.88375 4.1459 7.37 4.37165 6.7535ZM15.1424 6.74525C15.3734 7.3625 15.8774 7.8785 16.5074 8.11475C16.5067 7.9115 16.5067 7.70825 16.5067 7.505C16.5067 7.1165 16.1684 6.7625 15.7702 6.75425C15.5609 6.7505 15.3517 6.7475 15.1424 6.74525Z" fill="currentColor"/>
<path d="M19.609 8.09695C19.9676 8.16171 20.2412 8.47227 20.2579 8.83993C20.2579 10.5633 20.2635 12.2868 20.2579 14.0095C20.2419 15.6918 18.8012 17.2439 16.9984 17.2495H4.18873C3.52652 17.2196 3.16164 16.2391 3.80435 15.8562C3.9102 15.7928 3.96938 15.7594 4.18873 15.7496C8.46559 15.7496 12.7431 15.79 17.02 15.7496C17.9301 15.735 18.7553 14.9363 18.758 13.9879V8.83993C18.7775 8.40403 19.1619 8.05656 19.609 8.09695Z" fill="currentColor"/>
<path d="M21.8518 10.3469C22.2104 10.4117 22.4841 10.7223 22.5008 11.0899C22.5008 12.5202 22.505 13.9512 22.5008 15.3814C22.4806 17.5094 20.6583 19.4925 18.3583 19.4995H6.43158C5.91977 19.4765 5.54167 18.9236 5.74221 18.455C5.839 18.2273 6.05486 18.056 6.29788 18.0115C6.35637 18.001 6.37169 18.0024 6.43158 17.9996C10.4125 17.9996 14.3927 18.0121 18.3736 17.9996C19.7377 17.9871 20.9967 16.8096 21.0009 15.355V11.0899C21.0204 10.654 21.4048 10.3066 21.8518 10.3469Z" fill="currentColor"/>
<path fill-rule="evenodd" clip-rule="evenodd" d="M9.74824 9C9.01024 9.00675 8.40274 9.876 8.73274 10.5938C9.02599 11.232 9.98674 11.4465 10.5215 10.9485C11.1432 10.3702 10.8387 9.03075 9.78499 9.00075C9.77299 9 9.76099 9 9.74824 9Z" fill="currentColor"/>
</g>
<defs>
<clipPath id="clip0_4237_187570">
<rect width="24" height="24" fill="white"/>
</clipPath>
</defs>
</svg>
