<svg width="20" height="20" viewBox="0 0 20 20" fill="none" xmlns="http://www.w3.org/2000/svg">
<path d="M18.0651 9.49609H15.6577V17.4547H18.0651V9.49609Z" fill="currentColor"/>
<path d="M13.5563 11.7676H11.1489V17.4547H13.5563V11.7676Z" fill="currentColor"/>
<path d="M9.04707 9.49609H6.63965V17.4547H9.04707V9.49609Z" fill="currentColor"/>
<path d="M4.53828 13.1299H2.13086V17.4545H4.53828V13.1299Z" fill="currentColor"/>
<path d="M10.9754 6.8575L10.9691 6.85359L8.63158 5.34715C8.62713 5.34434 8.62283 5.34133 8.61865 5.3382L8.76709 5.13711L8.88564 4.95312L11.2239 6.46L10.9754 6.8575Z" fill="currentColor"/>
<path d="M15.6051 4.61624L13.4746 6.40137L13.7757 6.76067L15.9062 4.97554L15.6051 4.61624Z" fill="currentColor"/>
<path d="M6.08355 5.57184L3.77148 7.83203L4.09916 8.16723L6.41122 5.90703L6.08355 5.57184Z" fill="currentColor"/>
<path d="M7.37705 3.24824C7.05221 3.24793 6.73457 3.34398 6.46434 3.52425C6.1941 3.70451 5.98341 3.9609 5.85894 4.26094C5.73446 4.56099 5.70179 4.89122 5.76506 5.20985C5.82832 5.52847 5.98469 5.82117 6.21436 6.05089C6.44403 6.28062 6.73669 6.43705 7.0553 6.5004C7.37391 6.56374 7.70415 6.53115 8.00422 6.40674C8.3043 6.28234 8.56073 6.07171 8.74107 5.80152C8.9214 5.53133 9.01753 5.21371 9.01729 4.88887C9.01685 4.45395 8.84392 4.03696 8.53642 3.72939C8.22892 3.42182 7.81197 3.24878 7.37705 3.24824ZM12.3759 5.5916C12.0514 5.59152 11.7341 5.68768 11.4643 5.86791C11.1944 6.04813 10.9841 6.30434 10.8599 6.60412C10.7356 6.90389 10.7031 7.23378 10.7663 7.55206C10.8296 7.87033 10.9858 8.1627 11.2153 8.39219C11.4447 8.62167 11.737 8.77796 12.0553 8.8413C12.3735 8.90463 12.7034 8.87217 13.0032 8.748C13.303 8.62384 13.5593 8.41356 13.7396 8.14375C13.9199 7.87394 14.0161 7.55673 14.0161 7.23223C14.0152 6.79745 13.8421 6.38072 13.5347 6.07325C13.2273 5.76577 12.8107 5.59259 12.3759 5.5916ZM16.8802 2.31152C16.5558 2.31152 16.2386 2.40772 15.9689 2.58795C15.6992 2.76818 15.4889 3.02435 15.3648 3.32407C15.2407 3.62378 15.2082 3.95358 15.2715 4.27175C15.3347 4.58993 15.491 4.88219 15.7204 5.11158C15.9497 5.34097 16.242 5.49719 16.5602 5.56048C16.8784 5.62376 17.2082 5.59128 17.5079 5.46714C17.8076 5.34299 18.0638 5.13276 18.244 4.86302C18.4242 4.59329 18.5204 4.27617 18.5204 3.95176C18.5199 3.51689 18.3469 3.09998 18.0394 2.79249C17.732 2.48499 17.315 2.31202 16.8802 2.31152ZM4.07135 7.80937C3.77171 7.59598 3.40905 7.48948 3.0416 7.50698C2.67416 7.52447 2.32326 7.66495 2.04525 7.90584C1.76724 8.14674 1.57826 8.47408 1.50865 8.83529C1.43904 9.19651 1.49284 9.57063 1.66142 9.89759C1.83 10.2246 2.10357 10.4854 2.4382 10.6382C2.77283 10.7909 3.14909 10.8268 3.50658 10.7401C3.86406 10.6533 4.18201 10.4489 4.40937 10.1598C4.63673 9.87057 4.76031 9.51337 4.76026 9.14551C4.76113 8.88385 4.69899 8.62583 4.57907 8.39326C4.45916 8.16069 4.28501 7.96042 4.07135 7.80937Z" fill="currentColor"/>
</svg>
