<svg width="20" height="18" viewBox="0 0 20 18" fill="none" xmlns="http://www.w3.org/2000/svg">
<path fill-rule="evenodd" clip-rule="evenodd" d="M3.125 4.22H2.06L0.5 2.645L1.565 1.595L2.6 2.615L4.715 0.5L5.78 1.565L3.125 4.22ZM7.985 2H19.985V3.5H7.985V2ZM7.985 6.5H19.985V8H7.985V6.5ZM19.985 11H7.985V12.5H19.985V11ZM7.985 15.5H19.985V17H7.985V15.5ZM2.06 8.72H3.125L5.78 6.065L4.715 5.015L2.6 7.13L1.565 6.095L0.5 7.16L2.06 8.72ZM3.125 13.235H2.06L0.5 11.675L1.565 10.61L2.6 11.645L4.715 9.515L5.78 10.58L3.125 13.235ZM2.06 17.75H3.125L5.78 15.095L4.715 14.03L2.6 16.16L1.565 15.125L0.5 16.175L2.06 17.75Z" fill="currentColor"/>
</svg>
