<svg width="12" height="12" viewBox="0 0 12 12" fill="none" xmlns="http://www.w3.org/2000/svg">
    <path d="M7.05002 6L11.775 1.275C12.075 0.974996 12.075 0.525 11.775 0.225C11.475 -0.075 11.025 -0.075 10.725 0.225L6 4.95L1.27502 0.225C0.975017 -0.075 0.524999 -0.075 0.225 0.225C-0.0749999 0.525 -0.0749999 0.974996 0.225 1.275L4.94998 6L0.225 10.725C0.0749999 10.875 9.15861e-06 11.025 9.15861e-06 11.25C9.15861e-06 11.7 0.300009 12 0.750008 12C0.975008 12 1.12502 11.925 1.27502 11.775L6 7.04999L10.725 11.775C10.875 11.925 11.025 12 11.25 12C11.475 12 11.625 11.925 11.775 11.775C12.075 11.475 12.075 11.025 11.775 10.725L7.05002 6Z" fill="currentColor"/>
    </svg>
    