<svg width="24" height="29" viewBox="0 0 24 29" fill="none" xmlns="http://www.w3.org/2000/svg">
	<path d="M15.9496 7.74609H3.65947H2.26281H1.76562V15.3193H3.65947V9.80555H15.9496V7.74609ZM6.21571 12.9734H4.32218V18.151H6.21571V12.9734Z" fill="#F5A400" />
	<path d="M3.48729 15.6705H1.59375V20.848H2.41461H3.48729H7.03852H8.93206V18.7886V10.3787H7.03852V18.7886H3.48729V15.6705ZM22.6515 7.57744H19.0017H17.1791H17.1081V13.4129H17.1791V13.4415H20.8249V15.0434H15.9243V13.4415V11.6466V11.382H11.4361V13.4415H14.0307V15.0434H11.5448V17.1028H22.6515V16.8523V15.0434V13.4415V11.5249V11.382H19.0017V9.63688H22.6515V7.57744ZM11.0476 6.66016H9.15379V16.8241H11.0476V6.66016Z" fill="currentColor" />
</svg>
