<svg width="21" height="20" viewBox="0 0 21 20" fill="none" xmlns="http://www.w3.org/2000/svg">
    <path d="M13.3147 5.45337H3.05042H1.88398H1.46875V11.4532H3.05042V7.08495H13.3147V5.45337ZM5.18531 9.59465H3.60389V13.6965H5.18531V9.59465Z" fill="#FFB11A"/>
    <path d="M2.90954 11.7315H1.32812V15.8334H2.01368H2.90954H5.87541H7.45683V14.2018V7.53909H5.87541V14.2018H2.90954V11.7315ZM18.9148 5.31985H15.8666H14.3444H14.2852V9.94294H14.3444V9.96558H17.3893V11.2347H13.2965V9.96558V8.54361V8.334H9.54812V9.96558H11.7151V11.2347H9.63891V12.8663H18.9148V12.6678V11.2347V9.96558V8.44719V8.334H15.8666V6.95143H18.9148V5.31985ZM9.22368 4.59314H7.642V12.6455H9.22368V4.59314Z" fill="#5E6781"/>
    </svg>
    