<svg width="20" height="20" viewBox="0 0 20 20" fill="none" xmlns="http://www.w3.org/2000/svg">
<path d="M12.9078 5.74893H3.56959H2.50839H2.13062V10.9718H3.56959V7.16925H12.9078V5.74893ZM5.51186 9.35397H4.07313V12.9247H5.51186V9.35397Z" fill="#F5A400"/>
<path d="M3.43874 11.214H2V14.7847H2.6237H3.43874H6.13702H7.57576V13.3644V7.56451H6.13702V13.3644H3.43874V11.214ZM18 5.63261H15.2268H13.842H13.788V9.65706H13.842V9.67679H16.6121V10.7815H12.8886V9.67679V8.43892V8.25644H9.47837V9.67679H11.4498V10.7815H9.56096V12.2018H18V12.0291V10.7815V9.67679V8.35499V8.25644H15.2268V7.05291H18V5.63261ZM9.18318 5H7.74423V12.0096H9.18318V5Z" fill="currentColor"/>
</svg>
