<svg width="24" height="24" viewBox="0 0 24 24" fill="none" xmlns="http://www.w3.org/2000/svg">
    <path d="M15.9496 6.54395H3.65947H2.26281H1.76562V13.7437H3.65947V8.50185H15.9496V6.54395ZM6.21571 11.5135H4.32218V16.4358H6.21571V11.5135Z" fill="#F2A40D"/>
    <path d="M3.48778 14.0778H1.59424V19H2.4151H3.48778H7.03901H8.93255V17.0421V9.04686H7.03901V17.0421H3.48778V14.0778ZM22.652 6.38377H19.0022H17.1796H17.1086V11.9315H17.1796V11.9586H20.8254V13.4816H15.9248V11.9586V10.2523V10.0008H11.4366V11.9586H14.0312V13.4816H11.5453V15.4395H22.652V15.2013V13.4816V11.9586V10.1366V10.0008H19.0022V8.34167H22.652V6.38377ZM11.0481 5.51172H9.15427V15.1745H11.0481V5.51172Z" fill="#808080"/>
    </svg>
    