<svg width="16" height="16" viewBox="0 0 16 16" fill="none" xmlns="http://www.w3.org/2000/svg">
<path fill-rule="evenodd" clip-rule="evenodd" d="M9.59437 14.6666V13.42H8.03096V14.6666H9.59437ZM7.00397 5.11981C8.88926 5.25106 11.7248 4.43087 13.3036 3.31542C14.7751 2.26566 14.5758 1.46184 12.8131 1.34706C10.9125 1.2158 8.09227 2.03599 6.51346 3.15144C5.02673 4.18485 5.24124 5.00502 7.00397 5.11981ZM13.1196 3.82399L13.4262 5.02138C13.5181 4.97217 13.5948 4.90659 13.6868 4.85738C14.3765 4.36529 14.7444 3.8732 14.6524 3.51237L14.4378 2.62661C14.1772 3.08586 13.6561 3.496 13.1196 3.82399ZM11.3876 4.66055L11.6941 5.87442C12.2306 5.66121 12.721 5.43153 13.1349 5.20187L12.8437 3.988C12.4146 4.23405 11.9241 4.46373 11.3876 4.66055ZM9.59424 5.20185L9.88543 6.41571L11.4029 5.97282L11.0963 4.77543L9.59424 5.20185ZM7.72426 5.46428L8.01545 6.66167C8.49059 6.64529 9.02707 6.57962 9.57886 6.4812L9.28767 5.26733C8.72059 5.38212 8.19939 5.4479 7.72426 5.46428ZM5.91565 6.02195C6.0383 6.51404 6.94255 6.66167 7.69366 6.66167L7.40246 5.46428C6.77401 5.46428 6.13025 5.38223 5.70111 5.13619L5.91565 6.02195ZM2.22174 7.1866L2.80422 6.10399C2.35969 5.64474 1.96124 5.10342 1.82329 4.57849L1.39415 5.38221C1.14893 5.80872 1.68526 6.59608 2.22174 7.1866ZM3.6779 8.48241L4.26038 7.3998C3.80055 7.05533 3.3867 6.69451 3.03416 6.35004L2.45168 7.41626C2.78885 7.77709 3.21807 8.13796 3.6779 8.48241ZM5.86976 8.41683L4.52098 7.58027L3.9385 8.66288L5.28728 9.49944L5.86976 8.41683ZM2.74285 5.56273C3.99967 7.08822 6.54401 8.64663 8.39875 9.05647C9.48703 9.30252 10.376 9.13852 9.87019 8.07229C9.70156 7.72782 9.41037 7.31777 9.01183 6.90764C8.00021 7.05527 5.88492 7.15369 5.62434 6.10392L5.24118 4.57842C5.21049 4.48 5.21049 4.39796 5.21049 4.31599C4.42879 3.97152 3.72376 3.75832 3.15657 3.70912C1.74641 3.59433 1.83851 4.46366 2.74285 5.56273ZM7.03468 10.2541L7.61716 9.18785C7.15733 9.02385 6.66682 8.82702 6.161 8.5645L5.57852 9.64711C6.08432 9.90954 6.59014 10.1065 7.03468 10.2541ZM7.35656 10.3525C8.07698 10.5493 8.98125 10.6641 9.22654 10.2212L9.65568 9.4339C9.16517 9.54869 8.52141 9.45027 7.92364 9.28627L7.35656 10.3525ZM11.771 13.0754V14.3056C12.5067 14.0924 13.3344 13.6987 13.3344 13.1902V12.2716C12.9818 12.6489 12.3688 12.895 11.771 13.0754ZM5.54788 12.6325C7.3412 13.2722 10.2841 13.2722 12.0774 12.6325C13.5795 12.0912 13.8247 11.3202 12.3226 10.6805C11.6482 10.4016 10.7132 10.1884 9.64032 10.1228L9.48708 10.3852C8.92 11.4678 6.36017 10.3524 6.34481 10.3524C5.70105 10.5 5.17994 10.6969 4.81209 10.9265C3.76979 11.5826 4.42901 12.2223 5.54788 12.6325ZM5.85445 14.3056V13.0754C5.25669 12.8949 4.6589 12.6489 4.29104 12.2717V13.1903C4.29104 13.6987 5.11872 14.0923 5.85445 14.3056ZM7.72443 14.6501V13.387C7.15735 13.3542 6.63616 13.2558 6.16102 13.1573V14.3876C6.62085 14.5188 7.15733 14.6009 7.72443 14.6501ZM9.90099 13.387V14.6501C10.4681 14.6009 11.0046 14.5188 11.4644 14.3877V13.1574C11.0046 13.2558 10.4681 13.3542 9.90099 13.387Z" fill="currentColor"/>
</svg>
