<svg width="16" height="16" viewBox="0 0 16 16" fill="none" xmlns="http://www.w3.org/2000/svg">
<path d="M15 7.12362C14.786 5.58087 14.0717 4.1514 12.9671 3.05541C11.8624 1.95942 10.4288 1.25772 8.88696 1.0584C7.34514 0.85907 5.78067 1.17318 4.43455 1.95233C3.08843 2.73149 2.03534 3.93247 1.4375 5.37027M1 1.86358V5.37027H4.5" stroke="#135CA4" stroke-width="2" stroke-linecap="round" stroke-linejoin="round"/>
<path d="M1 8.875C1.21399 10.4178 1.92831 11.8472 3.03294 12.9432C4.13757 14.0392 5.57121 14.7409 7.11304 14.9402C8.65486 15.1396 10.2193 14.8254 11.5654 14.0463C12.9116 13.2671 13.9647 12.0662 14.5625 10.6283M15 14.135V10.6283H11.5" stroke="#135CA4" stroke-width="2" stroke-linecap="round" stroke-linejoin="round"/>
</svg>