<svg width="128" height="24" viewBox="0 0 128 24" fill="none" xmlns="http://www.w3.org/2000/svg">
    <path
        d="M60.4879 16C59.0352 15.9878 57.8685 15.8194 56.9879 15.4948C56.152 15.1701 55.5839 14.7055 55.2836 14.1009C55.1132 13.7722 55.0279 13.4151 55.0279 13.0296C55.0279 12.6441 55.1071 12.2423 55.2653 11.8243C55.3221 11.6783 55.3789 11.5443 55.4358 11.4226C55.4966 11.3009 55.5534 11.1954 55.6062 11.1061C55.6589 11.0168 55.7036 10.9458 55.7401 10.893C55.7766 10.8362 55.7989 10.8017 55.8071 10.7896L56.7749 11.5078C56.7343 11.5687 56.6958 11.6275 56.6592 11.6843C56.6268 11.7412 56.5943 11.8 56.5618 11.8609C56.5294 11.9177 56.4969 11.9806 56.4645 12.0496C56.4361 12.1145 56.4076 12.1896 56.3792 12.2748C56.1926 12.7901 56.1845 13.2162 56.3549 13.553C56.5537 13.9507 57.0082 14.2571 57.7184 14.4722C58.4285 14.6832 59.3517 14.7907 60.4879 14.7948C60.8085 14.7948 61.1616 14.7826 61.5471 14.7583C61.9326 14.7299 62.3262 14.6812 62.7279 14.6122C63.1297 14.5432 63.5274 14.4499 63.921 14.3322C64.3187 14.2104 64.6879 14.0542 65.0288 13.8635C65.0126 13.6809 64.972 13.4901 64.9071 13.2913C64.8462 13.0884 64.7732 12.8896 64.6879 12.6948C64.6068 12.5 64.5195 12.3154 64.4262 12.1409C64.3329 11.9623 64.2456 11.8061 64.1645 11.6722C64.0874 11.5342 64.0204 11.4246 63.9636 11.3435C63.9108 11.2583 63.8824 11.2136 63.8784 11.2096L64.8888 10.5522C64.8969 10.5684 64.9476 10.6536 65.041 10.8078C65.1384 10.958 65.25 11.1548 65.3758 11.3983C65.5016 11.6377 65.6274 11.9096 65.7532 12.2139C65.883 12.5142 65.9845 12.8206 66.0575 13.133C66.1062 13.34 66.1387 13.5246 66.1549 13.687C66.1711 13.8493 66.1589 13.9994 66.1184 14.1374C66.0778 14.2713 66.0047 14.3991 65.8992 14.5209C65.7978 14.6386 65.6517 14.7583 65.461 14.88C65.2784 14.9936 65.0653 15.1012 64.8218 15.2026C64.5784 15.3041 64.3166 15.3974 64.0366 15.4826C63.7566 15.5638 63.4624 15.6388 63.154 15.7078C62.8497 15.7728 62.5433 15.8275 62.2349 15.8722C61.9265 15.9168 61.6221 15.9513 61.3218 15.9757C61.0256 15.9959 60.7476 16.0041 60.4879 16ZM60.3358 10.0165L59.3497 11.0026L58.3514 10.0104L59.3375 9.01826L60.3358 10.0165ZM62.8314 10.0226L61.8453 11.0148L60.8471 10.0165L61.8332 9.03043L62.8314 10.0226ZM70.4858 16C70.0394 16 69.6579 15.9472 69.3414 15.8417C69.0289 15.7362 68.7632 15.5739 68.544 15.3548C68.4101 15.2209 68.3066 15.0768 68.2336 14.9226C68.1646 14.7684 68.1118 14.6162 68.0753 14.4661C68.0429 14.3159 68.0246 14.1739 68.0205 14.04C68.0165 13.902 68.0145 13.7843 68.0145 13.687C68.0145 13.6545 68.0145 13.5591 68.0145 13.4009C68.0185 13.2386 68.0226 13.0316 68.0266 12.78C68.0307 12.5284 68.0327 12.2423 68.0327 11.9217C68.0327 11.5971 68.0307 11.2562 68.0266 10.8991C68.0266 10.5501 68.0226 10.187 68.0145 9.80957C68.0063 9.43217 67.9921 9.06696 67.9718 8.71391C67.9556 8.36087 67.9333 8.03623 67.9049 7.74C67.8805 7.43971 67.8501 7.1942 67.8136 7.00348L69.0066 6.78435C69.0432 6.9913 69.0736 7.24493 69.0979 7.54522C69.1263 7.84551 69.1487 8.17217 69.1649 8.52522C69.1852 8.87826 69.1994 9.24754 69.2075 9.63304C69.2197 10.0145 69.2258 10.3878 69.2258 10.753V13.6991C69.2217 13.8817 69.2278 14.04 69.244 14.1739C69.2603 14.3078 69.315 14.4194 69.4084 14.5087C69.5017 14.602 69.6397 14.6751 69.8223 14.7278C70.0089 14.7806 70.2301 14.807 70.4858 14.807H70.6075V16H70.4858ZM78.0605 18.1L77.0744 19.0861L76.0761 18.0939L77.0622 17.1017L78.0605 18.1ZM80.3735 18.1061L79.3874 19.0983L78.3892 18.1L79.3752 17.1139L80.3735 18.1061ZM72.3813 18.9339L71.3952 19.92L70.397 18.9278L71.3831 17.9357L72.3813 18.9339ZM74.6335 18.94L73.6474 19.9322L72.6492 18.9339L73.6352 17.9478L74.6335 18.94ZM76.3987 14.807C76.5407 14.811 76.6949 14.813 76.8613 14.813C77.0277 14.809 77.1961 14.7988 77.3665 14.7826C77.537 14.7664 77.7034 14.7441 77.8657 14.7157C78.032 14.6832 78.1842 14.6406 78.3222 14.5878C78.4602 14.531 78.5819 14.462 78.6874 14.3809C78.7929 14.2997 78.872 14.2023 78.9248 14.0887C79.006 13.9142 79.0283 13.6667 78.9918 13.3461C78.9593 13.0214 78.8781 12.6441 78.7483 12.2139C78.7036 12.0841 78.6509 11.9441 78.59 11.7939C78.5332 11.6397 78.4764 11.4977 78.4196 11.3678C78.3547 11.2136 78.2877 11.0614 78.2187 10.9113L79.3022 10.3757C79.3022 10.3797 79.3205 10.4223 79.357 10.5035C79.3976 10.5806 79.4463 10.6861 79.5031 10.82C79.5599 10.9539 79.6228 11.1101 79.6918 11.2887C79.7607 11.4632 79.8257 11.6499 79.8865 11.8487C80.2639 13.0133 80.3106 13.9223 80.0265 14.5757C79.7384 15.229 79.2271 15.6591 78.4926 15.8661C78.3831 15.8986 78.2431 15.9249 78.0726 15.9452C77.9022 15.9614 77.7277 15.9736 77.5492 15.9817C77.3706 15.9899 77.2002 15.9959 77.0378 16C76.8755 16 76.7497 16 76.6605 16H75.6805C75.2706 16 74.9318 15.927 74.6639 15.7809C74.3961 15.6307 74.177 15.4441 74.0065 15.2209C73.8605 15.3629 73.6718 15.4846 73.4405 15.5861C73.2092 15.6835 72.9535 15.7626 72.6735 15.8235C72.3976 15.8843 72.1074 15.929 71.8031 15.9574C71.4987 15.9858 71.2005 16 70.9083 16H70.3665V14.8009H70.9083C71.2492 14.8009 71.5758 14.7806 71.8883 14.74C72.2007 14.6994 72.4747 14.6243 72.71 14.5148C72.9494 14.4052 73.1381 14.2571 73.2761 14.0704C73.4141 13.8797 73.477 13.6362 73.4648 13.34C73.4567 13.1128 73.4364 12.8774 73.4039 12.6339C73.3755 12.3904 73.3167 12.1125 73.2274 11.8L74.3657 11.4774C74.4022 11.6194 74.4367 11.7696 74.4692 11.9278C74.5016 12.082 74.53 12.2403 74.5544 12.4026C74.5787 12.5649 74.599 12.7293 74.6152 12.8957C74.6355 13.058 74.6497 13.2183 74.6578 13.3765C74.666 13.5267 74.6842 13.6849 74.7126 13.8513C74.741 14.0177 74.7918 14.1719 74.8648 14.3139C74.9378 14.4559 75.0373 14.5736 75.1631 14.667C75.2929 14.7603 75.4613 14.807 75.6683 14.807H76.3987ZM85.1754 15.58C85.1754 16.1116 85.0618 16.6188 84.8346 17.1017C84.6073 17.5846 84.305 18.033 83.9276 18.447C83.5543 18.8649 83.1262 19.2464 82.6433 19.5913C82.1604 19.9362 81.6633 20.2365 81.152 20.4922L80.6285 19.4148C80.9207 19.2646 81.2108 19.0983 81.4989 18.9157C81.787 18.7371 82.0589 18.5443 82.3146 18.3374C82.5702 18.1304 82.8056 17.9113 83.0207 17.68C83.2357 17.4528 83.4163 17.2133 83.5624 16.9617C83.7125 16.7101 83.8241 16.4484 83.8972 16.1765C83.9499 15.9817 83.9763 15.7829 83.9763 15.58C83.9763 15.4988 83.9723 15.4238 83.9641 15.3548C83.9357 15.1235 83.8911 14.8759 83.8302 14.6122C83.7734 14.3443 83.7105 14.0826 83.6415 13.827C83.5725 13.5713 83.5036 13.3319 83.4346 13.1087C83.3656 12.8814 83.3067 12.6928 83.2581 12.5426L84.4024 12.1896C84.5566 12.6603 84.7067 13.062 84.8528 13.3948C84.9989 13.7235 85.1491 13.9933 85.3033 14.2043C85.4575 14.4113 85.6178 14.5635 85.7841 14.6609C85.9546 14.7583 86.1412 14.807 86.3441 14.807H86.4415V16H86.3381C86.2812 16 86.2082 15.998 86.1189 15.9939C86.0296 15.9899 85.9302 15.9736 85.8207 15.9452C85.7152 15.9168 85.6056 15.8722 85.492 15.8113C85.3824 15.7504 85.2769 15.6652 85.1754 15.5557V15.58ZM84.7676 9.54783L83.7754 10.54L82.7772 9.54174L83.7694 8.54956L84.7676 9.54783ZM86.2122 14.807H86.334H87.5331C88.0728 14.807 88.6125 14.7562 89.1522 14.6548C89.692 14.5493 90.2235 14.4113 90.747 14.2409C91.2705 14.0704 91.7818 13.8757 92.2809 13.6565C92.7801 13.4374 93.2609 13.2122 93.7235 12.9809C93.4435 12.8835 93.1757 12.778 92.9201 12.6643C92.6644 12.5507 92.4128 12.4351 92.1653 12.3174C91.9746 12.2281 91.7879 12.1429 91.6053 12.0617C91.4267 11.9765 91.2522 11.9014 91.0818 11.8365C90.9154 11.7716 90.7572 11.7209 90.607 11.6843C90.4569 11.6438 90.3189 11.6235 90.1931 11.6235C90.0267 11.6235 89.8685 11.66 89.7183 11.733C89.5682 11.8061 89.4282 11.8994 89.2983 12.013C89.1725 12.1226 89.0589 12.2423 88.9575 12.3722C88.856 12.498 88.7688 12.6177 88.6957 12.7313C88.6227 12.8409 88.5659 12.9342 88.5253 13.0113C88.4888 13.0843 88.4705 13.1229 88.4705 13.127L87.3749 12.6339C87.3789 12.6258 87.3951 12.5913 87.4235 12.5304C87.456 12.4655 87.5007 12.3843 87.5575 12.287C87.6183 12.1896 87.6893 12.078 87.7705 11.9522C87.8557 11.8264 87.9531 11.6986 88.0627 11.5687C88.3792 11.1872 88.714 10.9012 89.067 10.7104C89.4241 10.5197 89.7995 10.4243 90.1931 10.4243C90.3879 10.4243 90.5847 10.4467 90.7835 10.4913C90.9864 10.5359 91.1914 10.5968 91.3983 10.6739C91.6053 10.747 91.8163 10.8322 92.0314 10.9296C92.2464 11.027 92.4635 11.1264 92.6827 11.2278C92.9221 11.3414 93.1635 11.453 93.407 11.5626C93.6546 11.6722 93.9021 11.7716 94.1496 11.8609C94.3972 11.9461 94.6447 12.0151 94.8922 12.0678C95.1398 12.1206 95.3893 12.147 95.6409 12.147L95.8722 13.3035C95.5882 13.4212 95.3062 13.549 95.0262 13.687C94.7462 13.8209 94.454 13.9629 94.1496 14.113C93.7033 14.3362 93.2224 14.5594 92.707 14.7826C92.1957 15.0058 91.658 15.2087 91.094 15.3913C90.534 15.5699 89.9537 15.7159 89.3531 15.8296C88.7525 15.9432 88.1459 16 87.5331 16H86.334H86.2122V14.807ZM92.2262 18.167L91.234 19.1591L90.2357 18.1609L91.2279 17.1687L92.2262 18.167Z"
        fill="currentColor" />
    <path fill-rule="evenodd" clip-rule="evenodd"
        d="M116 22C121.523 22 126 17.5228 126 12C126 6.47715 121.523 2 116 2C110.477 2 106 6.47715 106 12C106 17.5228 110.477 22 116 22ZM116.75 8C116.75 7.58579 116.414 7.25 116 7.25C115.586 7.25 115.25 7.58579 115.25 8V9C115.25 9.41421 115.586 9.75 116 9.75C116.414 9.75 116.75 9.41421 116.75 9V8ZM116.75 11.5C116.75 11.0858 116.414 10.75 116 10.75C115.586 10.75 115.25 11.0858 115.25 11.5V16C115.25 16.4142 115.586 16.75 116 16.75C116.414 16.75 116.75 16.4142 116.75 16V11.5Z"
        fill="#808080" />
</svg>
    