<svg width="20" height="20" viewBox="0 0 20 20" fill="none" xmlns="http://www.w3.org/2000/svg">
<path fill-rule="evenodd" clip-rule="evenodd" d="M13.798 6.2516C14.0289 5.99504 14.0081 5.59985 13.7515 5.36894C13.495 5.13803 13.0998 5.15883 12.8689 5.4154L7.8564 10.9848L7.05721 10.3455C6.78767 10.1298 6.39436 10.1735 6.17873 10.4431C5.9631 10.7126 6.0068 11.1059 6.27634 11.3215L7.01879 11.9155L6.42088 12.5798C6.05174 12.99 5.42678 13.0411 4.99589 12.6964L2.05721 10.3455C1.78767 10.1298 1.39436 10.1735 1.17873 10.4431C0.963097 10.7126 1.0068 11.1059 1.27634 11.3215L4.21502 13.6725C5.16299 14.4309 6.53788 14.3184 7.35 13.416L7.99652 12.6977L9.21502 13.6725C10.163 14.4309 11.5379 14.3184 12.35 13.416L18.798 6.2516C19.0289 5.99504 19.0081 5.59985 18.7515 5.36894C18.495 5.13803 18.0998 5.15883 17.8689 5.4154L11.4209 12.5798C11.0517 12.99 10.4268 13.0411 9.99589 12.6964L8.83414 11.767L13.798 6.2516Z" fill="currentcolor"/>
</svg>
