<svg width="44" height="24" viewBox="0 0 44 24" fill="none" xmlns="http://www.w3.org/2000/svg">
    <path fill-rule="evenodd" clip-rule="evenodd" d="M4.27624 10.3543C4.44875 10.1387 4.76339 10.1037 4.97902 10.2762L8.00001 12.693L11.021 10.2762C11.2366 10.1037 11.5513 10.1387 11.7238 10.3543C11.8963 10.57 11.8613 10.8846 11.6457 11.0571L8.31236 13.7238C8.12975 13.8699 7.87027 13.8699 7.68766 13.7238L4.35433 11.0571C4.1387 10.8846 4.10374 10.57 4.27624 10.3543Z" fill="#8B8B8B"/>
    <path fill-rule="evenodd" clip-rule="evenodd" d="M32 11C34.2091 11 36 9.20914 36 7C36 4.79086 34.2091 3 32 3C29.7909 3 28 4.79086 28 7C28 9.20914 29.7909 11 32 11ZM32 21C35.866 21 39 19.2091 39 17C39 14.7909 35.866 13 32 13C28.134 13 25 14.7909 25 17C25 19.2091 28.134 21 32 21Z" fill="#2D8686"/>
    </svg>
     