<svg width="14" height="14" viewBox="0 0 14 14" fill="none" xmlns="http://www.w3.org/2000/svg">
<path d="M6.9928 0.333058C6.86269 0.334962 6.73844 0.387506 6.64645 0.479538L4.97978 2.14621C4.9318 2.19228 4.89348 2.24747 4.86709 2.30853C4.8407 2.36959 4.82676 2.43531 4.82608 2.50183C4.82541 2.56835 4.83801 2.63434 4.86316 2.69592C4.8883 2.75751 4.92548 2.81346 4.97252 2.8605C5.01956 2.90754 5.07551 2.94472 5.1371 2.96987C5.19868 2.99501 5.26468 3.00761 5.3312 3.00694C5.39772 3.00626 5.46343 2.99231 5.52449 2.96593C5.58556 2.93954 5.64074 2.90123 5.68681 2.85324L6.99996 1.54009L8.31312 2.85324C8.3592 2.90123 8.4144 2.93954 8.47544 2.96593C8.53648 2.99231 8.60224 3.00626 8.66872 3.00694C8.73528 3.00761 8.8012 2.99501 8.8628 2.96987C8.9244 2.94472 8.9804 2.90754 9.02744 2.8605C9.07448 2.81346 9.1116 2.75751 9.1368 2.69592C9.16192 2.63434 9.17448 2.56835 9.17384 2.50183C9.1732 2.43531 9.1592 2.36959 9.1328 2.30853C9.1064 2.24747 9.06816 2.19228 9.02016 2.14621L7.35344 0.479538C7.30624 0.43225 7.24992 0.394922 7.188 0.369762C7.126 0.344602 7.05968 0.332114 6.9928 0.333058ZM0.8333 4.33306C0.767044 4.33212 0.70126 4.34436 0.639772 4.36907C0.578292 4.39378 0.522332 4.43046 0.475148 4.47698C0.427964 4.5235 0.390492 4.57894 0.364916 4.64007C0.339348 4.70119 0.326172 4.76679 0.326172 4.83306C0.326172 4.89932 0.339348 4.96492 0.364916 5.02605C0.390492 5.08718 0.427964 5.14262 0.475148 5.18914C0.522332 5.23566 0.578292 5.27234 0.639772 5.29705C0.70126 5.32175 0.767044 5.33399 0.8333 5.33306H13.1666C13.2329 5.33399 13.2986 5.32175 13.3602 5.29705C13.4216 5.27234 13.4776 5.23566 13.5248 5.18914C13.572 5.14262 13.6094 5.08718 13.635 5.02605C13.6606 4.96492 13.6738 4.89932 13.6738 4.83306C13.6738 4.76679 13.6606 4.70119 13.635 4.64007C13.6094 4.57894 13.572 4.5235 13.5248 4.47698C13.4776 4.43046 13.4216 4.39378 13.3602 4.36907C13.2986 4.34436 13.2329 4.33212 13.1666 4.33306H0.8333ZM0.8333 6.66639C0.767044 6.66545 0.70126 6.67769 0.639772 6.7024C0.578292 6.72711 0.522332 6.76379 0.475148 6.81031C0.427964 6.85683 0.390492 6.91227 0.364916 6.97339C0.339348 7.03451 0.326172 7.10011 0.326172 7.16643C0.326172 7.23267 0.339348 7.29827 0.364916 7.35939C0.390492 7.42051 0.427964 7.47595 0.475148 7.52251C0.522332 7.56899 0.578292 7.60571 0.639772 7.63035C0.70126 7.65507 0.767044 7.66731 0.8333 7.66643H13.1666C13.2329 7.66731 13.2986 7.65507 13.3602 7.63035C13.4216 7.60571 13.4776 7.56899 13.5248 7.52251C13.572 7.47595 13.6094 7.42051 13.635 7.35939C13.6606 7.29827 13.6738 7.23267 13.6738 7.16643C13.6738 7.10011 13.6606 7.03451 13.635 6.97339C13.6094 6.91227 13.572 6.85683 13.5248 6.81031C13.4776 6.76379 13.4216 6.72711 13.3602 6.7024C13.2986 6.67769 13.2329 6.66545 13.1666 6.66639H0.8333ZM0.8333 8.99971C0.767044 8.99883 0.70126 9.01107 0.639772 9.03571C0.578292 9.06043 0.522332 9.09715 0.475148 9.14363C0.427964 9.19019 0.390492 9.24563 0.364916 9.30675C0.339348 9.36787 0.326172 9.43347 0.326172 9.49971C0.326172 9.56603 0.339348 9.63163 0.364916 9.69275C0.390492 9.75387 0.427964 9.80931 0.475148 9.85579C0.522332 9.90235 0.578292 9.93899 0.639772 9.96371C0.70126 9.98843 0.767044 10.0007 0.8333 9.99971H13.1666C13.2329 10.0007 13.2986 9.98843 13.3602 9.96371C13.4216 9.93899 13.4776 9.90235 13.5248 9.85579C13.572 9.80931 13.6094 9.75387 13.635 9.69275C13.6606 9.63163 13.6738 9.56603 13.6738 9.49971C13.6738 9.43347 13.6606 9.36787 13.635 9.30675C13.6094 9.24563 13.572 9.19019 13.5248 9.14363C13.4776 9.09715 13.4216 9.06043 13.3602 9.03571C13.2986 9.01107 13.2329 8.99883 13.1666 8.99971H0.8333ZM8.66208 11.3259C8.53 11.329 8.40456 11.3843 8.31312 11.4795L6.99996 12.7927L5.68681 11.4795C5.6402 11.4315 5.58444 11.3934 5.52283 11.3673C5.46121 11.3413 5.39499 11.3279 5.32809 11.3279C5.22858 11.3279 5.13135 11.3575 5.04882 11.4131C4.96629 11.4687 4.90223 11.5477 4.86483 11.6399C4.82743 11.7322 4.81839 11.8335 4.83887 11.9308C4.85934 12.0282 4.9084 12.1172 4.97978 12.1866L6.64645 13.8532C6.74022 13.947 6.86738 13.9996 6.99996 13.9996C7.13256 13.9996 7.25968 13.947 7.35344 13.8532L9.02016 12.1866C9.09288 12.1168 9.1428 12.0267 9.16336 11.928C9.184 11.8294 9.17432 11.7267 9.1356 11.6337C9.09688 11.5407 9.03096 11.4615 8.9464 11.4066C8.86192 11.3516 8.7628 11.3235 8.66208 11.3259Z" fill="#939CAD"/>
</svg>
