<svg xmlns="http://www.w3.org/2000/svg" width="24" height="24" viewBox="0 0 24 24" fill="none">
  <path fill-rule="evenodd" clip-rule="evenodd" d="M16.939 3C18.28 3 19.57 3.53 20.519 4.481C21.469 5.43 22 6.71 22 8.05V15.9499C22 18.7399 19.73 20.9999 16.939 20.9999H7.06C4.269 20.9999 2 18.7399 2 15.9499V8.05C2 5.26 4.259 3 7.06 3H16.939ZM18.53 9.53994L18.61 9.46004C18.849 9.16999 18.849 8.74999 18.599 8.45999C18.46 8.311 18.269 8.22 18.07 8.2C17.86 8.18899 17.66 8.25999 17.509 8.39999L13 11.9999C12.42 12.4809 11.589 12.4809 11 11.9999L6.5 8.39999C6.189 8.16999 5.759 8.2 5.5 8.47C5.23 8.74 5.2 9.16999 5.429 9.46994L5.56 9.59994L10.11 13.1499C10.67 13.59 11.349 13.8299 12.06 13.8299C12.769 13.8299 13.46 13.59 14.019 13.1499L18.53 9.53994Z" fill="currentColor"/>
</svg>