<svg width="12" height="14" viewBox="0 0 12 14" fill="none" xmlns="http://www.w3.org/2000/svg">
   <path d="M0.667657 1.43214L7.99979 0.336588C8.04117 0.330377 8.08334 0.333546 8.12345 0.345881C8.16356 0.358215 8.20066 0.379427 8.23225 0.408078C8.26383 0.43673 8.28916 0.472151 8.30652 0.511942C8.32388 0.551733 8.33286 0.594963 8.33286 0.638703V13.3617C8.33285 13.4054 8.32388 13.4486 8.30656 13.4883C8.28923 13.528 8.26396 13.5634 8.23244 13.5921C8.20092 13.6207 8.16389 13.6419 8.12385 13.6543C8.08382 13.6667 8.04171 13.6699 8.00037 13.6638L0.667074 12.5683C0.528025 12.5476 0.400791 12.475 0.308744 12.364C0.216696 12.253 0.166017 12.111 0.166016 11.964V2.03637C0.166017 1.88941 0.216696 1.74738 0.308744 1.63638C0.400791 1.52538 0.528025 1.45286 0.667074 1.43214H0.667657ZM8.91616 1.50721H11.2494C11.4041 1.50721 11.5524 1.57151 11.6618 1.68597C11.7712 1.80043 11.8327 1.95567 11.8327 2.11754V11.8829C11.8327 12.0447 11.7712 12.2 11.6618 12.3144C11.5524 12.4289 11.4041 12.4932 11.2494 12.4932H8.91616V1.50721ZM4.94969 7.00021L6.58294 4.55887H5.18302L4.24973 5.9541L3.31644 4.55887H1.91651L3.54976 7.00021L1.91651 9.44154H3.31644L4.24973 8.04632L5.18302 9.44154H6.58294L4.94969 7.00021Z" fill="currentColor"/>
</svg>
