<svg width="28" height="25" viewBox="0 0 28 25" fill="none" xmlns="http://www.w3.org/2000/svg">
<path fill-rule="evenodd" clip-rule="evenodd" d="M3 6V18C3 20.2091 4.79086 22 7 22H17C19.2091 22 21 20.2091 21 18V11.6569C21 11.3491 20.9645 11.045 20.8959 10.75H17C14.3766 10.75 12.25 8.62335 12.25 6V2.10414C11.955 2.03547 11.6509 2 11.3431 2H7C4.79086 2 3 3.79086 3 6ZM13.75 2.80513V6C13.75 7.79493 15.2051 9.25 17 9.25H20.1949C20.0833 9.10195 19.961 8.96101 19.8284 8.82843L14.1716 3.17157C14.039 3.03899 13.898 2.91667 13.75 2.80513ZM10.5 14.4473L9.1626 12H7.07588L9.1626 15.5L7 19H9.08672L10.5 16.5801L11.937 19H14L11.8327 15.5L13.9431 12H11.8706L10.5 14.4473Z" fill="currentColor"/>
<rect x="14" y="12" width="14" height="13" rx="6.5" fill="#F7F7F7"/>
<path d="M17 17.7917L20.5 15L24 17.7917" stroke="#808080" stroke-width="2" stroke-linecap="round" stroke-linejoin="round"/>
<path d="M20.5 15V23.375" stroke="#808080" stroke-width="2" stroke-linecap="round" stroke-linejoin="round"/>
</svg>
