<svg xmlns="http://www.w3.org/2000/svg" width="24" height="24" viewBox="0 0 24 24" fill="none">
  <path d="M2.89332 2.87722L15.6078 1.08222C15.6796 1.07204 15.7527 1.07723 15.8222 1.09744C15.8918 1.11765 15.9561 1.1524 16.0109 1.19935C16.0657 1.24629 16.1096 1.30433 16.1397 1.36952C16.1698 1.43472 16.1854 1.50555 16.1854 1.57722V22.4232C16.1854 22.4948 16.1698 22.5655 16.1398 22.6306C16.1097 22.6957 16.0659 22.7537 16.0112 22.8007C15.9566 22.8476 15.8924 22.8824 15.8229 22.9026C15.7535 22.9229 15.6805 22.9282 15.6088 22.9182L2.89231 21.1232C2.65119 21.0893 2.43056 20.9704 2.27094 20.7886C2.11132 20.6067 2.02344 20.374 2.02344 20.1332V3.86722C2.02344 3.62643 2.11132 3.39373 2.27094 3.21186C2.43056 3.02999 2.65119 2.91117 2.89231 2.87722H2.89332ZM17.1969 3.00022H21.2428C21.5111 3.00022 21.7684 3.10557 21.9581 3.29311C22.1478 3.48064 22.2543 3.735 22.2543 4.00022V20.0002C22.2543 20.2654 22.1478 20.5198 21.9581 20.7073C21.7684 20.8949 21.5111 21.0002 21.2428 21.0002H17.1969V3.00022ZM10.3187 12.0002L13.1509 8.00022H10.7233L9.10491 10.2862L7.48652 8.00022H5.05893L7.89112 12.0002L5.05893 16.0002H7.48652L9.10491 13.7142L10.7233 16.0002H13.1509L10.3187 12.0002Z" fill="#566978"/>
</svg>