<svg width="20" height="20" viewBox="0 0 20 20" fill="none" xmlns="http://www.w3.org/2000/svg">
<path d="M2.50912 0H11.6758C12.3382 0.00197841 12.9729 0.266006 13.4414 0.734419C13.9098 1.20283 14.1738 1.83757 14.1758 2.5V7.5H6.67578C6.01274 7.5 5.37685 7.76339 4.90801 8.23223C4.43917 8.70107 4.17578 9.33696 4.17578 10C4.17578 10.663 4.43917 11.2989 4.90801 11.7678C5.37685 12.2366 6.01274 12.5 6.67578 12.5H14.1758V17.5C14.1738 18.1624 13.9098 18.7972 13.4414 19.2656C12.9729 19.734 12.3382 19.998 11.6758 20H2.50912C1.84668 19.998 1.21195 19.734 0.743533 19.2656C0.275121 18.7972 0.0110931 18.1624 0.00911522 17.5V2.5C0.0110931 1.83757 0.275121 1.20283 0.743533 0.734419C1.21195 0.266006 1.84668 0.00197841 2.50912 0Z" fill="#F0F6FF"/>
<path d="M17.1657 10.8341H6.67402C6.45301 10.8341 6.24104 10.7463 6.08476 10.5901C5.92848 10.4338 5.84069 10.2218 5.84069 10.0008C5.84069 9.77979 5.92848 9.56783 6.08476 9.41155C6.24104 9.25527 6.45301 9.16747 6.67402 9.16747H17.1657L16.0824 8.09247C15.9254 7.93555 15.8373 7.72272 15.8373 7.50081C15.8373 7.27889 15.9254 7.06606 16.0824 6.90914C16.2393 6.75222 16.4521 6.66406 16.674 6.66406C16.8959 6.66406 17.1088 6.75222 17.2657 6.90914L19.7657 9.40914C19.9162 9.56938 20 9.78096 20 10.0008C20 10.2207 19.9162 10.4322 19.7657 10.5925L17.2657 13.0925C17.1061 13.2443 16.8943 13.329 16.674 13.329C16.4538 13.329 16.2419 13.2443 16.0824 13.0925C15.9262 12.9351 15.8386 12.7225 15.8386 12.5008C15.8386 12.2792 15.9262 12.0665 16.0824 11.9091L17.1657 10.8341Z" fill="#F0F6FF"/>
</svg>
