<svg width="24" height="24" viewBox="0 0 24 24" fill="none" xmlns="http://www.w3.org/2000/svg">
<path fill-rule="evenodd" clip-rule="evenodd" d="M18 9C17.5858 9 17.25 8.66421 17.25 8.25V6.75L15.75 6.75C15.3358 6.75 15 6.41421 15 6C15 5.58579 15.3358 5.25 15.75 5.25L17.25 5.25V3.75C17.25 3.33579 17.5858 3 18 3C18.4142 3 18.75 3.33579 18.75 3.75V5.25H20.25C20.6642 5.25 21 5.58579 21 6C21 6.41421 20.6642 6.75 20.25 6.75H18.75V8.25C18.75 8.66421 18.4142 9 18 9ZM12 5C12.7068 5 13.3979 5.09592 14.0673 5.2653C14.0231 5.50346 14 5.74903 14 6C14 8.20914 15.7909 10 18 10C18.922 10 19.7711 9.68806 20.4476 9.16397C20.6908 9.39933 20.9188 9.63053 21.1303 9.8531C22.2899 11.0732 22.2899 12.9268 21.1303 14.1469C19.1745 16.2047 15.8155 19 12 19C8.18448 19 4.82549 16.2047 2.86971 14.1469C1.7101 12.9268 1.7101 11.0732 2.86971 9.8531C4.82549 7.79533 8.18448 5 12 5ZM12 15C13.6569 15 15 13.6569 15 12C15 10.3431 13.6569 9 12 9C10.3431 9 9 10.3431 9 12C9 13.6569 10.3431 15 12 15Z" fill="currentcolor"/>
</svg>
