<svg width="2.4rem" height="2.4rem" viewBox="0 0 24 24" fill="none" xmlns="http://www.w3.org/2000/svg">
	<path d="M2.91243 10.8282L3.82104 11.2459L3.82104 11.2459L2.91243 10.8282ZM21.0943 13.1718L20.1857 12.7541L21.0943 13.1718ZM2.91243 13.1718L2.00382 13.5894H2.00382L2.91243 13.1718ZM21.0943 10.8282L20.1857 11.2459V11.2459L21.0943 10.8282ZM17.9707 5.75789C17.507 5.45792 16.8879 5.59066 16.5879 6.05438C16.288 6.5181 16.4207 7.13719 16.8844 7.43716L17.9707 5.75789ZM7.16453 16.59C6.69914 16.2926 6.0808 16.4288 5.78342 16.8942C5.48604 17.3596 5.62223 17.9779 6.08762 18.2753L7.16453 16.59ZM3.20386 15.6017C3.5356 16.0432 4.16248 16.1322 4.60403 15.8005C5.04558 15.4687 5.13459 14.8418 4.80284 14.4003L3.20386 15.6017ZM13.8044 6.18005C14.3457 6.28992 14.8735 5.94022 14.9834 5.39897C15.0932 4.85772 14.7435 4.32989 14.2023 4.22002L13.8044 6.18005ZM20.7104 4.70711C21.101 4.31658 21.101 3.68342 20.7104 3.29289C20.3199 2.90237 19.6868 2.90237 19.2962 3.29289L20.7104 4.70711ZM3.29623 19.2929C2.90571 19.6834 2.90571 20.3166 3.29623 20.7071C3.68676 21.0976 4.31992 21.0976 4.71045 20.7071L3.29623 19.2929ZM12.0033 4C7.56461 4 3.742 6.62905 2.00382 10.4106L3.82104 11.2459C5.24506 8.14781 8.37443 6 12.0033 6V4ZM12.0034 20C16.4421 20 20.2647 17.371 22.0029 13.5894L20.1857 12.7541C18.7616 15.8522 15.6323 18 12.0034 18V20ZM2.00382 10.4106C1.54039 11.4188 1.54039 12.5812 2.00382 13.5894L3.82104 12.7541C3.60132 12.2761 3.60132 11.7239 3.82104 11.2459L2.00382 10.4106ZM20.1857 11.2459C20.4054 11.7239 20.4054 12.2761 20.1857 12.7541L22.0029 13.5894C22.4663 12.5812 22.4663 11.4188 22.0029 10.4106L20.1857 11.2459ZM22.0029 10.4106C21.1255 8.50182 19.7187 6.88861 17.9707 5.75789L16.8844 7.43716C18.3162 8.36336 19.4682 9.68497 20.1857 11.2459L22.0029 10.4106ZM6.08762 18.2753C7.7964 19.3672 9.82751 20 12.0034 20V18C10.2204 18 8.56131 17.4826 7.16453 16.59L6.08762 18.2753ZM2.00382 13.5894C2.33279 14.3051 2.73615 14.9791 3.20386 15.6017L4.80284 14.4003C4.41986 13.8905 4.08992 13.3391 3.82104 12.7541L2.00382 13.5894ZM14.2023 4.22002C13.491 4.07563 12.7555 4 12.0033 4V6C12.6211 6 13.2233 6.06209 13.8044 6.18005L14.2023 4.22002ZM9.17492 14.8284C10.737 16.3905 13.2697 16.3905 14.8318 14.8284L13.4176 13.4142C12.6365 14.1953 11.3702 14.1953 10.5891 13.4142L9.17492 14.8284ZM14.8318 14.8284C16.3939 13.2663 16.3939 10.7337 14.8318 9.17157L13.4176 10.5858C14.1986 11.3668 14.1986 12.6332 13.4176 13.4142L14.8318 14.8284ZM19.2962 3.29289L3.29623 19.2929L4.71045 20.7071L20.7104 4.70711L19.2962 3.29289Z" fill="currentColor" />
</svg>
