<svg width="24" height="24" viewBox="0 0 24 24" fill="none" xmlns="http://www.w3.org/2000/svg">
    <path
        d="M15.0791 7.06946L17.3541 9.68441C17.4908 9.84152 17.7124 9.84152 17.849 9.68443L21.8741 5.05795C22.0107 4.90085 22.0107 4.64612 21.8741 4.48902L21.3792 3.92007C21.2425 3.76297 21.0208 3.76297 20.8842 3.92007L17.6016 7.69311L16.069 5.93157C15.9324 5.77446 15.7107 5.77446 15.574 5.93157L15.0791 6.50052C14.9424 6.65763 14.9424 6.91236 15.0791 7.06946Z"
        fill="currentColor" />
    <path
        d="M19.0299 10.9611C19.3715 11.3608 19.6823 11.7916 19.9576 12.2487C19.2475 13.4313 18.3009 14.435 17.1847 15.1837C15.7822 16.125 14.1625 16.6238 12.5012 16.6238C10.8399 16.6238 9.22014 16.1262 7.81651 15.1837C6.70026 14.4337 5.75501 13.43 5.04369 12.2487C5.75382 11.0662 6.70026 10.0625 7.81651 9.31374C7.88895 9.26499 7.96257 9.21749 8.0362 9.17124C7.85095 9.70498 7.75001 10.2812 7.75001 10.8825C7.75001 13.6438 9.87683 15.8825 12.5 15.8825C15.1233 15.8825 17.25 13.6438 17.25 10.8825V10.8425C15.2217 10.2925 13.7197 8.36874 13.6887 6.07125C13.2981 6.025 12.9026 6 12.5 6C8.35683 6 4.76463 8.53999 3 12.25C4.76463 15.96 8.35683 18.5 12.5 18.5C16.6432 18.5 20.2354 15.96 22 12.25C21.6723 11.5625 21.2827 10.9137 20.8374 10.315C20.295 10.6498 19.6827 10.876 19.0299 10.9611Z"
        fill="currentColor" />
</svg>
    