<svg width="20" height="20" viewBox="0 0 20 20" fill="none" xmlns="http://www.w3.org/2000/svg">
    <mask id="path-1-inside-1_788_57849" fill="currentColor">
        <path
            d="M10.0004 12.8929C8.40515 12.8929 7.1072 11.595 7.1072 9.99979C7.1072 8.40458 8.40515 7.10666 10.0004 7.10666C11.5957 7.10666 12.8936 8.40458 12.8936 9.99979C12.8936 11.595 11.5957 12.8929 10.0004 12.8929ZM10.0004 8.38875C9.11197 8.38875 8.38929 9.11158 8.38929 9.99983C8.38929 10.8882 9.11213 11.6109 10.0004 11.6109C10.8888 11.6109 11.6115 10.8881 11.6115 9.99983C11.6115 9.11142 10.8888 8.38875 10.0004 8.38875Z" />
        <path
            d="M9.99927 15.6461C6.88613 15.6461 4.3533 13.1134 4.3533 10.0002C4.3533 6.887 6.88597 4.35438 9.99927 4.35438C13.1126 4.35438 15.6452 6.887 15.6452 10.0002C15.6452 13.1134 13.1126 15.6461 9.99927 15.6461ZM9.99927 5.63671C7.59311 5.63671 5.63566 7.59427 5.63566 10.0002C5.63566 12.4062 7.59326 14.3637 9.99927 14.3637C12.4053 14.3637 14.3629 12.4062 14.3629 10.0002C14.3629 7.59427 12.4053 5.63671 9.99927 5.63671ZM9.99927 12.8935C8.40402 12.8935 7.10607 11.5955 7.10607 10.0003C7.10607 8.40512 8.40402 7.10721 9.99927 7.10721C11.5945 7.10721 12.8925 8.40512 12.8925 10.0003C12.8925 11.5955 11.5945 12.8935 9.99927 12.8935ZM9.99927 8.3893C9.11084 8.3893 8.38815 9.11212 8.38815 10.0004C8.38815 10.8888 9.11099 11.6114 9.99927 11.6114C10.8877 11.6114 11.6104 10.8886 11.6104 10.0004C11.6104 9.11197 10.8877 8.3893 9.99927 8.3893Z" />
        <path
            d="M10.1528 15.6437L10.1302 14.3618C12.586 14.3184 14.8173 13.0379 16.2568 11.9714C17.2795 11.2136 18.0607 10.4517 18.4917 10.0001C18.0607 9.54849 17.2795 8.7866 16.2568 8.02885C14.8173 6.96231 12.5859 5.68182 10.1302 5.63845L10.1528 4.35655C12.3741 4.39578 14.7579 5.31623 17.0463 7.0183C18.7536 8.28813 19.8061 9.53611 19.8501 9.58862C20.0496 9.82672 20.0496 10.1736 19.8501 10.4117C19.8061 10.4642 18.7537 11.7122 17.0463 12.982C14.758 14.6839 12.3741 15.6043 10.1528 15.6437Z" />
        <path
            d="M9.84692 15.6438C7.62558 15.6045 5.24185 14.6841 2.95337 12.982C1.2461 11.7124 0.19357 10.4643 0.149613 10.4117C-0.0498711 10.1736 -0.0498711 9.82668 0.149613 9.58862C0.19357 9.53612 1.24606 8.28813 2.95337 7.0183C5.24185 5.31627 7.62566 4.39594 9.84692 4.35655L9.86951 5.63845C7.41373 5.6818 5.18238 6.96231 3.74295 8.02885C2.72019 8.78676 1.93906 9.54853 1.50805 10.0003C1.93906 10.4519 2.72019 11.2138 3.74295 11.9716C5.18238 13.0381 7.41377 14.3186 9.86951 14.3619L9.84692 15.6438Z" />
        <path
            d="M1.5 6.80934H1.3742e-06V0.641509C1.3742e-06 0.287424 0.286942 0.000501812 0.641024 0.000501812H6.809V1.50001H1.5V6.80934Z" />
        <path d="M6.809 20H0.641022C0.286928 20 0 19.7131 0 19.359V13.1912H1.5V18.4998H6.80923L6.809 20Z" />
        <path
            d="M19.3592 20.0003H13.1912V18.4998H18.4998V13.1912H20.0004V19.359C20.0004 19.7131 19.7132 20.0003 19.3592 20.0003Z" />
        <path
            d="M20.0004 6.80907H18.4998V1.5H13.1912V0H19.3592C19.7133 0 20.0002 0.286933 20.0002 0.641007L20.0004 6.80907Z" />
    </mask>
    <path
        d="M10.0004 12.8929C8.40515 12.8929 7.1072 11.595 7.1072 9.99979C7.1072 8.40458 8.40515 7.10666 10.0004 7.10666C11.5957 7.10666 12.8936 8.40458 12.8936 9.99979C12.8936 11.595 11.5957 12.8929 10.0004 12.8929ZM10.0004 8.38875C9.11197 8.38875 8.38929 9.11158 8.38929 9.99983C8.38929 10.8882 9.11213 11.6109 10.0004 11.6109C10.8888 11.6109 11.6115 10.8881 11.6115 9.99983C11.6115 9.11142 10.8888 8.38875 10.0004 8.38875Z"
        fill="currentColor" />
    <path
        d="M9.99927 15.6461C6.88613 15.6461 4.3533 13.1134 4.3533 10.0002C4.3533 6.887 6.88597 4.35438 9.99927 4.35438C13.1126 4.35438 15.6452 6.887 15.6452 10.0002C15.6452 13.1134 13.1126 15.6461 9.99927 15.6461ZM9.99927 5.63671C7.59311 5.63671 5.63566 7.59427 5.63566 10.0002C5.63566 12.4062 7.59326 14.3637 9.99927 14.3637C12.4053 14.3637 14.3629 12.4062 14.3629 10.0002C14.3629 7.59427 12.4053 5.63671 9.99927 5.63671ZM9.99927 12.8935C8.40402 12.8935 7.10607 11.5955 7.10607 10.0003C7.10607 8.40512 8.40402 7.10721 9.99927 7.10721C11.5945 7.10721 12.8925 8.40512 12.8925 10.0003C12.8925 11.5955 11.5945 12.8935 9.99927 12.8935ZM9.99927 8.3893C9.11084 8.3893 8.38815 9.11212 8.38815 10.0004C8.38815 10.8888 9.11099 11.6114 9.99927 11.6114C10.8877 11.6114 11.6104 10.8886 11.6104 10.0004C11.6104 9.11197 10.8877 8.3893 9.99927 8.3893Z"
        fill="currentColor" />
    <path
        d="M10.1528 15.6437L10.1302 14.3618C12.586 14.3184 14.8173 13.0379 16.2568 11.9714C17.2795 11.2136 18.0607 10.4517 18.4917 10.0001C18.0607 9.54849 17.2795 8.7866 16.2568 8.02885C14.8173 6.96231 12.5859 5.68182 10.1302 5.63845L10.1528 4.35655C12.3741 4.39578 14.7579 5.31623 17.0463 7.0183C18.7536 8.28813 19.8061 9.53611 19.8501 9.58862C20.0496 9.82672 20.0496 10.1736 19.8501 10.4117C19.8061 10.4642 18.7537 11.7122 17.0463 12.982C14.758 14.6839 12.3741 15.6043 10.1528 15.6437Z"
        fill="currentColor" />
    <path
        d="M9.84692 15.6438C7.62558 15.6045 5.24185 14.6841 2.95337 12.982C1.2461 11.7124 0.19357 10.4643 0.149613 10.4117C-0.0498711 10.1736 -0.0498711 9.82668 0.149613 9.58862C0.19357 9.53612 1.24606 8.28813 2.95337 7.0183C5.24185 5.31627 7.62566 4.39594 9.84692 4.35655L9.86951 5.63845C7.41373 5.6818 5.18238 6.96231 3.74295 8.02885C2.72019 8.78676 1.93906 9.54853 1.50805 10.0003C1.93906 10.4519 2.72019 11.2138 3.74295 11.9716C5.18238 13.0381 7.41377 14.3186 9.86951 14.3619L9.84692 15.6438Z"
        fill="currentColor" />
    <path
        d="M1.5 6.80934H1.3742e-06V0.641509C1.3742e-06 0.287424 0.286942 0.000501812 0.641024 0.000501812H6.809V1.50001H1.5V6.80934Z"
        fill="currentColor" />
    <path d="M6.809 20H0.641022C0.286928 20 0 19.7131 0 19.359V13.1912H1.5V18.4998H6.80923L6.809 20Z"
        fill="currentColor" />
    <path
        d="M19.3592 20.0003H13.1912V18.4998H18.4998V13.1912H20.0004V19.359C20.0004 19.7131 19.7132 20.0003 19.3592 20.0003Z"
        fill="currentColor" />
    <path
        d="M20.0004 6.80907H18.4998V1.5H13.1912V0H19.3592C19.7133 0 20.0002 0.286933 20.0002 0.641007L20.0004 6.80907Z"
        fill="currentColor" />
    <path
        d="M10.1528 15.6437L8.81967 15.6672L8.84316 17.0005L10.1764 16.9768L10.1528 15.6437ZM10.1302 14.3618L10.1067 13.0287L8.77359 13.0522L8.79708 14.3853L10.1302 14.3618ZM16.2568 11.9714L15.463 10.9001L15.463 10.9001L16.2568 11.9714ZM18.4917 10.0001L19.4562 10.9207L20.3348 10.0002L19.4562 9.07959L18.4917 10.0001ZM16.2568 8.02885L15.463 9.10015L15.463 9.10018L16.2568 8.02885ZM10.1302 5.63845L8.79708 5.61496L8.77359 6.94803L10.1067 6.97158L10.1302 5.63845ZM10.1528 4.35655L10.1763 3.02343L8.84316 2.99989L8.81967 4.33306L10.1528 4.35655ZM17.0463 7.0183L17.8421 5.94845L17.8421 5.94844L17.0463 7.0183ZM19.8501 9.58862L18.8277 10.4445L18.8281 10.4449L19.8501 9.58862ZM19.8501 10.4117L18.8281 9.55534L18.8278 9.55579L19.8501 10.4117ZM17.0463 12.982L17.8421 14.0519L17.8421 14.0519L17.0463 12.982ZM9.84692 15.6438L9.82338 16.9769L11.1566 17.0004L11.18 15.6673L9.84692 15.6438ZM2.95337 12.982L3.74909 11.9122L3.74904 11.9121L2.95337 12.982ZM0.149613 10.4117L1.17296 9.55699L1.17164 9.55541L0.149613 10.4117ZM0.149613 9.58862L1.17158 10.445L1.17196 10.4445L0.149613 9.58862ZM2.95337 7.0183L2.15766 5.94843L2.15765 5.94844L2.95337 7.0183ZM9.84692 4.35655L11.18 4.33306L11.1566 2.99979L9.82329 3.02343L9.84692 4.35655ZM9.86951 5.63845L9.89304 6.97158L11.2261 6.94805L11.2026 5.61496L9.86951 5.63845ZM3.74295 8.02885L2.94918 6.95754L2.94911 6.95759L3.74295 8.02885ZM1.50805 10.0003L0.543359 9.07987L-0.334912 10.0004L0.543478 10.9208L1.50805 10.0003ZM3.74295 11.9716L4.53673 10.9002L4.53669 10.9002L3.74295 11.9716ZM9.86951 14.3619L11.2026 14.3854L11.2261 13.0524L9.89306 13.0288L9.86951 14.3619ZM1.5 6.80934V8.14267H2.83333V6.80934H1.5ZM1.3742e-06 6.80934H-1.33333V8.14267H1.3742e-06V6.80934ZM6.809 0.000501812H8.14233V-1.33283H6.809V0.000501812ZM6.809 1.50001V2.83335H8.14233V1.50001H6.809ZM1.5 1.50001V0.16668H0.166668V1.50001H1.5ZM6.809 20V21.3334H8.14212L8.14233 20.0002L6.809 20ZM0 13.1912V11.8579H-1.33333V13.1912H0ZM1.5 13.1912H2.83333V11.8579H1.5V13.1912ZM1.5 18.4998H0.166667V19.8331H1.5V18.4998ZM6.80923 18.4998L8.14256 18.5L8.14277 17.1664H6.80923V18.4998ZM13.1912 20.0003H11.8579V21.3336H13.1912V20.0003ZM13.1912 18.4998V17.1664H11.8579V18.4998H13.1912ZM18.4998 18.4998V19.8331H19.8331V18.4998H18.4998ZM18.4998 13.1912V11.8579H17.1664V13.1912H18.4998ZM20.0004 13.1912H21.3338V11.8579H20.0004V13.1912ZM20.0004 6.80907V8.1424H21.3338L21.3338 6.80902L20.0004 6.80907ZM18.4998 6.80907H17.1664V8.1424H18.4998V6.80907ZM18.4998 1.5H19.8331V0.166667H18.4998V1.5ZM13.1912 1.5H11.8579V2.83333H13.1912V1.5ZM13.1912 0V-1.33333H11.8579V0H13.1912ZM20.0002 0.641007H18.6669V0.641058L20.0002 0.641007ZM10.0004 11.5596C9.1415 11.5596 8.44054 10.8586 8.44054 9.99979H5.77387C5.77387 12.3314 7.6688 14.2263 10.0004 14.2263V11.5596ZM8.44054 9.99979C8.44054 9.14099 9.1415 8.44 10.0004 8.44V5.77333C7.6688 5.77333 5.77387 7.66817 5.77387 9.99979H8.44054ZM10.0004 8.44C10.8593 8.44 11.5603 9.14099 11.5603 9.99979H14.2269C14.2269 7.66817 12.332 5.77333 10.0004 5.77333V8.44ZM11.5603 9.99979C11.5603 10.8586 10.8593 11.5596 10.0004 11.5596V14.2263C12.332 14.2263 14.2269 12.3314 14.2269 9.99979H11.5603ZM10.0004 7.05542C8.37554 7.05542 7.05595 8.37525 7.05595 9.99983H9.72262C9.72262 9.8479 9.84841 9.72209 10.0004 9.72209V7.05542ZM7.05595 9.99983C7.05595 11.6247 8.37586 12.9442 10.0004 12.9442V10.2776C9.84839 10.2776 9.72262 10.1517 9.72262 9.99983H7.05595ZM10.0004 12.9442C11.6253 12.9442 12.9448 11.6244 12.9448 9.99983H10.2782C10.2782 10.1518 10.1524 10.2776 10.0004 10.2776V12.9442ZM12.9448 9.99983C12.9448 8.37501 11.6252 7.05542 10.0004 7.05542V9.72209C10.1525 9.72209 10.2782 9.84783 10.2782 9.99983H12.9448ZM9.99927 14.3127C7.62246 14.3127 5.68663 12.377 5.68663 10.0002H3.01997C3.01997 13.8499 6.1498 16.9794 9.99927 16.9794V14.3127ZM5.68663 10.0002C5.68663 7.62341 7.62232 5.68772 9.99927 5.68772V3.02105C6.14962 3.02105 3.01997 6.15059 3.01997 10.0002H5.68663ZM9.99927 5.68772C12.3762 5.68772 14.3119 7.62341 14.3119 10.0002H16.9786C16.9786 6.15059 13.8489 3.02105 9.99927 3.02105V5.68772ZM14.3119 10.0002C14.3119 12.377 12.3762 14.3127 9.99927 14.3127V16.9794C13.8489 16.9794 16.9786 13.8498 16.9786 10.0002H14.3119ZM9.99927 4.30338C6.85673 4.30338 4.30232 6.85789 4.30232 10.0002H6.96899C6.96899 8.33065 8.32949 6.97004 9.99927 6.97004V4.30338ZM4.30232 10.0002C4.30232 13.1426 6.85691 15.6971 9.99927 15.6971V13.0304C8.32961 13.0304 6.96899 11.6698 6.96899 10.0002H4.30232ZM9.99927 15.6971C13.1416 15.6971 15.6962 13.1426 15.6962 10.0002H13.0295C13.0295 11.6698 11.6689 13.0304 9.99927 13.0304V15.6971ZM15.6962 10.0002C15.6962 6.85786 13.1416 4.30338 9.99927 4.30338V6.97004C11.6689 6.97004 13.0295 8.33068 13.0295 10.0002H15.6962ZM9.99927 11.5601C9.14037 11.5601 8.4394 10.8591 8.4394 10.0003H5.77274C5.77274 12.332 7.66767 14.2268 9.99927 14.2268V11.5601ZM8.4394 10.0003C8.4394 9.14153 9.14037 8.44054 9.99927 8.44054V5.77387C7.66767 5.77387 5.77274 7.66871 5.77274 10.0003H8.4394ZM9.99927 8.44054C10.8582 8.44054 11.5591 9.14153 11.5591 10.0003H14.2258C14.2258 7.66871 12.3309 5.77387 9.99927 5.77387V8.44054ZM11.5591 10.0003C11.5591 10.8591 10.8582 11.5601 9.99927 11.5601V14.2268C12.3309 14.2268 14.2258 12.332 14.2258 10.0003H11.5591ZM9.99927 7.05597C8.3744 7.05597 7.05482 8.3758 7.05482 10.0004H9.72149C9.72149 9.84845 9.84727 9.72263 9.99927 9.72263V7.05597ZM7.05482 10.0004C7.05482 11.6253 8.37473 12.9448 9.99927 12.9448V10.2781C9.84726 10.2781 9.72149 10.1523 9.72149 10.0004H7.05482ZM9.99927 12.9448C11.6241 12.9448 12.9437 11.625 12.9437 10.0004H10.277C10.277 10.1523 10.1513 10.2781 9.99927 10.2781V12.9448ZM12.9437 10.0004C12.9437 8.37556 11.624 7.05597 9.99927 7.05597V9.72263C10.1513 9.72263 10.277 9.84838 10.277 10.0004H12.9437ZM11.4859 15.6202L11.4633 14.3383L8.79708 14.3853L8.81967 15.6672L11.4859 15.6202ZM10.1537 15.6949C13.0263 15.6442 15.5344 14.1661 17.0505 13.0427L15.463 10.9001C14.1003 11.9098 12.1457 12.9927 10.1067 13.0287L10.1537 15.6949ZM17.0505 13.0427C18.1517 12.2268 18.99 11.4092 19.4562 10.9207L17.5271 9.07955C17.1314 9.49423 16.4074 10.2004 15.463 10.9001L17.0505 13.0427ZM19.4562 9.07959C18.99 8.59102 18.1517 7.77336 17.0505 6.95751L15.463 9.10018C16.4074 9.79984 17.1313 10.506 17.5271 10.9207L19.4562 9.07959ZM17.0505 6.95754C15.5344 5.83415 13.0263 4.35606 10.1538 4.30533L10.1067 6.97158C12.1456 7.00759 14.1003 8.09047 15.463 9.10015L17.0505 6.95754ZM11.4633 5.66194L11.4859 4.38005L8.81967 4.33306L8.79708 5.61496L11.4633 5.66194ZM10.1293 5.68968C12.0022 5.72275 14.1222 6.50514 16.2506 8.08816L17.8421 5.94844C15.3935 4.12732 12.7461 3.06881 10.1763 3.02343L10.1293 5.68968ZM16.2506 8.08816C17.0434 8.67783 17.6859 9.26389 18.1338 9.70742C18.3572 9.92858 18.5306 10.1127 18.6484 10.2419C18.7663 10.3712 18.8279 10.4447 18.8277 10.4445L20.8725 8.73279C20.7917 8.63623 19.6637 7.30333 17.8421 5.94845L16.2506 8.08816ZM18.8281 10.4449C18.6125 10.1876 18.6124 9.81275 18.8281 9.55534L20.8721 11.2681C21.4867 10.5345 21.4867 9.4658 20.8721 8.73233L18.8281 10.4449ZM18.8278 9.55579C18.8279 9.5556 18.7663 9.62918 18.6484 9.75844C18.5306 9.88764 18.3572 10.0717 18.1338 10.2929C17.6859 10.7364 17.0434 11.3225 16.2506 11.9122L17.8421 14.0519C19.6638 12.697 20.7917 11.3641 20.8725 11.2676L18.8278 9.55579ZM16.2506 11.9121C14.1224 13.495 12.0021 14.2774 10.1292 14.3106L10.1764 16.9768C12.746 16.9313 15.3936 15.8729 17.8421 14.0519L16.2506 11.9121ZM9.87046 14.3106C7.99757 14.2776 5.8775 13.4952 3.74909 11.9122L2.15765 14.0519C4.60619 15.873 7.25359 16.9315 9.82338 16.9769L9.87046 14.3106ZM3.74904 11.9121C2.95626 11.3225 2.3138 10.7365 1.86589 10.293C1.41825 9.84978 1.17246 9.55639 1.17296 9.55699L-0.873737 11.2664C-0.791912 11.3644 0.33623 12.6973 2.15771 14.0519L3.74904 11.9121ZM1.17164 9.55541C1.3872 9.81269 1.38728 10.1876 1.17158 10.445L-0.872358 8.73226C-1.48702 9.46579 -1.48695 10.5345 -0.872414 11.268L1.17164 9.55541ZM1.17196 10.4445C1.1718 10.4447 1.23344 10.3711 1.35132 10.2419C1.46915 10.1127 1.64251 9.92858 1.86587 9.70741C2.3138 9.2639 2.95627 8.67783 3.74909 8.08817L2.15765 5.94844C0.335954 7.30334 -0.791993 8.63627 -0.872736 8.73271L1.17196 10.4445ZM3.74908 8.08817C5.87744 6.50522 7.99763 5.72289 9.87056 5.68968L9.82329 3.02343C7.25368 3.06899 4.60625 4.12731 2.15766 5.94843L3.74908 8.08817ZM8.5138 4.38005L8.53639 5.66194L11.2026 5.61496L11.18 4.33306L8.5138 4.38005ZM9.84598 4.30533C6.97341 4.35603 4.46532 5.83416 2.94918 6.95754L4.53673 9.10015C5.89944 8.09046 7.85405 7.00757 9.89304 6.97158L9.84598 4.30533ZM2.94911 6.95759C1.84806 7.77351 1.00978 8.59101 0.543359 9.07987L2.47274 10.9207C2.86833 10.5061 3.59233 9.8 4.5368 9.1001L2.94911 6.95759ZM0.543478 10.9208C1.00974 11.4094 1.84804 12.227 2.94921 13.0429L4.53669 10.9002C3.59234 10.2006 2.86837 9.49443 2.47262 9.07975L0.543478 10.9208ZM2.94918 13.0429C4.46534 14.1662 6.97345 15.6443 9.84597 15.6951L9.89306 13.0288C7.85409 12.9928 5.89943 11.9099 4.53673 10.9002L2.94918 13.0429ZM8.53639 14.3385L8.5138 15.6203L11.18 15.6673L11.2026 14.3854L8.53639 14.3385ZM1.5 5.47601H1.3742e-06V8.14267H1.5V5.47601ZM1.33333 6.80934V0.641509H-1.33333V6.80934H1.33333ZM1.33333 0.641509C1.33333 1.02385 1.02328 1.33384 0.641024 1.33384V-1.33283C-0.449393 -1.33283 -1.33333 -0.449001 -1.33333 0.641509H1.33333ZM0.641024 1.33384H6.809V-1.33283H0.641024V1.33384ZM5.47567 0.000501812V1.50001H8.14233V0.000501812H5.47567ZM6.809 0.16668H1.5V2.83335H6.809V0.16668ZM0.166668 1.50001V6.80934H2.83333V1.50001H0.166668ZM6.809 18.6667H0.641022V21.3334H6.809V18.6667ZM0.641022 18.6667C1.0233 18.6667 1.33333 18.9767 1.33333 19.359H-1.33333C-1.33333 20.4495 -0.449441 21.3334 0.641022 21.3334V18.6667ZM1.33333 19.359V13.1912H-1.33333V19.359H1.33333ZM0 14.5245H1.5V11.8579H0V14.5245ZM0.166667 13.1912V18.4998H2.83333V13.1912H0.166667ZM1.5 19.8331H6.80923V17.1664H1.5V19.8331ZM5.4759 18.4996L5.47566 19.9998L8.14233 20.0002L8.14256 18.5L5.4759 18.4996ZM19.3592 18.6669H13.1912V21.3336H19.3592V18.6669ZM14.5245 20.0003V18.4998H11.8579V20.0003H14.5245ZM13.1912 19.8331H18.4998V17.1664H13.1912V19.8331ZM19.8331 18.4998V13.1912H17.1664V18.4998H19.8331ZM18.4998 14.5245H20.0004V11.8579H18.4998V14.5245ZM18.6671 13.1912V19.359H21.3338V13.1912H18.6671ZM18.6671 19.359C18.6671 18.9767 18.9769 18.6669 19.3592 18.6669V21.3336C20.4496 21.3336 21.3338 20.4495 21.3338 19.359H18.6671ZM20.0004 5.47574H18.4998V8.1424H20.0004V5.47574ZM19.8331 6.80907V1.5H17.1664V6.80907H19.8331ZM18.4998 0.166667H13.1912V2.83333H18.4998V0.166667ZM14.5245 1.5V0H11.8579V1.5H14.5245ZM13.1912 1.33333H19.3592V-1.33333H13.1912V1.33333ZM19.3592 1.33333C18.9769 1.33333 18.6669 1.02332 18.6669 0.641007H21.3335C21.3335 -0.449458 20.4496 -1.33333 19.3592 -1.33333V1.33333ZM18.6669 0.641058L18.6671 6.80912L21.3338 6.80902L21.3335 0.640957L18.6669 0.641058Z"
        fill="currentColor" mask="url(#path-1-inside-1_788_57849)" />
</svg>