<svg xmlns="http://www.w3.org/2000/svg" width="24" height="24" viewBox="0 0 24 24" fill="none">
  <path d="M13.7209 12.3333C13.7209 13.3561 12.9504 14.1852 12 14.1852C11.0496 14.1852 10.2791 13.3561 10.2791 12.3333C10.2791 11.3106 11.0496 10.4815 12 10.4815C12.9504 10.4815 13.7209 11.3106 13.7209 12.3333Z" fill="currentColor"/>
  <path fill-rule="evenodd" clip-rule="evenodd" d="M12 4C7.18883 4 3.14622 7.54104 2 12.3333C3.14622 17.1256 7.18883 20.6667 12 20.6667C16.8112 20.6667 20.8538 17.1256 22 12.3333C20.8538 7.54104 16.8112 4 12 4ZM15.4418 12.3333C15.4418 14.3788 13.9008 16.037 12 16.037C10.0992 16.037 8.55824 14.3788 8.55824 12.3333C8.55824 10.2878 10.0992 8.62963 12 8.62963C13.9008 8.62963 15.4418 10.2878 15.4418 12.3333Z" fill="currentColor"/>
</svg>