<svg width="21" height="20" viewBox="0 0 21 20" fill="none" xmlns="http://www.w3.org/2000/svg">
    <path d="M15.5105 8.92606C15.805 9.25939 16.0728 9.61877 16.31 10C15.6986 10.9854 14.8838 11.8219 13.9228 12.4458C12.7154 13.2302 11.321 13.6459 9.89071 13.6459C8.46045 13.6459 7.06597 13.2313 5.85756 12.4458C4.89656 11.8208 4.08277 10.9844 3.47039 10C4.08175 9.0146 4.89656 8.17814 5.85756 7.55418C5.91993 7.51356 5.98331 7.47397 6.0467 7.43543C5.88721 7.88022 5.80031 8.36043 5.80031 8.86147C5.80031 11.1625 7.63133 13.0281 9.88968 13.0281C12.148 13.0281 13.9791 11.1625 13.9791 8.86147C13.9791 8.85002 13.9791 8.83856 13.9791 8.82814C12.2329 8.36981 10.9396 6.76668 10.9131 4.8521C10.5767 4.81356 10.2363 4.79272 9.88968 4.79272C6.32273 4.79272 3.23014 6.90939 1.71094 10.0011C3.23014 13.0927 6.32273 15.2094 9.88968 15.2094C13.4566 15.2094 16.5492 13.0927 18.0684 10.0011C17.7863 9.42814 17.4509 8.88752 17.0676 8.38856C16.6003 8.66772 16.0728 8.85627 15.5105 8.9271V8.92606ZM8.35617 6.87502C9.20267 6.87502 9.88968 7.57502 9.88968 8.43752C9.88968 9.30002 9.20267 10 8.35617 10C7.50967 10 6.82265 9.30002 6.82265 8.43752C6.82265 7.57502 7.50967 6.87502 8.35617 6.87502Z" fill="#5E6781"/>
    <path d="M17.4908 4.48786H15.5739V2.53474C15.5739 2.29507 15.3832 2.10071 15.1479 2.10071H14.722C14.4868 2.10071 14.296 2.29507 14.296 2.53474V4.48786H12.3791C12.1439 4.48786 11.9531 4.68222 11.9531 4.92189V5.35592C11.9531 5.59558 12.1439 5.78994 12.3791 5.78994H14.296V7.74307C14.296 7.98273 14.4868 8.1771 14.722 8.1771H15.1479C15.3832 8.1771 15.5739 7.98273 15.5739 7.74307V5.78994H17.4908C17.726 5.78994 17.9168 5.59558 17.9168 5.35592V4.92189C17.9168 4.68222 17.726 4.48786 17.4908 4.48786Z" fill="#5E6781"/>
    <ellipse cx="8.66187" cy="8.74996" rx="2.04469" ry="2.08333" fill="#5E6781"/>
    </svg>
    