<svg width="20" height="20" viewBox="0 0 20 20" fill="none" xmlns="http://www.w3.org/2000/svg">
<path d="M15.6759 4.67336C15.1728 4.67336 15.4514 4.67336 15.1747 4.67336C14.8978 4.67336 15.1747 4.67335 14.6733 4.67336C14.172 4.67336 12.5012 4.67336 12.5012 4.67336C12.2245 4.67336 12 4.89778 12 5.17461C12 5.45144 12.2245 5.67586 12.5012 5.67586H14.6733C15.1039 5.67586 14.8271 5.67586 15.1039 5.67586C15.3807 5.67586 15.1039 5.67586 15.6759 5.67586H17.848C18.1249 5.67586 18.3492 5.45144 18.3492 5.17461C18.3492 4.89778 18.1249 4.67336 17.848 4.67336H15.6759Z" fill="currentColor"/>
<path d="M9.73838 4.04793C9.78838 4.04793 9.83828 4.04832 9.88809 4.0491C9.79028 4.42924 9.73838 4.82775 9.73838 5.2384C9.73838 5.50899 9.76095 5.77432 9.80428 6.03258C9.78238 6.03223 9.76038 6.03205 9.73838 6.03205C7.54786 6.03205 5.77008 7.80983 5.77008 10.0003C5.77008 12.1908 7.54786 13.9686 9.73838 13.9686C11.9289 13.9686 13.7066 12.1908 13.7066 10.0003C13.7066 9.97828 13.7064 9.95628 13.7061 9.93438C13.9643 9.97771 14.2296 10.0003 14.5003 10.0003C15.7874 10.0003 16.9554 9.48956 17.8125 8.65966C18.065 9.08603 18.2848 9.53409 18.4685 10.0003C17.0955 13.4845 13.7066 15.9527 9.73838 15.9527C5.77008 15.9527 2.3812 13.4845 1.00818 10.0003C2.3812 6.51618 5.77008 4.04793 9.73838 4.04793Z" fill="currentColor"/>
<path d="M12.0156 9.30148C11.373 8.90767 10.831 8.36568 10.4371 7.72307C10.2163 7.65562 9.98162 7.61935 9.73838 7.61935C8.42089 7.61935 7.35739 8.68284 7.35739 10.0003C7.35739 11.3178 8.42089 12.3812 9.73838 12.3812C11.0558 12.3812 12.1193 11.3178 12.1193 10.0003C12.1193 9.75704 12.083 9.52236 12.0156 9.30148Z" fill="currentColor"/>
</svg>
