<svg width="16" height="16" viewBox="0 0 16 16" fill="currentColor" xmlns="http://www.w3.org/2000/svg">
	<path d="M2 2.68744L2.68744 2L14.0001 13.3126L13.3126 14.0001L2 2.68744ZM8.10444 6.00262L9.99725 7.89544C9.97096 7.40196 9.76309 6.93565 9.41366 6.58622C9.06423 6.23678 8.59791 6.02892 8.10444 6.00262ZM7.89569 9.997L6.00288 8.10419C6.02917 8.59766 6.23703 9.06398 6.58647 9.41341C6.9359 9.76284 7.40222 9.9707 7.89569 9.997Z" />
	<path d="M8 11C7.53848 11 7.08317 10.8936 6.66951 10.6889C6.25584 10.4842 5.89497 10.1869 5.61498 9.82C5.33499 9.45311 5.14343 9.02656 5.05519 8.57355C4.96695 8.12054 4.98443 7.65328 5.10625 7.20812L2.94781 5.04937C2.06625 5.85687 1.22625 6.91062 0.5 8C1.32563 9.375 2.455 10.7887 3.63125 11.5994C4.98063 12.5287 6.44781 13 7.9925 13C8.83665 13.0006 9.6745 12.8547 10.4688 12.5687L8.79344 10.8937C8.5349 10.9645 8.26804 11.0002 8 11ZM8 5C8.46152 4.99998 8.91683 5.10644 9.33049 5.3111C9.74416 5.51576 10.105 5.81311 10.385 6.18C10.665 6.54689 10.8566 6.97344 10.9448 7.42645C11.033 7.87946 11.0156 8.34672 10.8938 8.79187L13.1019 11C14.0128 10.1797 14.8541 9.07625 15.5 8C14.6756 6.64281 13.5344 5.2325 12.3381 4.41187C10.9719 3.475 9.50969 3 7.9925 3C7.15764 3.0012 6.32978 3.15246 5.54844 3.44656L7.20813 5.10625C7.46615 5.03563 7.73248 4.99989 8 5Z" />
</svg>
	