<svg width="48" height="48" viewBox="0 0 48 48" fill="none" xmlns="http://www.w3.org/2000/svg">
<path d="M34.4367 4.49758L36.802 10.5726L12.6549 21.8601L11.2732 10.6793C12.0117 10.3476 12.6924 10.0418 13.3761 9.73893C17.4751 7.92451 21.5713 6.1072 25.6674 4.28989C26.2184 4.03316 26.827 3.92355 27.4299 3.97547C29.654 4.16008 31.878 4.29278 34.102 4.44855C34.1943 4.45431 34.2867 4.47451 34.4367 4.49758Z" fill="#066137"/>
<path d="M14.2876 38.6192V35.4692H18.3693L21.4126 32.2846H24.202V25.1366L33.9203 24.8135L32.6424 26.9279L26.6193 27.2741C26.5818 27.4789 26.5588 27.6866 26.5472 27.8971C26.5386 29.2154 26.5472 30.525 26.5357 31.8404C26.5068 32.1462 26.6164 32.4491 26.8299 32.6683C27.7559 33.5654 28.6703 34.4683 29.6626 35.4491H33.8136C33.8136 36.5279 33.8193 37.5433 33.8136 38.6019L24.0376 44.0019L14.2876 38.6192ZM20.0857 36.2077L24.0636 37.6673L27.9174 36.2135L27.228 35.2039H20.9713L20.0857 36.2077Z" fill="#066137"/>
<path d="M36.7991 11.5703L35.7606 22.0963L23.3481 17.5242L36.7991 11.5703Z" fill="#066137"/>
<path d="M21.0636 25.0563L21.3751 27.2774L15.1905 26.9486L13.9126 24.7188L21.0636 25.0563Z" fill="#066137"/>
</svg>
