<svg width="18" height="16" viewBox="0 0 18 16" fill="none" xmlns="http://www.w3.org/2000/svg">
<path d="M16.2564 1.00001H12.2399L11.9253 0.41563C11.8586 0.290697 11.7559 0.185606 11.6288 0.11218C11.5017 0.0387537 11.3551 -9.46239e-05 11.2056 5.47897e-06H7.37987C7.23072 -0.00052985 7.08442 0.0381736 6.95773 0.111682C6.83105 0.18519 6.72911 0.290529 6.66359 0.41563L6.34896 1.00001H2.33241C2.19038 1.00001 2.05416 1.05268 1.95373 1.14645C1.8533 1.24022 1.79688 1.3674 1.79688 1.50001V2.50001C1.79688 2.63261 1.8533 2.75979 1.95373 2.85356C2.05416 2.94733 2.19038 3.00001 2.33241 3.00001H16.2564C16.3985 3.00001 16.5347 2.94733 16.6351 2.85356C16.7356 2.75979 16.792 2.63261 16.792 2.50001V1.50001C16.792 1.3674 16.7356 1.24022 16.6351 1.14645C16.5347 1.05268 16.3985 1.00001 16.2564 1.00001ZM3.57754 14.5938C3.60309 14.9746 3.78311 15.332 4.08097 15.5932C4.37883 15.8545 4.77213 16 5.18081 16H13.408C13.8167 16 14.21 15.8545 14.5079 15.5932C14.8057 15.332 14.9858 14.9746 15.0113 14.5938L15.7209 4.00001H2.86795L3.57754 14.5938Z" fill="currentColor"/>
</svg>
