<svg width="16" height="17" viewBox="0 0 16 17" fill="none" xmlns="http://www.w3.org/2000/svg">
<path fill-rule="evenodd" clip-rule="evenodd" d="M8.00033 2.49935C4.68662 2.49935 2.00033 5.18564 2.00033 8.49935C2.00033 11.8131 4.68662 14.4993 8.00033 14.4993C11.3141 14.4993 14.0003 11.8131 14.0003 8.49935C14.0003 5.18564 11.3141 2.49935 8.00033 2.49935ZM0.666992 8.49935C0.666992 4.44926 3.95024 1.16602 8.00033 1.16602C12.0504 1.16602 15.3337 4.44926 15.3337 8.49935C15.3337 12.5494 12.0504 15.8327 8.00033 15.8327C3.95024 15.8327 0.666992 12.5494 0.666992 8.49935Z" fill="currentColor"/>
<path fill-rule="evenodd" clip-rule="evenodd" d="M7.99967 3.83398C8.36787 3.83398 8.66634 4.13246 8.66634 4.50065V8.08865L10.9645 9.23772C11.2938 9.40238 11.4273 9.80278 11.2626 10.1321C11.0979 10.4615 10.6975 10.5949 10.3682 10.4303L7.70154 9.09692C7.47567 8.98398 7.33301 8.75318 7.33301 8.50065V4.50065C7.33301 4.13246 7.63147 3.83398 7.99967 3.83398Z" fill="#939CAD"/>
</svg>
