<svg xmlns="http://www.w3.org/2000/svg" width="16" height="22" viewBox="0 0 16 22" fill="none">
  <path d="M13.3913 1H12.5334V1.58753C12.5334 2.561 11.7882 3.35258 10.8753 3.35258H5.12466C4.68413 3.35202 4.2618 3.16587 3.95033 2.83497C3.63886 2.50407 3.46369 2.05544 3.46325 1.58753V1H2.6087C2.2661 0.999908 1.92683 1.07152 1.61029 1.21073C1.29375 1.34995 1.00614 1.55405 0.763877 1.81137C0.52162 2.06869 0.329467 2.37418 0.198398 2.7104C0.0673297 3.04662 -8.69485e-05 3.40698 8.41597e-08 3.77088V19.226C8.41597e-08 20.7582 1.16921 22.0001 2.6087 22.0001H13.3913C14.8308 22.0001 16 20.7582 16 19.2257V3.77053C16 3.40666 15.9326 3.04634 15.8015 2.71016C15.6704 2.37398 15.4783 2.06852 15.236 1.81124C14.9938 1.55396 14.7062 1.34989 14.3896 1.2107C14.0731 1.0715 13.7339 0.999908 13.3913 1ZM3.4871 5.11024C3.4871 4.725 3.78123 4.41646 4.14027 4.41646H11.8564C12.2188 4.41646 12.5093 4.725 12.5093 5.11024V6.21387C12.5096 6.30504 12.4929 6.39538 12.4602 6.47967C12.4275 6.56397 12.3794 6.64057 12.3187 6.70505C12.2581 6.76953 12.186 6.82063 12.1066 6.8554C12.0273 6.89017 11.9422 6.90793 11.8564 6.90765H4.14027C4.05448 6.9077 3.96953 6.88978 3.89026 6.85493C3.811 6.82009 3.73898 6.76898 3.67831 6.70455C3.61765 6.64012 3.56954 6.56362 3.53673 6.47943C3.50392 6.39523 3.48706 6.305 3.4871 6.21387V5.11024ZM5.96928 18.5678C5.96928 18.8452 5.86553 19.1112 5.68086 19.3074C5.49619 19.5035 5.24572 19.6137 4.98456 19.6137H3.13833C2.87722 19.6136 2.62684 19.5034 2.44224 19.3073C2.25764 19.1111 2.15394 18.8451 2.15394 18.5678V16.5234C2.15402 16.3863 2.17956 16.2505 2.2291 16.1239C2.27864 15.9972 2.3512 15.8822 2.44263 15.7854C2.53406 15.6886 2.64257 15.6119 2.76194 15.5596C2.88132 15.5074 3.00922 15.4807 3.13833 15.481H4.98456C5.11369 15.4806 5.24163 15.5073 5.36104 15.5595C5.48045 15.6117 5.589 15.6884 5.68047 15.7853C5.77193 15.8821 5.84452 15.9971 5.89408 16.1238C5.94364 16.2505 5.96919 16.3863 5.96928 16.5234V18.5678ZM6.05805 12.5433C6.05805 12.6839 6.03194 12.823 5.98121 12.9528C5.93048 13.0826 5.85614 13.2004 5.76244 13.2996C5.66875 13.3988 5.55754 13.4774 5.43519 13.5308C5.31284 13.5843 5.18177 13.6116 5.04948 13.6111H3.15886C3.02685 13.6111 2.89613 13.5836 2.77417 13.5299C2.6522 13.4763 2.54139 13.3976 2.44806 13.2984C2.35473 13.1993 2.28071 13.0816 2.23025 12.952C2.17978 12.8224 2.15385 12.6836 2.15394 12.5433V10.4518C2.15385 10.3116 2.17978 10.1727 2.23025 10.0432C2.28071 9.91362 2.35473 9.79589 2.44806 9.69672C2.54139 9.59756 2.6522 9.5189 2.77417 9.46526C2.89613 9.41161 3.02685 9.38402 3.15886 9.38407H5.04948C5.18177 9.3836 5.31284 9.41088 5.43519 9.46433C5.55754 9.51778 5.66875 9.59636 5.76244 9.69556C5.85614 9.79475 5.93048 9.91262 5.98121 10.0424C6.03194 10.1722 6.05805 10.3113 6.05805 10.4518V12.5433ZM13.8444 18.9344H7.99934C7.90868 18.9344 7.82174 18.8961 7.75763 18.8281C7.69353 18.76 7.65752 18.6676 7.65752 18.5713C7.65752 18.475 7.69353 18.3827 7.75763 18.3146C7.82174 18.2465 7.90868 18.2082 7.99934 18.2082H13.8444C13.9351 18.2082 14.022 18.2465 14.0861 18.3146C14.1502 18.3827 14.1862 18.475 14.1862 18.5713C14.1862 18.6676 14.1502 18.76 14.0861 18.8281C14.022 18.8961 13.9351 18.9344 13.8444 18.9344ZM13.8444 16.9811H7.99934C7.90868 16.9811 7.82174 16.9429 7.75763 16.8748C7.69353 16.8067 7.65752 16.7143 7.65752 16.6181C7.65752 16.5218 7.69353 16.4294 7.75763 16.3613C7.82174 16.2932 7.90868 16.255 7.99934 16.255H13.8444C13.9351 16.255 14.022 16.2932 14.0861 16.3613C14.1502 16.4294 14.1862 16.5218 14.1862 16.6181C14.1862 16.7143 14.1502 16.8067 14.0861 16.8748C14.022 16.9429 13.9351 16.9811 13.8444 16.9811ZM13.8444 12.8375H7.99934C7.90868 12.8375 7.82174 12.7992 7.75763 12.7311C7.69353 12.663 7.65752 12.5707 7.65752 12.4744C7.65752 12.3781 7.69353 12.2858 7.75763 12.2177C7.82174 12.1496 7.90868 12.1113 7.99934 12.1113H13.8444C13.9351 12.1113 14.022 12.1496 14.0861 12.2177C14.1502 12.2858 14.1862 12.3781 14.1862 12.4744C14.1862 12.5707 14.1502 12.663 14.0861 12.7311C14.022 12.7992 13.9351 12.8375 13.8444 12.8375ZM13.8444 10.8842H7.99934C7.90868 10.8842 7.82174 10.8459 7.75763 10.7779C7.69353 10.7098 7.65752 10.6174 7.65752 10.5211C7.65752 10.4248 7.69353 10.3325 7.75763 10.2644C7.82174 10.1963 7.90868 10.1581 7.99934 10.1581H13.8444C13.9351 10.1581 14.022 10.1963 14.0861 10.2644C14.1502 10.3325 14.1862 10.4248 14.1862 10.5211C14.1862 10.6174 14.1502 10.7098 14.0861 10.7779C14.022 10.8459 13.9351 10.8842 13.8444 10.8842Z" fill="currentColor"/>
  <path d="M5.05773 2.99131H10.9925C11.1248 2.99131 11.2559 2.96578 11.3781 2.91616C11.5004 2.86655 11.6115 2.79383 11.705 2.70216C11.7986 2.61048 11.8728 2.50166 11.9234 2.38189C11.974 2.26212 12 2.13376 12 2.00414V0.986835C12 0.857242 11.9739 0.728918 11.9233 0.60919C11.8727 0.489461 11.7985 0.380673 11.7049 0.289037C11.6113 0.197401 11.5003 0.124711 11.378 0.0751183C11.2558 0.0255253 11.1248 0 10.9925 0H5.05773C4.79051 0 4.53424 0.10397 4.34529 0.289037C4.15635 0.474105 4.0502 0.72511 4.0502 0.986835V2.00414C4.05015 2.13376 4.07618 2.26212 4.12679 2.38189C4.1774 2.50166 4.25161 2.61048 4.34517 2.70216C4.43874 2.79383 4.54982 2.86655 4.67208 2.91616C4.79434 2.96578 4.92539 2.99131 5.05773 2.99131ZM4.47037 10.9145L3.77293 11.3789L3.65737 11.1864C3.60848 11.1102 3.53121 11.0557 3.44197 11.0344C3.35272 11.0131 3.25852 11.0267 3.17935 11.0723C3.10018 11.1179 3.04226 11.192 3.01789 11.2787C2.99352 11.3655 3.00462 11.4581 3.04882 11.537L3.35549 12.0476C3.45806 12.2181 3.68712 12.2713 3.85806 12.1581L4.8673 11.4864C4.94107 11.4334 4.991 11.3545 5.00655 11.2662C5.0221 11.1779 5.00207 11.0872 4.95068 11.0131C4.89929 10.9389 4.82054 10.8872 4.73102 10.8688C4.64149 10.8505 4.54784 10.8668 4.47037 10.9145ZM4.47037 16.6965L3.77293 17.1609L3.65737 16.9684C3.60986 16.8894 3.53224 16.832 3.44158 16.8091C3.35092 16.7861 3.25465 16.7993 3.17395 16.8458C3.09325 16.8924 3.03473 16.9684 3.01127 17.0572C2.9878 17.146 3.00131 17.2403 3.04882 17.3193L3.35549 17.8297C3.45806 18.0004 3.68712 18.0534 3.85806 17.9402L4.8673 17.2684C4.94107 17.2155 4.991 17.1365 5.00655 17.0483C5.0221 16.96 5.00207 16.8692 4.95068 16.7951C4.89929 16.721 4.82054 16.6693 4.73102 16.6509C4.64149 16.6325 4.54784 16.6488 4.47037 16.6965Z" fill="currentColor"/>
</svg>