<svg width="18" height="22" viewBox="0 0 18 22" fill="none" xmlns="http://www.w3.org/2000/svg">
    <path
        d="M5.09495 14.165H9.96495M2.17495 1.25C1.91409 1.25652 1.66611 1.36475 1.48395 1.55159C1.30179 1.73842 1.19987 1.98906 1.19995 2.25V19.8C1.19987 20.0609 1.30179 20.3116 1.48395 20.4984C1.66611 20.6852 1.91409 20.7935 2.17495 20.8H15.825C16.0902 20.8 16.3445 20.6946 16.5321 20.5071C16.7196 20.3196 16.825 20.0652 16.825 19.8V2.225C16.8184 1.96414 16.7102 1.71616 16.5234 1.534C16.3365 1.35184 16.0859 1.24992 15.825 1.25H14.825V5.66L12.895 3.705L10.955 5.66V1.25H2.17495ZM5.09495 11.25H13.405H5.09495ZM5.09495 17.09H11.44H5.09495Z"
        stroke="currentColor" stroke-width="1.75" stroke-linecap="round" stroke-linejoin="round" />
</svg>