<svg width="18" height="22" viewBox="0 0 18 22" fill="none" xmlns="http://www.w3.org/2000/svg">
    <path
        d="M13 2.75V3.25H13.5H15.75C16.0152 3.25 16.2696 3.35536 16.4571 3.54289L16.8107 3.18934L16.4571 3.54289C16.6446 3.73043 16.75 3.98478 16.75 4.25V20C16.75 20.2652 16.6446 20.5196 16.4571 20.7071C16.2696 20.8946 16.0152 21 15.75 21H2.25C1.98478 21 1.73043 20.8946 1.54289 20.7071C1.35536 20.5196 1.25 20.2652 1.25 20V4.25C1.25 3.98478 1.35536 3.73043 1.54289 3.54289C1.73043 3.35536 1.98478 3.25 2.25 3.25H4.5H5V2.75V2C5 1.73478 5.10536 1.48043 5.29289 1.29289C5.48043 1.10536 5.73478 1 6 1H12C12.2652 1 12.5196 1.10536 12.7071 1.29289C12.8946 1.48043 13 1.73478 13 2V2.75ZM6 1.5H5.5V2V5V5.5H6H12H12.5V5V2V1.5H12H6ZM15.75 20.5H16.25V20V4.25V3.75H15.75H13.5H13V4.25V6H5V4.25V3.75H4.5H2.25H1.75V4.25V20V20.5H2.25H15.75ZM5 13H10V13.5H5V13ZM5 9.25H13V9.75H5V9.25ZM5 16.75H7.75V17.25H5V16.75Z"
        fill="currentColor" stroke="currentColor" />
</svg>