<svg width="24" height="24" viewBox="0 0 24 24" fill="none" xmlns="http://www.w3.org/2000/svg">
    <path fill-rule="evenodd" clip-rule="evenodd" d="M2.74833 5.76506C1.43847 3.82334 2.85819 1.25 5.18188 1.25H18.8195C21.1432 1.25 22.5629 3.82335 21.2531 5.76506C21.2448 5.77738 21.2361 5.78944 21.2271 5.80124L15.5196 13.2645C15.1335 13.8442 14.9282 14.5222 14.9282 15.2148V18.7699C14.9282 19.2571 14.7323 19.7225 14.3865 20.0642L12.209 22.2161C11.0625 23.3492 9.0732 22.5649 9.0732 20.9219V15.2148C9.0732 14.5222 8.86788 13.8442 8.48184 13.2645L2.77433 5.80124C2.7653 5.78944 2.75663 5.77738 2.74833 5.76506ZM3.98077 4.90955L9.68754 12.3718C9.69656 12.3836 9.70523 12.3957 9.71354 12.408C10.2737 13.2384 10.5732 14.2151 10.5732 15.2148V20.9219C10.5732 21.196 10.9294 21.3719 11.1546 21.1492L13.3321 18.9973C13.3947 18.9355 13.4282 18.8535 13.4282 18.7699V15.2148C13.4282 14.2151 13.7277 13.2384 14.2879 12.408C14.2962 12.3957 14.3049 12.3836 14.3139 12.3718L20.0207 4.90954C20.6212 3.99261 19.9672 2.75 18.8195 2.75H5.18188C4.03421 2.75 3.38018 3.99262 3.98077 4.90955Z" fill="currentColor"/>
    </svg>
    