<svg xmlns="http://www.w3.org/2000/svg" width="20" height="20" viewBox="0 0 20 20" fill="currentColor">
<path d="M10.0135 7.72127C9.42953 7.72127 8.88261 7.93911 8.46861 8.33724C8.05645 8.73539 7.82791 9.26124 7.82791 9.82277C7.82791 10.3843 8.05645 10.9101 8.46861 11.3082C8.88261 11.7045 9.42953 11.9242 10.0135 11.9242C10.5975 11.9242 11.1444 11.7045 11.5585 11.3082C11.9705 10.9101 12.1991 10.3843 12.1991 9.82277C12.1991 9.26124 11.9705 8.73539 11.5585 8.33724C11.3561 8.14131 11.1155 7.98594 10.8502 7.88019C10.5851 7.77444 10.3006 7.72042 10.0135 7.72127ZM18.0662 12.144L16.7889 11.0942C16.8495 10.7373 16.8807 10.373 16.8807 10.0105C16.8807 9.64808 16.8495 9.28193 16.7889 8.92693L18.0662 7.87714C18.1628 7.79771 18.2318 7.69193 18.2642 7.57384C18.2967 7.45576 18.291 7.33097 18.2478 7.21608L18.2303 7.16726C17.8788 6.22204 17.352 5.34588 16.6756 4.58124L16.6405 4.5418C16.5583 4.44894 16.4488 4.38219 16.3265 4.35034C16.2041 4.31849 16.0745 4.32304 15.9549 4.3634L14.369 4.90614C13.7831 4.44415 13.1307 4.07982 12.4237 3.82629L12.117 2.23186C12.0939 2.11174 12.0333 2.00124 11.9433 1.91504C11.8533 1.82883 11.7381 1.77099 11.6131 1.74921L11.5604 1.73982C10.5448 1.56329 9.47445 1.56329 8.45884 1.73982L8.40607 1.74921C8.28107 1.77099 8.16591 1.82883 8.07591 1.91504C7.98591 2.00124 7.9253 2.11174 7.90214 2.23186L7.59357 3.8338C6.89324 4.08935 6.24083 4.4528 5.66194 4.9099L4.06428 4.3634C3.94468 4.32272 3.81504 4.318 3.69259 4.34987C3.57014 4.38174 3.46067 4.44868 3.37873 4.5418L3.34357 4.58124C2.66837 5.3467 2.14176 6.22264 1.78889 7.16726L1.77131 7.21608C1.68342 7.45084 1.75568 7.71376 1.95295 7.87714L3.24592 8.93824C3.18537 9.29131 3.15607 9.65185 3.15607 10.0087C3.15607 10.3692 3.18537 10.7299 3.24592 11.0792L1.95686 12.1402C1.86037 12.2196 1.7913 12.3255 1.75886 12.4435C1.72641 12.5616 1.73211 12.6864 1.77521 12.8012L1.7928 12.8501C2.14631 13.7948 2.6678 14.668 3.34748 15.4361L3.38264 15.4755C3.46477 15.5684 3.57424 15.6352 3.69663 15.667C3.81901 15.6989 3.94855 15.6943 4.06818 15.6539L5.66584 15.1075C6.24787 15.5675 6.89631 15.9319 7.59748 16.1835L7.90607 17.7855C7.92922 17.9056 7.98984 18.0161 8.07984 18.1023C8.16984 18.1885 8.28499 18.2464 8.40999 18.2682L8.46268 18.2775C9.4883 18.455 10.5387 18.455 11.5643 18.2775L11.617 18.2682C11.742 18.2464 11.8571 18.1885 11.9471 18.1023C12.0372 18.0161 12.0978 17.9056 12.1209 17.7855L12.4275 16.1911C13.1346 15.9357 13.7869 15.5732 14.3728 15.1112L15.9588 15.6539C16.0784 15.6946 16.2081 15.6993 16.3305 15.6675C16.453 15.6356 16.5625 15.5687 16.6444 15.4755L16.6795 15.4361C17.3592 14.6642 17.8807 13.7948 18.2342 12.8501L18.2518 12.8012C18.3358 12.5684 18.2635 12.3074 18.0662 12.144ZM10.0135 13.1243C8.11699 13.1243 6.5799 11.6463 6.5799 9.82277C6.5799 7.99921 8.11699 6.52122 10.0135 6.52122C11.91 6.52122 13.4471 7.99921 13.4471 9.82277C13.4471 11.6463 11.91 13.1243 10.0135 13.1243Z" fill="currentColor"/>
</svg>