<svg width="18" height="20" viewBox="0 0 18 20" fill="none" xmlns="http://www.w3.org/2000/svg">
    <mask id="path-1-inside-1_788_57827" fill="currentColor">
        <path
            d="M17.7623 12.5422L16.3723 11.2921C16.4381 10.8679 16.4721 10.4349 16.4721 10.0018C16.4721 9.56874 16.4381 9.13568 16.3723 8.71154L17.7623 7.46146C17.8672 7.36704 17.9422 7.2413 17.9775 7.10094C18.0127 6.96058 18.0065 6.81225 17.9597 6.67569L17.9406 6.61765C17.5579 5.49263 16.9849 4.44972 16.2492 3.53931L16.211 3.49243C16.1218 3.38205 16.0028 3.3027 15.8699 3.26484C15.7369 3.22698 15.5961 3.2324 15.4662 3.28036L13.7409 3.9255C13.1042 3.37635 12.3933 2.94328 11.6251 2.63969L11.2919 0.742239C11.2668 0.599466 11.2009 0.468118 11.1031 0.365645C11.0053 0.263173 10.8802 0.194426 10.7444 0.168538L10.6871 0.157377C9.58147 -0.052459 8.41853 -0.052459 7.3129 0.157377L7.2556 0.168538C7.11978 0.194426 6.99466 0.263173 6.89686 0.365645C6.79907 0.468118 6.73323 0.599466 6.70809 0.742239L6.37279 2.64862C5.61071 2.95228 4.90102 3.38511 4.27187 3.92996L2.53384 3.28036C2.40389 3.23201 2.26304 3.22641 2.12999 3.26429C1.99694 3.30217 1.878 3.38174 1.78897 3.49243L1.75077 3.53931C1.01597 4.45036 0.443056 5.4931 0.0594242 6.61765L0.0403249 6.67569C-0.0551714 6.95472 0.0233479 7.26725 0.237684 7.46146L1.64466 8.72494C1.57888 9.14461 1.54704 9.57321 1.54704 9.99958C1.54704 10.4282 1.57888 10.8568 1.64466 11.2742L0.237684 12.5377C0.132841 12.6321 0.0578039 12.7579 0.0225499 12.8982C-0.0127041 13.0386 -0.00650436 13.1869 0.0403249 13.3235L0.0594242 13.3815C0.443532 14.5066 1.01227 15.5446 1.75077 16.4598L1.78897 16.5067C1.87821 16.6171 1.99716 16.6965 2.13013 16.7343C2.2631 16.7722 2.40385 16.7668 2.53384 16.7188L4.27187 16.0692C4.90427 16.6161 5.61094 17.0492 6.37279 17.3505L6.70809 19.2569C6.73323 19.3997 6.79907 19.531 6.89686 19.6335C6.99466 19.736 7.11978 19.8047 7.2556 19.8306L7.3129 19.8418C8.42869 20.0527 9.57131 20.0527 10.6871 19.8418L10.7444 19.8306C10.8802 19.8047 11.0053 19.736 11.1031 19.6335C11.2009 19.531 11.2668 19.3997 11.2919 19.2569L11.6251 17.3595C12.393 17.0567 13.1079 16.6222 13.7409 16.0737L15.4662 16.7188C15.5961 16.7671 15.737 16.7727 15.87 16.7349C16.0031 16.697 16.122 16.6174 16.211 16.5067L16.2492 16.4598C16.9877 15.5424 17.5565 14.5066 17.9406 13.3815L17.9597 13.3235C18.0552 13.0489 17.9767 12.7364 17.7623 12.5422ZM14.8656 8.97495C14.9186 9.31203 14.9462 9.65804 14.9462 10.004C14.9462 10.35 14.9186 10.6961 14.8656 11.0331L14.7255 11.9283L16.3108 13.3547C16.0705 13.9371 15.7671 14.4884 15.4067 14.9977L13.4374 14.2633L12.771 14.8392C12.2639 15.2767 11.6994 15.6205 11.0882 15.8616L10.2797 16.1808L9.89979 18.3461C9.30043 18.4176 8.69532 18.4176 8.09597 18.3461L7.71611 16.1763L6.91394 15.8527C6.30913 15.6116 5.74676 15.2678 5.24381 14.8325L4.57746 14.2543L2.59538 14.9955C2.23462 14.4843 1.93327 13.9329 1.69135 13.3525L3.29357 11.9127L3.15563 11.0197C3.1047 10.6871 3.07711 10.3434 3.07711 10.004C3.07711 9.6625 3.10257 9.32096 3.15563 8.98835L3.29357 8.09543L1.69135 6.6556C1.93115 6.07297 2.23462 5.52382 2.59538 5.01262L4.57746 5.75375L5.24381 5.17558C5.74676 4.74028 6.30913 4.39651 6.91394 4.15542L7.71823 3.8362L8.09809 1.66641C8.69441 1.59498 9.30347 1.59498 9.90191 1.66641L10.2818 3.83174L11.0903 4.15096C11.6994 4.39205 12.266 4.73582 12.7732 5.17335L13.4395 5.74928L15.4089 5.01486C15.7696 5.52605 16.071 6.07743 16.3129 6.65783L14.7277 8.08427L14.8656 8.97495ZM9.00212 5.85197C6.9394 5.85197 5.26716 7.61102 5.26716 9.78081C5.26716 11.9506 6.9394 13.7097 9.00212 13.7097C11.0648 13.7097 12.7371 11.9506 12.7371 9.78081C12.7371 7.61102 11.0648 5.85197 9.00212 5.85197ZM10.6829 11.5488C10.4624 11.7813 10.2004 11.9658 9.91199 12.0914C9.62354 12.2171 9.31433 12.2815 9.00212 12.281C8.3676 12.281 7.77128 12.0198 7.32139 11.5488C7.10031 11.3169 6.925 11.0413 6.80554 10.7379C6.68609 10.4345 6.62484 10.1092 6.62533 9.78081C6.62533 9.11336 6.87362 8.48608 7.32139 8.01283C7.77128 7.53959 8.3676 7.28064 9.00212 7.28064C9.63664 7.28064 10.233 7.53959 10.6829 8.01283C10.9039 8.24472 11.0792 8.5203 11.1987 8.82372C11.3182 9.12714 11.3794 9.4524 11.3789 9.78081C11.3789 10.4483 11.1306 11.0755 10.6829 11.5488Z" />
    </mask>
    <path
        d="M17.7623 12.5422L16.3723 11.2921C16.4381 10.8679 16.4721 10.4349 16.4721 10.0018C16.4721 9.56874 16.4381 9.13568 16.3723 8.71154L17.7623 7.46146C17.8672 7.36704 17.9422 7.2413 17.9775 7.10094C18.0127 6.96058 18.0065 6.81225 17.9597 6.67569L17.9406 6.61765C17.5579 5.49263 16.9849 4.44972 16.2492 3.53931L16.211 3.49243C16.1218 3.38205 16.0028 3.3027 15.8699 3.26484C15.7369 3.22698 15.5961 3.2324 15.4662 3.28036L13.7409 3.9255C13.1042 3.37635 12.3933 2.94328 11.6251 2.63969L11.2919 0.742239C11.2668 0.599466 11.2009 0.468118 11.1031 0.365645C11.0053 0.263173 10.8802 0.194426 10.7444 0.168538L10.6871 0.157377C9.58147 -0.052459 8.41853 -0.052459 7.3129 0.157377L7.2556 0.168538C7.11978 0.194426 6.99466 0.263173 6.89686 0.365645C6.79907 0.468118 6.73323 0.599466 6.70809 0.742239L6.37279 2.64862C5.61071 2.95228 4.90102 3.38511 4.27187 3.92996L2.53384 3.28036C2.40389 3.23201 2.26304 3.22641 2.12999 3.26429C1.99694 3.30217 1.878 3.38174 1.78897 3.49243L1.75077 3.53931C1.01597 4.45036 0.443056 5.4931 0.0594242 6.61765L0.0403249 6.67569C-0.0551714 6.95472 0.0233479 7.26725 0.237684 7.46146L1.64466 8.72494C1.57888 9.14461 1.54704 9.57321 1.54704 9.99958C1.54704 10.4282 1.57888 10.8568 1.64466 11.2742L0.237684 12.5377C0.132841 12.6321 0.0578039 12.7579 0.0225499 12.8982C-0.0127041 13.0386 -0.00650436 13.1869 0.0403249 13.3235L0.0594242 13.3815C0.443532 14.5066 1.01227 15.5446 1.75077 16.4598L1.78897 16.5067C1.87821 16.6171 1.99716 16.6965 2.13013 16.7343C2.2631 16.7722 2.40385 16.7668 2.53384 16.7188L4.27187 16.0692C4.90427 16.6161 5.61094 17.0492 6.37279 17.3505L6.70809 19.2569C6.73323 19.3997 6.79907 19.531 6.89686 19.6335C6.99466 19.736 7.11978 19.8047 7.2556 19.8306L7.3129 19.8418C8.42869 20.0527 9.57131 20.0527 10.6871 19.8418L10.7444 19.8306C10.8802 19.8047 11.0053 19.736 11.1031 19.6335C11.2009 19.531 11.2668 19.3997 11.2919 19.2569L11.6251 17.3595C12.393 17.0567 13.1079 16.6222 13.7409 16.0737L15.4662 16.7188C15.5961 16.7671 15.737 16.7727 15.87 16.7349C16.0031 16.697 16.122 16.6174 16.211 16.5067L16.2492 16.4598C16.9877 15.5424 17.5565 14.5066 17.9406 13.3815L17.9597 13.3235C18.0552 13.0489 17.9767 12.7364 17.7623 12.5422ZM14.8656 8.97495C14.9186 9.31203 14.9462 9.65804 14.9462 10.004C14.9462 10.35 14.9186 10.6961 14.8656 11.0331L14.7255 11.9283L16.3108 13.3547C16.0705 13.9371 15.7671 14.4884 15.4067 14.9977L13.4374 14.2633L12.771 14.8392C12.2639 15.2767 11.6994 15.6205 11.0882 15.8616L10.2797 16.1808L9.89979 18.3461C9.30043 18.4176 8.69532 18.4176 8.09597 18.3461L7.71611 16.1763L6.91394 15.8527C6.30913 15.6116 5.74676 15.2678 5.24381 14.8325L4.57746 14.2543L2.59538 14.9955C2.23462 14.4843 1.93327 13.9329 1.69135 13.3525L3.29357 11.9127L3.15563 11.0197C3.1047 10.6871 3.07711 10.3434 3.07711 10.004C3.07711 9.6625 3.10257 9.32096 3.15563 8.98835L3.29357 8.09543L1.69135 6.6556C1.93115 6.07297 2.23462 5.52382 2.59538 5.01262L4.57746 5.75375L5.24381 5.17558C5.74676 4.74028 6.30913 4.39651 6.91394 4.15542L7.71823 3.8362L8.09809 1.66641C8.69441 1.59498 9.30347 1.59498 9.90191 1.66641L10.2818 3.83174L11.0903 4.15096C11.6994 4.39205 12.266 4.73582 12.7732 5.17335L13.4395 5.74928L15.4089 5.01486C15.7696 5.52605 16.071 6.07743 16.3129 6.65783L14.7277 8.08427L14.8656 8.97495ZM9.00212 5.85197C6.9394 5.85197 5.26716 7.61102 5.26716 9.78081C5.26716 11.9506 6.9394 13.7097 9.00212 13.7097C11.0648 13.7097 12.7371 11.9506 12.7371 9.78081C12.7371 7.61102 11.0648 5.85197 9.00212 5.85197ZM10.6829 11.5488C10.4624 11.7813 10.2004 11.9658 9.91199 12.0914C9.62354 12.2171 9.31433 12.2815 9.00212 12.281C8.3676 12.281 7.77128 12.0198 7.32139 11.5488C7.10031 11.3169 6.925 11.0413 6.80554 10.7379C6.68609 10.4345 6.62484 10.1092 6.62533 9.78081C6.62533 9.11336 6.87362 8.48608 7.32139 8.01283C7.77128 7.53959 8.3676 7.28064 9.00212 7.28064C9.63664 7.28064 10.233 7.53959 10.6829 8.01283C10.9039 8.24472 11.0792 8.5203 11.1987 8.82372C11.3182 9.12714 11.3794 9.4524 11.3789 9.78081C11.3789 10.4483 11.1306 11.0755 10.6829 11.5488Z"
        fill="currentColor" stroke="currentColor" stroke-width="2" mask="url(#path-1-inside-1_788_57827)" />
</svg>