<svg xmlns="http://www.w3.org/2000/svg" width="24" height="24" viewBox="0 0 24 24" fill="none">
  <path d="M20.4 2H3.6C3.17565 2 2.76869 2.16857 2.46863 2.46863C2.16857 2.76869 2 3.17565 2 3.6V20.4C2 20.8243 2.16857 21.2313 2.46863 21.5314C2.76869 21.8314 3.17565 22 3.6 22H20.4C20.8243 22 21.2313 21.8314 21.5314 21.5314C21.8314 21.2313 22 20.8243 22 20.4V3.6C22 3.17565 21.8314 2.76869 21.5314 2.46863C21.2313 2.16857 20.8243 2 20.4 2ZM12.0016 18.8C11.7894 18.8 11.5859 18.7157 11.4359 18.5657C11.2859 18.4157 11.2016 18.2122 11.2016 18C11.2016 17.7878 11.2859 17.5843 11.4359 17.4343C11.5859 17.2843 11.7894 17.2 12.0016 17.2C12.2138 17.2 12.4173 17.2843 12.5673 17.4343C12.7173 17.5843 12.8016 17.7878 12.8016 18C12.8016 18.2122 12.7173 18.4157 12.5673 18.5657C12.4173 18.7157 12.2138 18.8 12.0016 18.8ZM13.9112 11.8472C13.5703 12.0615 13.2895 12.3591 13.0954 12.712C12.9012 13.0648 12.8001 13.4613 12.8016 13.864V14.8C12.8016 15.0122 12.7173 15.2157 12.5673 15.3657C12.4173 15.5157 12.2138 15.6 12.0016 15.6C11.7894 15.6 11.5859 15.5157 11.4359 15.3657C11.2859 15.2157 11.2016 15.0122 11.2016 14.8V13.864C11.2016 12.4864 11.8952 11.2264 13.0576 10.4936C13.7416 10.0616 14.2584 9.144 13.8688 8.0672C13.7734 7.80712 13.6225 7.57093 13.4266 7.37504C13.2307 7.17914 12.9945 7.02824 12.7344 6.9328C11.8456 6.6112 11.1808 6.9376 10.8624 7.1616C10.598 7.34563 10.3818 7.59056 10.232 7.87571C10.0822 8.16087 10.0031 8.47789 10.0016 8.8C10.0016 9.3264 10.2152 9.8416 10.5872 10.2144C10.7372 10.3644 10.8215 10.5679 10.8215 10.78C10.8215 10.9921 10.7372 11.1956 10.5872 11.3456C10.4372 11.4956 10.2337 11.5799 10.0216 11.5799C9.80946 11.5799 9.60601 11.4956 9.456 11.3456C8.78309 10.669 8.40421 9.75426 8.4016 8.8C8.4016 7.632 8.9784 6.5296 9.944 5.852C10.9184 5.1688 12.132 5.0144 13.2784 5.428C13.7589 5.60426 14.1952 5.88307 14.557 6.24504C14.9189 6.60701 15.1975 7.04344 15.3736 7.524C15.9632 9.1536 15.3616 10.932 13.9112 11.8472Z" fill="currentColor"/>
</svg>
