<svg width="24" height="24" viewBox="0 0 24 24" fill="none" xmlns="http://www.w3.org/2000/svg">
<path d="M10.9769 12.3684C11.8229 10.9053 13.4489 10.0421 14.3937 8.74737C15.3935 7.38947 14.8332 4.85263 11.9987 4.85263C10.1419 4.85263 9.23005 6.2 8.84552 7.31579L6 6.16842C6.78005 3.92632 8.90045 2 11.9877 2C14.5695 2 16.3384 3.12632 17.2393 4.53684C18.0083 5.74737 18.4588 8.01053 17.2722 9.69474C15.9538 11.5579 14.6904 12.1263 14.0092 13.3263C13.7345 13.8105 13.6247 14.1263 13.6247 15.6842H10.4496C10.4386 14.8632 10.3067 13.5263 10.9769 12.3684ZM14.196 19.8947C14.196 21.0526 13.2072 22 11.9987 22C10.7901 22 9.80135 21.0526 9.80135 19.8947C9.80135 18.7368 10.7901 17.7895 11.9987 17.7895C13.2072 17.7895 14.196 18.7368 14.196 19.8947Z" stroke="#ECF4FE" stroke-width="1.5" stroke-linejoin="round"/>
</svg>
