<svg width="15" height="13" viewBox="0 0 15 13" fill="none" xmlns="http://www.w3.org/2000/svg">
<path d="M8.77555 0.00241247C5.28774 -0.0943589 2.43033 2.73275 2.43033 6.22343H1.20377C0.89542 6.22343 0.74467 6.59669 0.963943 6.81097L2.87573 8.7464C3.01278 8.88464 3.2252 8.88464 3.36224 8.7464L5.27403 6.81097C5.48645 6.59669 5.3357 6.22343 5.02735 6.22343H3.80079C3.80079 3.52765 5.97982 1.3503 8.66591 1.38486C11.215 1.41942 13.3597 3.58295 13.394 6.15431C13.4283 8.85699 11.2698 11.062 8.59739 11.062C7.49417 11.062 6.47318 10.6818 5.66461 10.039C5.39052 9.82471 5.00679 9.84544 4.76011 10.0943C4.47231 10.3846 4.49287 10.8754 4.81493 11.1242C5.85648 11.9537 7.16526 12.4444 8.59739 12.4444C12.0578 12.4444 14.8604 9.56204 14.7645 6.04371C14.6754 2.80187 11.9893 0.0922716 8.77555 0.00241247ZM8.42608 3.45853C8.14514 3.45853 7.91216 3.69355 7.91216 3.97695V6.52066C7.91216 6.76258 8.04236 6.99069 8.24792 7.11511L10.3858 8.39387C10.6325 8.53903 10.9477 8.45608 11.0916 8.21415C11.2355 7.96531 11.1533 7.64735 10.9135 7.50219L8.94001 6.3202V3.97004C8.94001 3.69355 8.70703 3.45853 8.42608 3.45853Z" fill="CurrentColor"/>
</svg>
