<svg xmlns="http://www.w3.org/2000/svg" width="21" height="21" viewBox="0 0 24 24" fill="none">
<rect x="2" y="2" width="20" height="20" rx="10" fill="currentColor"/>
<path d="M12 2C6.47768 2 2 6.47768 2 12C2 17.5223 6.47768 22 12 22C17.5223 22 22 17.5223 22 12C22 6.47768 17.5223 2 12 2ZM12 20.3036C7.41518 20.3036 3.69643 16.5848 3.69643 12C3.69643 7.41518 7.41518 3.69643 12 3.69643C16.5848 3.69643 20.3036 7.41518 20.3036 12C20.3036 16.5848 16.5848 20.3036 12 20.3036Z" fill="currentColor"/>
<path d="M10.875 7.875C10.875 8.17337 10.9935 8.45952 11.2045 8.6705C11.4155 8.88147 11.7016 9 12 9C12.2984 9 12.5845 8.88147 12.7955 8.6705C13.0065 8.45952 13.125 8.17337 13.125 7.875C13.125 7.57663 13.0065 7.29048 12.7955 7.0795C12.5845 6.86853 12.2984 6.75 12 6.75C11.7016 6.75 11.4155 6.86853 11.2045 7.0795C10.9935 7.29048 10.875 7.57663 10.875 7.875ZM12.5625 10.5H11.4375C11.3344 10.5 11.25 10.5844 11.25 10.6875V17.0625C11.25 17.1656 11.3344 17.25 11.4375 17.25H12.5625C12.6656 17.25 12.75 17.1656 12.75 17.0625V10.6875C12.75 10.5844 12.6656 10.5 12.5625 10.5Z" fill="white"/>
</svg>