<svg width="23" height="20" viewBox="0 0 23 20" fill="none" xmlns="http://www.w3.org/2000/svg">
    <path d="M20.1481 4.16667H3.85185C3.29167 4.16667 2.83333 4.60417 2.83333 5.13889V14.8611C2.83333 15.3958 3.29167 15.8333 3.85185 15.8333H20.1481C20.7083 15.8333 21.1667 15.3958 21.1667 14.8611V5.13889C21.1667 4.60417 20.7083 4.16667 20.1481 4.16667ZM13.0185 6.11111H15.0556V8.05556H13.0185V6.11111ZM16.0741 9.02778V10.9722H14.037V9.02778H16.0741ZM9.96296 6.11111H12V8.05556H9.96296V6.11111ZM13.0185 9.02778V10.9722H10.9815V9.02778H13.0185ZM6.90741 6.11111H8.94444V8.05556H6.90741V6.11111ZM9.96296 9.02778V10.9722H7.92593V9.02778H9.96296ZM4.87037 6.11111H5.88889V8.05556H4.87037V6.11111ZM4.87037 9.02778H6.90741V10.9722H4.87037V9.02778ZM5.88889 13.8889H4.87037V11.9444H5.88889V13.8889ZM15.0556 13.8889H6.90741V11.9444H15.0556V13.8889ZM19.1296 13.8889H16.0741V11.9444H19.1296V13.8889ZM19.1296 10.9722H17.0926V9.02778H19.1296V10.9722ZM19.1296 8.05556H16.0741V6.11111H19.1296V8.05556Z" fill="#90A4AE"/>
    </svg>
    