<svg width="16" height="12" viewBox="0 0 16 12" fill="none" xmlns="http://www.w3.org/2000/svg">
<path d="M15.1111 0.666626H0.888889C0.4 0.666626 0 1.06663 0 1.55551V10.4444C0 10.9333 0.4 11.3333 0.888889 11.3333H15.1111C15.6 11.3333 16 10.9333 16 10.4444V1.55551C16 1.06663 15.6 0.666626 15.1111 0.666626ZM8.88889 2.4444H10.6667V4.22218H8.88889V2.4444ZM11.5556 5.11107V6.88885H9.77778V5.11107H11.5556ZM6.22222 2.4444H8V4.22218H6.22222V2.4444ZM8.88889 5.11107V6.88885H7.11111V5.11107H8.88889ZM3.55556 2.4444H5.33333V4.22218H3.55556V2.4444ZM6.22222 5.11107V6.88885H4.44444V5.11107H6.22222ZM1.77778 2.4444H2.66667V4.22218H1.77778V2.4444ZM1.77778 5.11107H3.55556V6.88885H1.77778V5.11107ZM2.66667 9.55551H1.77778V7.77774H2.66667V9.55551ZM10.6667 9.55551H3.55556V7.77774H10.6667V9.55551ZM14.2222 9.55551H11.5556V7.77774H14.2222V9.55551ZM14.2222 6.88885H12.4444V5.11107H14.2222V6.88885ZM14.2222 4.22218H11.5556V2.4444H14.2222V4.22218Z" fill="currentColor"/>
</svg>
