<svg width="24" height="24" viewBox="0 0 24 24" fill="none" xmlns="http://www.w3.org/2000/svg">
    <path fill-rule="evenodd" clip-rule="evenodd" d="M18.1365 5.86369C16.5884 4.31562 14.0785 4.31562 12.5304 5.86369L10.8638 7.53036C10.5709 7.82326 10.096 7.82326 9.8031 7.53036C9.51021 7.23747 9.51021 6.7626 9.8031 6.4697L11.4698 4.80303C13.6036 2.66917 17.0633 2.66917 19.1971 4.80303C21.331 6.93688 21.331 10.3965 19.1971 12.5304L17.5305 14.1971C17.2376 14.49 16.7627 14.49 16.4698 14.1971C16.1769 13.9042 16.1769 13.4293 16.4698 13.1364L18.1365 11.4697C19.6845 9.92167 19.6845 7.41175 18.1365 5.86369ZM14.6519 9.34833C14.9448 9.64123 14.9448 10.1161 14.6519 10.409L10.4092 14.6516C10.1163 14.9445 9.64147 14.9445 9.34857 14.6516C9.05568 14.3587 9.05568 13.8839 9.34857 13.591L13.5912 9.34833C13.8841 9.05544 14.359 9.05544 14.6519 9.34833ZM11.4697 18.1363C9.92167 19.6844 7.41175 19.6844 5.86369 18.1363C4.31562 16.5883 4.31562 14.0784 5.86369 12.5303L7.53036 10.8636C7.82326 10.5707 7.82326 10.0958 7.53036 9.80295C7.23747 9.51006 6.7626 9.51006 6.4697 9.80295L4.80303 11.4696C2.66917 13.6035 2.66917 17.0631 4.80303 19.197C6.93688 21.3309 10.3965 21.3308 12.5304 19.197L14.1971 17.5303C14.49 17.2374 14.49 16.7626 14.1971 16.4697C13.9042 16.1768 13.4293 16.1768 13.1364 16.4697L11.4697 18.1363Z" fill="currentColor"/>
    </svg>
    