<svg width="20" height="20" viewBox="0 0 20 20" fill="none" xmlns="http://www.w3.org/2000/svg">
    <path
        d="M7.5026 5.83854C7.5026 4.42188 8.58594 3.33854 10.0026 3.33854C11.4193 3.33854 12.5026 4.42188 12.5026 5.83854V7.50521H14.1693V5.83854C14.1693 3.50521 12.3359 1.67188 10.0026 1.67188C7.66927 1.67188 5.83594 3.50521 5.83594 5.83854V7.50521H7.5026V5.83854Z"
        fill="currentColor" />
    <path
        d="M14.1693 7.5H5.83594C4.41927 7.5 3.33594 8.58333 3.33594 10V15.8333C3.33594 17.25 4.41927 18.3333 5.83594 18.3333H14.1693C15.5859 18.3333 16.6693 17.25 16.6693 15.8333V10C16.6693 8.58333 15.5859 7.5 14.1693 7.5Z"
        fill="currentColor" />
</svg>