<svg xmlns="http://www.w3.org/2000/svg" width="24" height="24" viewBox="0 0 24 24" fill="currentColor">
<path d="M17.3333 9.22222H19.1111C19.3469 9.22222 19.573 9.31587 19.7397 9.48257C19.9064 9.64927 20 9.87536 20 10.1111V20.7778C20 21.0135 19.9064 21.2396 19.7397 21.4063C19.573 21.573 19.3469 21.6667 19.1111 21.6667H4.88889C4.65314 21.6667 4.42705 21.573 4.26035 21.4063C4.09365 21.2396 4 21.0135 4 20.7778V10.1111C4 9.87536 4.09365 9.64927 4.26035 9.48257C4.42705 9.31587 4.65314 9.22222 4.88889 9.22222H6.66667V8.33333C6.66667 6.91885 7.22857 5.56229 8.22876 4.5621C9.22896 3.5619 10.5855 3 12 3C13.4145 3 14.771 3.5619 15.7712 4.5621C16.7714 5.56229 17.3333 6.91885 17.3333 8.33333V9.22222ZM15.5556 9.22222V8.33333C15.5556 7.39034 15.181 6.48597 14.5142 5.81918C13.8474 5.15238 12.943 4.77778 12 4.77778C11.057 4.77778 10.1526 5.15238 9.48584 5.81918C8.81905 6.48597 8.44444 7.39034 8.44444 8.33333V9.22222H15.5556ZM11.1111 14.5556V16.3333H12.8889V14.5556H11.1111ZM7.55556 14.5556V16.3333H9.33333V14.5556H7.55556ZM14.6667 14.5556V16.3333H16.4444V14.5556H14.6667Z" fill="currentColor"/>
</svg>