<svg width="18" height="16" viewBox="0 0 18 16" fill="none" xmlns="http://www.w3.org/2000/svg">
<path d="M12.9207 0.500029C10.4901 0.508818 8.537 2.53616 8.537 4.99709V7.06252H2.05551C1.28873 7.06252 0.666626 7.6924 0.666626 8.46876V14.0938C0.666626 14.8701 1.28873 15.5 2.05551 15.5H12.2407C13.0075 15.5 13.6296 14.8701 13.6296 14.0938V8.46876C13.6296 7.6924 13.0075 7.06252 12.2407 7.06252H10.8518V4.97951C10.8518 3.81936 11.7691 2.85549 12.9149 2.84377C14.0723 2.83206 15.0185 3.7842 15.0185 4.95315V7.29689C15.0185 7.68654 15.3281 8.00001 15.7129 8.00001H16.6388C17.0237 8.00001 17.3333 7.68654 17.3333 7.29689V4.95315C17.3333 2.49221 15.3512 0.49124 12.9207 0.500029Z" fill="currentColor"/>
</svg>
