<svg width="20" height="20" viewBox="0 0 20 20" fill="none" xmlns="http://www.w3.org/2000/svg">
    <path
        d="M5.83594 7.5H14.1693C14.8323 7.5 15.4682 7.76339 15.937 8.23223C16.4059 8.70107 16.6693 9.33696 16.6693 10V15.8333C16.6693 16.4964 16.4059 17.1323 15.937 17.6011C15.4682 18.0699 14.8323 18.3333 14.1693 18.3333H5.83594C5.1729 18.3333 4.53701 18.0699 4.06817 17.6011C3.59933 17.1323 3.33594 16.4964 3.33594 15.8333V10C3.33594 9.33696 3.59933 8.70107 4.06817 8.23223C4.53701 7.76339 5.1729 7.5 5.83594 7.5Z"
        fill="currentColor" />
    <path
        d="M7.5026 5.83864C7.50284 5.34484 7.64921 4.86214 7.92328 4.45138C8.19735 4.04061 8.58686 3.72014 9.04273 3.53034C9.49861 3.34054 10.0005 3.2899 10.4851 3.3848C10.9697 3.47971 11.4153 3.7159 11.7659 4.06364C12.0809 4.38281 12.3076 4.77864 12.4209 5.21281L12.4226 5.21864C12.4843 5.42577 12.624 5.60083 12.8123 5.70689C13.0006 5.81296 13.2227 5.84172 13.4318 5.78713C13.6409 5.73253 13.8206 5.59883 13.933 5.41425C14.0454 5.22967 14.0817 5.00864 14.0343 4.79781C13.8458 4.07627 13.4704 3.41717 12.9459 2.88697C12.3624 2.30575 11.6198 1.91041 10.8118 1.75085C10.0039 1.59129 9.16671 1.67466 8.40607 1.99044C7.64542 2.30622 6.99536 2.84025 6.53795 3.52513C6.08053 4.21001 5.83625 5.01505 5.83594 5.83864V7.50531H7.5026V5.83864Z"
        fill="currentColor" />
</svg>