<svg xmlns="http://www.w3.org/2000/svg" width="27" height="24" viewBox="0 0 27 24" fill="none">
<rect x="2.31592" y="1.5" width="22.6327" height="21" rx="2.5" stroke="#5E6781"/>
<path d="M16.7982 7.40352L14.7936 17.5965C14.7475 17.8309 14.5419 18 14.303 18H13.0918L14.7142 21H22.3673C22.9196 21 23.3673 20.5523 23.3673 20V4C23.3673 3.44772 22.9196 3 22.3673 3H21.5021C21.3185 3 21.1496 3.10064 21.0623 3.26215L19.1825 6.73785C19.0952 6.89936 18.9264 7 18.7427 7H17.2888C17.0498 7 16.8443 7.16906 16.7982 7.40352Z" fill="#01BC8D"/>
<path d="M3.89795 9V20C3.89795 20.5523 4.34567 21 4.89795 21H14.7143L13.0918 18H11.8328C11.6161 18 11.4241 17.8604 11.3572 17.6543L8.33665 8.34568C8.26977 8.13957 8.07774 8 7.86106 8H4.89795C4.34566 8 3.89795 8.44772 3.89795 9Z" fill="#E84830"/>
</svg>