<svg xmlns="http://www.w3.org/2000/svg" width="27" height="24" viewBox="0 0 27 24" fill="none">
<path fill-rule="evenodd" clip-rule="evenodd" d="M5.74487 20C5.46873 20 5.24487 19.7761 5.24487 19.5V13.5C5.24487 13.2239 5.46873 13 5.74487 13H9.07141C9.34755 13 9.57141 13.2239 9.57141 13.5V19.5C9.57141 19.7761 9.34755 20 9.07141 20H5.74487ZM12.2347 20C11.9585 20 11.7347 19.7761 11.7347 19.5V13.5C11.7347 13.2239 11.9585 13 12.2347 13H15.5612C15.8373 13 16.0612 13.2239 16.0612 13.5V19.5C16.0612 19.7761 15.8373 20 15.5612 20H12.2347ZM18.7245 13C18.4483 13 18.2245 13.2239 18.2245 13.5V19.5C18.2245 19.7761 18.4483 20 18.7245 20H22.051C22.3271 20 22.551 19.7761 22.551 19.5V13.5C22.551 13.2239 22.3271 13 22.051 13H18.7245Z" fill="#5E6781"/>
<path d="M14.9797 4.5C14.9797 4.22386 15.2036 4 15.4797 4H22.0512C22.3273 4 22.5512 4.22386 22.5512 4.5V10.5C22.5512 10.7761 22.3273 11 22.0512 11H15.4797C15.2036 11 14.9797 10.7761 14.9797 10.5V4.5Z" fill="#01BC8D"/>
<path d="M5.24487 4.5C5.24487 4.22386 5.46873 4 5.74487 4H12.3163C12.5924 4 12.8163 4.22386 12.8163 4.5V10.5C12.8163 10.7761 12.5924 11 12.3163 11H5.74487C5.46873 11 5.24487 10.7761 5.24487 10.5V4.5Z" fill="#E84830"/>
<rect x="2.58179" y="1.5" width="22.6327" height="21" rx="2.5" stroke="#5E6781"/>
</svg>