<svg xmlns="http://www.w3.org/2000/svg" width="27" height="24" viewBox="0 0 27 24" fill="none">
<path d="M4.63257 4.5C4.63257 4.22386 4.85643 4 5.13257 4H11.704C11.9801 4 12.204 4.22386 12.204 4.5V10.5C12.204 10.7761 11.9801 11 11.704 11H5.13257C4.85643 11 4.63257 10.7761 4.63257 10.5V4.5Z" fill="#E84830"/>
<path d="M4.63257 13.5C4.63257 13.2239 4.85643 13 5.13257 13H11.704C11.9801 13 12.204 13.2239 12.204 13.5V19.5C12.204 19.7761 11.9801 20 11.704 20H5.13257C4.85643 20 4.63257 19.7761 4.63257 19.5V13.5Z" fill="#01BC8D"/>
<path fill-rule="evenodd" clip-rule="evenodd" d="M14.3674 4.5C14.3674 4.22386 14.5913 4 14.8674 4H21.4389C21.715 4 21.9389 4.22386 21.9389 4.5V7.5C21.9389 7.77614 21.715 8 21.4389 8H14.8674C14.5913 8 14.3674 7.77614 14.3674 7.5V4.5ZM14.3674 10.5C14.3674 10.2239 14.5913 10 14.8674 10H21.4389C21.715 10 21.9389 10.2239 21.9389 10.5V13.5C21.9389 13.7761 21.715 14 21.4389 14H14.8674C14.5913 14 14.3674 13.7761 14.3674 13.5V10.5ZM21.9389 16.5C21.9389 16.2239 21.715 16 21.4389 16H14.8674C14.5913 16 14.3674 16.2239 14.3674 16.5V19.5C14.3674 19.7761 14.5913 20 14.8674 20H21.4389C21.715 20 21.9389 19.7761 21.9389 19.5V16.5Z" fill="#5E6781"/>
<rect x="1.96948" y="1.5" width="22.6327" height="21" rx="2.5" stroke="#5E6781"/>
</svg>