<svg width="25" height="24" viewBox="0 0 25 24" fill="none" xmlns="http://www.w3.org/2000/svg">
<path fill-rule="evenodd" clip-rule="evenodd" d="M6.33301 2C4.12387 2 2.33301 3.79086 2.33301 6V18C2.33301 20.2091 4.12387 22 6.33301 22H18.333C20.5421 22 22.333 20.2091 22.333 18V6C22.333 3.79086 20.5421 2 18.333 2H6.33301ZM8.33301 11.25C7.91879 11.25 7.58301 11.5858 7.58301 12C7.58301 12.4142 7.91879 12.75 8.33301 12.75H16.333C16.7472 12.75 17.083 12.4142 17.083 12C17.083 11.5858 16.7472 11.25 16.333 11.25H8.33301Z" fill="currentcolor"/>
</svg>
