<svg width="22" height="20" viewBox="0 0 22 20" fill="none" xmlns="http://www.w3.org/2000/svg">
    <path
        d="M1.31254 0.715942C1.13989 0.715942 1 0.859752 1 1.03722V14.973C1 15.1505 1.13989 15.2943 1.31254 15.2943H10.6874V18.6447H7.13117C6.70858 18.6384 6.70858 19.2935 7.13117 19.2873H14.8836C15.3062 19.2937 15.3062 18.6388 14.8836 18.6447H11.3126V15.2943H20.6875C20.8601 15.2943 21 15.1505 21 14.973V1.03722C21 0.859752 20.8601 0.715942 20.6875 0.715942H1.31254ZM1.62507 1.35853H20.3749V14.6518C14.1195 14.6472 7.87946 14.6518 1.62507 14.6518V1.35853ZM8.11359 3.72185C7.9923 3.71886 7.8803 3.78838 7.82624 3.90012L5.99268 7.68399H4.25118C3.82859 7.67762 3.82859 8.33254 4.25118 8.32658H6.18549C6.30407 8.32658 6.41257 8.25766 6.46547 8.14831L8.00836 4.96439L9.72545 12.0006C9.75025 12.3603 10.2439 12.4115 10.3383 12.0641L10.3391 12.0608C10.3402 12.0564 10.3414 12.052 10.3424 12.0474L10.3431 12.0446L10.3464 12.0295L11.961 5.36704L13.5911 12.0453C13.6619 12.3345 14.0441 12.3773 14.1738 12.1106L16.0073 8.32594H17.7488C18.1714 8.33192 18.1714 7.67739 17.7488 7.68335H15.8145C15.6959 7.68335 15.5874 7.75227 15.5345 7.86162L13.9917 11.0455L12.2631 3.96496C12.229 3.82473 12.1083 3.72514 11.9676 3.72156C11.8213 3.71797 11.6921 3.81896 11.6568 3.96496L10.0389 10.6422L8.40885 3.96496C8.37475 3.82473 8.25426 3.72543 8.11359 3.72185Z"
        fill="currentColor" stroke="currentColor" stroke-linejoin="round" />
</svg>