<svg xmlns="http://www.w3.org/2000/svg" width="22" height="22" viewBox="0 0 22 22" fill="currentColor">
  <path d="M17.8488 16.3304C16.2568 16.3124 14.7134 15.7798 13.4491 14.8122C12.1847 13.8445 11.2675 12.4938 10.8343 10.9617C10.4011 9.4297 10.4752 7.79862 11.0456 6.31219C11.6159 4.82577 12.652 3.56379 13.9988 2.71481C13.3183 2.5379 12.6181 2.44756 11.9149 2.44592C9.64586 2.44592 7.46972 3.34731 5.86524 4.95179C4.26076 6.55626 3.35938 8.7324 3.35938 11.0015C3.35938 13.2706 4.26076 15.4467 5.86524 17.0512C7.46972 18.6556 9.64586 19.557 11.9149 19.557C13.2004 19.5559 14.4686 19.2613 15.6229 18.6958C16.7773 18.1303 17.7873 17.3087 18.576 16.2937C18.3344 16.3183 18.0917 16.3305 17.8488 16.3304Z" fill="currentColor"/>
</svg>