<svg width="20" height="20" viewBox="0 0 20 20" fill="none" xmlns="http://www.w3.org/2000/svg">
    <path d="M10.0013 1.66797C5.4013 1.66797 1.66797 5.4013 1.66797 10.0013C1.66797 14.6013 5.4013 18.3346 10.0013 18.3346C14.6013 18.3346 18.3346 14.6013 18.3346 10.0013C18.3346 5.4013 14.6013 1.66797 10.0013 1.66797ZM10.0013 14.168C9.54297 14.168 9.16797 13.793 9.16797 13.3346V10.0013C9.16797 9.54297 9.54297 9.16797 10.0013 9.16797C10.4596 9.16797 10.8346 9.54297 10.8346 10.0013V13.3346C10.8346 13.793 10.4596 14.168 10.0013 14.168ZM10.8346 7.5013H9.16797V5.83464H10.8346V7.5013Z" fill="currentColor"/>
    </svg>
    