<svg width="14" height="14" viewBox="0 0 14 14" fill="none" xmlns="http://www.w3.org/2000/svg">
    <path fill-rule="evenodd" clip-rule="evenodd" d="M6.99992 13.6668C10.6818 13.6668 13.6666 10.6821 13.6666 7.00016C13.6666 3.31826 10.6818 0.333496 6.99992 0.333496C3.31802 0.333496 0.333252 3.31826 0.333252 7.00016C0.333252 10.6821 3.31802 13.6668 6.99992 13.6668ZM7.49992 4.3335C7.49992 4.05735 7.27606 3.8335 6.99992 3.8335C6.72378 3.8335 6.49992 4.05735 6.49992 4.3335V5.00016C6.49992 5.27631 6.72378 5.50016 6.99992 5.50016C7.27606 5.50016 7.49992 5.27631 7.49992 5.00016V4.3335ZM7.49992 6.66683C7.49992 6.39069 7.27606 6.16683 6.99992 6.16683C6.72378 6.16683 6.49992 6.39069 6.49992 6.66683V9.66683C6.49992 9.94297 6.72378 10.1668 6.99992 10.1668C7.27606 10.1668 7.49992 9.94297 7.49992 9.66683V6.66683Z" fill="currentColor"/>
    </svg>
    