<svg width="10" height="4" viewBox="0 0 10 4" fill="none" xmlns="http://www.w3.org/2000/svg">
<path d="M1.25 0.75C0.5625 0.75 0 1.3125 0 2C0 2.6875 0.5625 3.25 1.25 3.25C1.9375 3.25 2.5 2.6875 2.5 2C2.5 1.3125 1.9375 0.75 1.25 0.75ZM8.75 0.75C8.0625 0.75 7.5 1.3125 7.5 2C7.5 2.6875 8.0625 3.25 8.75 3.25C9.4375 3.25 10 2.6875 10 2C10 1.3125 9.4375 0.75 8.75 0.75ZM5 0.75C4.3125 0.75 3.75 1.3125 3.75 2C3.75 2.6875 4.3125 3.25 5 3.25C5.6875 3.25 6.25 2.6875 6.25 2C6.25 1.3125 5.6875 0.75 5 0.75Z" fill="currentColor"/>
</svg>
