<svg width="24" height="24" viewBox="0 0 24 24" fill="none" xmlns="http://www.w3.org/2000/svg">
<path fill-rule="evenodd" clip-rule="evenodd" d="M18 4.84643V6.13571C17.9995 6.59381 17.846 7.0354 17.5693 7.375L11.6679 14.5857C11.6059 14.6622 11.5716 14.7614 11.5714 14.8643V18.3571C11.5714 18.8307 11.4021 19.2849 11.1007 19.6198C10.7993 19.9547 10.3905 20.1429 9.96429 20.1429H8.09036C7.64989 20.1419 7.2277 19.9471 6.91624 19.601C6.60477 19.2549 6.42942 18.7858 6.42857 18.2964V14.8643C6.42839 14.7614 6.39405 14.6622 6.33214 14.5857L0.430714 7.375C0.154001 7.0354 0.000526283 6.59381 0 6.13571V4.84643C0.000849514 4.35702 0.176203 3.88792 0.487664 3.54185C0.799125 3.19578 1.22131 3.00094 1.66179 3H16.3382C16.7787 3.00094 17.2009 3.19578 17.5123 3.54185C17.8238 3.88792 17.9992 4.35702 18 4.84643ZM6.54107 9.67143C6.60366 9.6082 6.65441 9.53186 6.69039 9.44679C6.72638 9.36173 6.74691 9.26961 6.75079 9.17571C6.75467 9.08181 6.74183 8.98799 6.71302 8.89962C6.6842 8.81124 6.63997 8.73006 6.58286 8.66071L5.29714 7.08929C5.24016 7.01893 5.17126 6.96174 5.09439 6.92098C5.01751 6.88021 4.93416 6.85667 4.84909 6.85169C4.76403 6.84672 4.67891 6.86041 4.59861 6.89199C4.51831 6.92356 4.44439 6.9724 4.38107 7.03571C4.31776 7.09903 4.26628 7.17558 4.22959 7.261C4.1929 7.34642 4.17172 7.43903 4.16724 7.53355C4.16276 7.62806 4.17508 7.72264 4.2035 7.81186C4.23192 7.90109 4.27587 7.98322 4.33286 8.05357L5.61857 9.625C5.67548 9.69455 5.74418 9.75093 5.82074 9.79092C5.8973 9.8309 5.98021 9.8537 6.06472 9.85802C6.14923 9.86233 6.23367 9.84807 6.3132 9.81605C6.39274 9.78403 6.46581 9.73489 6.52821 9.67143H6.54107Z" fill="currentColor"/>
<path d="M19.5 15C20.0523 15 20.5 15.4477 20.5 16V18.5H23C23.5523 18.5 24 18.9477 24 19.5C24 20.0523 23.5523 20.5 23 20.5H20.5V23C20.5 23.5523 20.0523 24 19.5 24C18.9477 24 18.5 23.5523 18.5 23V20.5H16C15.4477 20.5 15 20.0523 15 19.5C15 18.9477 15.4477 18.5 16 18.5H18.5V16C18.5 15.4477 18.9477 15 19.5 15Z" fill="currentColor"/>
</svg>
