<svg width="24" height="24" viewBox="0 0 24 24" fill="none" xmlns="http://www.w3.org/2000/svg">
<path fill-rule="evenodd" clip-rule="evenodd" d="M18 6.13571V4.84643C17.9992 4.35702 17.8238 3.88792 17.5123 3.54185C17.2009 3.19578 16.7787 3.00094 16.3382 3H1.66179C1.22131 3.00094 0.799125 3.19578 0.487664 3.54185C0.176203 3.88792 0.000849514 4.35702 0 4.84643V6.13571C0.000526283 6.59381 0.154001 7.0354 0.430714 7.375L6.33214 14.5857C6.39405 14.6622 6.42839 14.7614 6.42857 14.8643V18.2964C6.42942 18.7858 6.60477 19.2549 6.91624 19.601C7.2277 19.9471 7.64989 20.1419 8.09036 20.1429H9.96429C10.3905 20.1429 10.7993 19.9547 11.1007 19.6198C11.4021 19.2849 11.5714 18.8307 11.5714 18.3571V14.8643C11.5716 14.7614 11.6059 14.6622 11.6679 14.5857L17.5693 7.375C17.846 7.0354 17.9995 6.59381 18 6.13571ZM6.69039 9.44679C6.65441 9.53186 6.60366 9.6082 6.54107 9.67143H6.52821C6.46581 9.73489 6.39274 9.78403 6.3132 9.81605C6.23367 9.84807 6.14923 9.86233 6.06472 9.85802C5.98021 9.8537 5.8973 9.8309 5.82074 9.79092C5.74418 9.75093 5.67548 9.69455 5.61857 9.625L4.33286 8.05357C4.27587 7.98322 4.23192 7.90109 4.2035 7.81186C4.17508 7.72264 4.16276 7.62806 4.16724 7.53355C4.17172 7.43903 4.1929 7.34642 4.22959 7.261C4.26628 7.17558 4.31776 7.09903 4.38107 7.03571C4.44439 6.9724 4.51831 6.92356 4.59861 6.89199C4.67891 6.86041 4.76403 6.84672 4.84909 6.85169C4.93416 6.85667 5.01751 6.88021 5.09439 6.92098C5.17126 6.96174 5.24016 7.01893 5.29714 7.08929L6.58286 8.66071C6.63997 8.73006 6.6842 8.81124 6.71302 8.89962C6.74183 8.98799 6.75467 9.08181 6.75079 9.17571C6.74691 9.26961 6.72638 9.36173 6.69039 9.44679Z" fill="currentColor"/>
<path d="M16 18.5C15.4477 18.5 15 18.9477 15 19.5C15 20.0523 15.4477 20.5 16 20.5H23C23.5523 20.5 24 20.0523 24 19.5C24 18.9477 23.5523 18.5 23 18.5H16Z" fill="currentColor"/>
</svg>