<svg width="1.5rem" height="1.5rem" viewBox="0 0 48 48" fill="none" xmlns="http://www.w3.org/2000/svg">
	<path d="M6.56018 4.44C6.27583 4.17504 5.89974 4.03079 5.51114 4.03765C5.12253 4.04451 4.75176 4.20193 4.47694 4.47676C4.20211 4.75158 4.04469 5.12235 4.03783 5.51095C4.03097 5.89956 4.17522 6.27565 4.44018 6.56L8.00018 10.12V22.5C8.00018 22.8978 8.15822 23.2794 8.43952 23.5607C8.72083 23.842 9.10236 24 9.50018 24C9.89801 24 10.2795 23.842 10.5608 23.5607C10.8421 23.2794 11.0002 22.8978 11.0002 22.5V13.12L37.0002 39.12V40C37.0002 40.2652 36.8948 40.5196 36.7073 40.7071C36.5198 40.8946 36.2654 41 36.0002 41H33.5002C33.1024 41 32.7208 41.158 32.4395 41.4393C32.1582 41.7206 32.0002 42.1022 32.0002 42.5C32.0002 42.8978 32.1582 43.2794 32.4395 43.5607C32.7208 43.842 33.1024 44 33.5002 44H36.0002C36.7544 44.0003 37.4934 43.7873 38.1318 43.3857C38.7701 42.984 39.282 42.41 39.6082 41.73L41.4402 43.56C41.7245 43.825 42.1006 43.9692 42.4892 43.9623C42.8778 43.9555 43.2486 43.7981 43.5234 43.5232C43.7983 43.2484 43.9557 42.8776 43.9625 42.489C43.9694 42.1004 43.8251 41.7243 43.5602 41.44L39.5882 37.466C39.5706 37.4483 39.5526 37.4309 39.5342 37.414L6.56018 4.44ZM24.0002 16C24.0002 16.986 24.3582 17.888 24.9502 18.586L25.4142 19.05C26.1122 19.642 27.0142 20 28.0002 20H37.0002V22.5C37.0002 22.8978 37.1582 23.2794 37.4395 23.5607C37.7208 23.842 38.1024 24 38.5002 24C38.898 24 39.2795 23.842 39.5608 23.5607C39.8421 23.2794 40.0002 22.8978 40.0002 22.5V19.5C39.9597 18.4936 39.5412 17.5394 38.8282 16.828L27.1702 5.172C27.1398 5.1426 27.1071 5.11584 27.0722 5.092L27.0002 5.032C26.8626 4.90215 26.7162 4.78187 26.5622 4.672C26.511 4.63891 26.4575 4.60951 26.4022 4.584L26.3062 4.536L26.2062 4.478C26.0982 4.416 25.9902 4.352 25.8742 4.304C25.4759 4.14493 25.0544 4.05171 24.6262 4.028C24.5866 4.02542 24.5472 4.02075 24.5082 4.014C24.4539 4.00562 24.3991 4.00094 24.3442 4H12.0002C11.5122 4 11.0442 4.088 10.6122 4.248L13.3642 7H24.0002V16ZM27.0002 9.242L34.7562 17H28.0002C27.735 17 27.4806 16.8946 27.2931 16.7071C27.1055 16.5196 27.0002 16.2652 27.0002 16V9.242ZM37.0002 30.638L39.7222 33.358C39.9038 33.105 40.0017 32.8015 40.0022 32.49V27.5C40.0022 27.1022 39.8441 26.7206 39.5628 26.4393C39.2815 26.158 38.9 26 38.5022 26C38.1044 26 37.7228 26.158 37.4415 26.4393C37.1602 26.7206 37.0022 27.1022 37.0022 27.5V30.638H37.0002ZM9.50018 25.998C9.89801 25.998 10.2795 26.156 10.5608 26.4373C10.8421 26.7186 11.0002 27.1002 11.0002 27.498V32.49C11.0002 32.8878 10.8421 33.2694 10.5608 33.5507C10.2795 33.832 9.89801 33.99 9.50018 33.99C9.10236 33.99 8.72083 33.832 8.43952 33.5507C8.15822 33.2694 8.00018 32.8878 8.00018 32.49V27.5C8.00018 27.1022 8.15822 26.7206 8.43952 26.4393C8.72083 26.158 9.10236 26 9.50018 26V25.998ZM20.5002 40.998C20.1024 40.998 19.7208 41.156 19.4395 41.4373C19.1582 41.7186 19.0002 42.1002 19.0002 42.498C19.0002 42.8958 19.1582 43.2774 19.4395 43.5587C19.7208 43.84 20.1024 43.998 20.5002 43.998H27.5002C27.898 43.998 28.2795 43.84 28.5608 43.5587C28.8421 43.2774 29.0002 42.8958 29.0002 42.498C29.0002 42.1002 28.8421 41.7186 28.5608 41.4373C28.2795 41.156 27.898 40.998 27.5002 40.998H20.5002ZM9.50018 36.998C9.89801 36.998 10.2795 37.156 10.5608 37.4373C10.8421 37.7186 11.0002 38.1002 11.0002 38.498V40C11.0002 40.2652 11.1055 40.5196 11.2931 40.7071C11.4806 40.8946 11.735 41 12.0002 41H14.5002C14.898 41 15.2795 41.158 15.5608 41.4393C15.8421 41.7206 16.0002 42.1022 16.0002 42.5C16.0002 42.8978 15.8421 43.2794 15.5608 43.5607C15.2795 43.842 14.898 44 14.5002 44H12.0002C10.9393 44 9.9219 43.5786 9.17175 42.8284C8.42161 42.0783 8.00018 41.0609 8.00018 40V38.5C8.00018 38.1022 8.15822 37.7206 8.43952 37.4393C8.72083 37.158 9.10236 37 9.50018 37V36.998Z" fill="currentColor" />
</svg>