<svg xmlns="http://www.w3.org/2000/svg" width="24" height="24" viewBox="0 0 24 24" fill="currentColor">
<path d="M11.9184 6.52665H10.6265C10.5592 6.52665 10.5041 6.58186 10.5041 6.64935V13.6064H10.3878L5.57959 6.57982C5.55714 6.5471 5.51837 6.52665 5.47959 6.52665H4.12245C4.0551 6.52665 4 6.58186 4 6.64935V16.1381C4 16.2056 4.0551 16.2608 4.12245 16.2608H5.40204C5.46939 16.2608 5.52449 16.2056 5.52449 16.1381V9.08493H5.64082L10.502 16.2076C10.5245 16.2404 10.5633 16.2608 10.6041 16.2608H11.9184C11.9857 16.2608 12.0408 16.2056 12.0408 16.1381V6.64935C12.0408 6.58186 11.9857 6.52665 11.9184 6.52665ZM19.6327 14.9725H13.4286C13.3388 14.9725 13.2653 15.0461 13.2653 15.1361V16.1177C13.2653 16.2076 13.3388 16.2812 13.4286 16.2812H19.6327C19.7224 16.2812 19.7959 16.2076 19.7959 16.1177V15.1361C19.7959 15.0461 19.7224 14.9725 19.6327 14.9725ZM16.5265 13.6841C17.6061 13.6841 18.4694 13.3324 19.102 12.6269C19.702 11.9541 20 11.0768 20 9.99291C20 8.90702 19.702 8.01949 19.102 7.34873C18.4714 6.63708 17.6082 6.28125 16.5265 6.28125C15.4306 6.28125 14.5694 6.63912 13.949 7.361C13.3531 8.0379 13.0633 8.91315 13.0633 9.99291C13.0633 11.0645 13.3551 11.9397 13.951 12.6166C14.5755 13.3262 15.4408 13.6841 16.5265 13.6841ZM15.0673 8.29147C15.4122 7.87021 15.8898 7.65957 16.5245 7.65957C17.1673 7.65957 17.6429 7.85589 17.9735 8.25467C18.3082 8.6698 18.4816 9.24853 18.4816 9.99086C18.4816 10.7332 18.3102 11.3017 17.9755 11.7066C17.6388 12.1033 17.1592 12.3037 16.5245 12.3037C15.8878 12.3037 15.402 12.0931 15.0673 11.6821C14.7347 11.271 14.5673 10.7148 14.5673 9.99291C14.5694 9.2608 14.7347 8.70456 15.0673 8.29147Z" fill="currentColor" stroke="currentColor"/>
</svg>