<svg width="69" height="65" viewBox="0 0 69 65" fill="none" xmlns="http://www.w3.org/2000/svg">
<g filter="url(#filter0_d_4854_75275)">
<path d="M40 23.8464V25.1357C39.9995 25.5938 39.846 26.0354 39.5693 26.375L33.6679 33.5857C33.6059 33.6622 33.5716 33.7614 33.5714 33.8643V37.3571C33.5714 37.8307 33.4021 38.2849 33.1007 38.6198C32.7993 38.9547 32.3905 39.1429 31.9643 39.1429H30.0904C29.6499 39.1419 29.2277 38.9471 28.9162 38.601C28.6048 38.2549 28.4294 37.7858 28.4286 37.2964V33.8643C28.4284 33.7614 28.3941 33.6622 28.3321 33.5857L22.4307 26.375C22.154 26.0354 22.0005 25.5938 22 25.1357V23.8464C22.0008 23.357 22.1762 22.8879 22.4877 22.5418C22.7991 22.1958 23.2213 22.0009 23.6618 22H38.3382C38.7787 22.0009 39.2009 22.1958 39.5123 22.5418C39.8238 22.8879 39.9992 23.357 40 23.8464ZM28.5411 28.6714C28.6037 28.6082 28.6544 28.5319 28.6904 28.4468C28.7264 28.3617 28.7469 28.2696 28.7508 28.1757C28.7547 28.0818 28.7418 27.988 28.713 27.8996C28.6842 27.8112 28.64 27.7301 28.5829 27.6607L27.2971 26.0893C27.2402 26.0189 27.1713 25.9617 27.0944 25.921C27.0175 25.8802 26.9342 25.8567 26.8491 25.8517C26.764 25.8467 26.6789 25.8604 26.5986 25.892C26.5183 25.9236 26.4444 25.9724 26.3811 26.0357C26.3178 26.099 26.2663 26.1756 26.2296 26.261C26.1929 26.3464 26.1717 26.439 26.1672 26.5335C26.1628 26.6281 26.1751 26.7226 26.2035 26.8119C26.2319 26.9011 26.2759 26.9832 26.3329 27.0536L27.6186 28.625C27.6755 28.6945 27.7442 28.7509 27.8207 28.7909C27.8973 28.8309 27.9802 28.8537 28.0647 28.858C28.1492 28.8623 28.2337 28.8481 28.3132 28.8161C28.3927 28.784 28.4658 28.7349 28.5282 28.6714H28.5411Z" fill="currentColor"/>
<path d="M42 35V42" stroke="#5E6781" stroke-width="2" stroke-linecap="round" stroke-linejoin="round"/>
<path d="M38.5 38.5H45.5" stroke="#5E6781" stroke-width="2" stroke-linecap="round" stroke-linejoin="round"/>
</g>
<defs>
<filter id="filter0_d_4854_75275" x="-8" y="-11" width="84" height="84" filterUnits="userSpaceOnUse" color-interpolation-filters="sRGB">
<feFlood flood-opacity="0" result="BackgroundImageFix"/>
<feColorMatrix in="SourceAlpha" type="matrix" values="0 0 0 0 0 0 0 0 0 0 0 0 0 0 0 0 0 0 127 0" result="hardAlpha"/>
<feOffset/>
<feGaussianBlur stdDeviation="11"/>
<feComposite in2="hardAlpha" operator="out"/>
<feColorMatrix type="matrix" values="0 0 0 0 0 0 0 0 0 0 0 0 0 0 0 0 0 0 0.05 0"/>
<feBlend mode="normal" in2="BackgroundImageFix" result="effect1_dropShadow_4854_75275"/>
<feBlend mode="normal" in="SourceGraphic" in2="effect1_dropShadow_4854_75275" result="shape"/>
</filter>
</defs>
</svg>
