<svg width="24" height="20" viewBox="0 0 24 20" fill="none" xmlns="http://www.w3.org/2000/svg">
    <path fill-rule="evenodd" clip-rule="evenodd" d="M2.89551 0C1.79094 0 0.895508 0.895431 0.895508 2V6C0.895508 7.10457 1.79094 8 2.89551 8H9.72884C10.8334 8 11.7288 7.10457 11.7288 6V2C11.7288 0.895431 10.8334 0 9.72884 0H2.89551ZM13.7288 12C12.6243 12 11.7288 12.8954 11.7288 14V18C11.7288 19.1046 12.6243 20 13.7288 20H20.5622C21.6667 20 22.5622 19.1046 22.5622 18V14C22.5622 12.8954 21.6667 12 20.5622 12H13.7288ZM21.0494 4.75L20.2697 5.46967C19.9524 5.76256 19.9524 6.23744 20.2697 6.53033C20.587 6.82322 21.1015 6.82322 21.4188 6.53033L22.8194 5.23744C23.5598 4.55402 23.5598 3.44598 22.8194 2.76256L21.4188 1.46967C21.1015 1.17678 20.587 1.17678 20.2697 1.46967C19.9524 1.76256 19.9524 2.23744 20.2697 2.53033L21.0494 3.25H16.0622C15.6134 3.25 15.2497 3.58579 15.2497 4C15.2497 4.41421 15.6134 4.75 16.0622 4.75H21.0494ZM3.18797 17.4697L2.40833 16.75H7.39551C7.84424 16.75 8.20801 16.4142 8.20801 16C8.20801 15.5858 7.84424 15.25 7.39551 15.25H2.40833L3.18797 14.5303C3.50527 14.2374 3.50527 13.7626 3.18797 13.4697C2.87067 13.1768 2.35622 13.1768 2.03892 13.4697L0.638284 14.7626C-0.102085 15.446 -0.102083 16.554 0.638285 17.2374L2.03892 18.5303C2.35622 18.8232 2.87067 18.8232 3.18797 18.5303C3.50527 18.2374 3.50527 17.7626 3.18797 17.4697Z" fill="#F0F6FF"/>
</svg>
    