<svg width="20" height="20" viewBox="0 0 20 20" fill="none" xmlns="http://www.w3.org/2000/svg">
<path d="M4.94689 12.1039H10.0827C10.4272 11.4294 10.9333 10.8508 11.5561 10.4199H4.94686C4.71429 10.4199 4.52577 10.2315 4.52577 9.9989C4.52577 9.76632 4.71429 9.57794 4.94686 9.57794H11.6824C11.794 9.57794 11.9012 9.62228 11.98 9.70128C12.059 9.78013 12.1033 9.88731 12.1033 9.99891C12.1051 10.03 12.1023 10.0613 12.095 10.0916C12.5964 9.84003 13.1376 9.67763 13.6946 9.61154C13.8647 9.58688 14.0364 9.57572 14.2082 9.57792C14.3489 9.57763 14.4895 9.58614 14.6292 9.60317V4.105C14.6292 3.54672 14.4074 3.01138 14.0127 2.61654C13.618 2.22185 13.0825 2 12.5243 2H4.10486C3.54662 2 3.01131 2.22186 2.6165 2.61654C2.22184 3.01138 2 3.54672 2 4.105V13.367C2 13.9253 2.22185 14.4606 2.6165 14.8554C3.01131 15.2501 3.54662 15.472 4.10486 15.472H9.75415C9.68632 15.2263 9.63845 14.9758 9.611 14.7225C9.58633 14.5525 9.57517 14.3807 9.57737 14.2089C9.5759 13.7816 9.63537 13.3564 9.75415 12.9458H4.9468C4.71423 12.9458 4.52572 12.7574 4.52572 12.5249C4.52572 12.2924 4.71433 12.1039 4.94689 12.1039ZM4.94689 4.52591H11.6824C11.9149 4.52591 12.1034 4.71444 12.1034 4.94702C12.1034 5.17946 11.9149 5.36798 11.6824 5.36798H4.94689C4.71432 5.36798 4.52581 5.17945 4.52581 4.94702C4.52581 4.71444 4.71433 4.52591 4.94689 4.52591ZM4.94689 7.05187H11.6824C11.9149 7.05187 12.1034 7.2404 12.1034 7.47298C12.1034 7.70541 11.9149 7.89394 11.6824 7.89394H4.94689C4.71432 7.89394 4.52581 7.70541 4.52581 7.47298C4.52581 7.24039 4.71433 7.05187 4.94689 7.05187ZM14.6292 10.4452C14.3497 10.4115 14.0669 10.4115 13.7874 10.4452C12.8615 10.5487 12.0062 10.9898 11.3849 11.684C10.7637 12.3784 10.42 13.2773 10.4195 14.2089C10.4194 14.3496 10.4277 14.4903 10.4448 14.6299C10.4744 14.9175 10.5395 15.2003 10.6384 15.472C10.9402 16.3271 11.5386 17.0456 12.325 17.4971C13.1114 17.9486 14.0337 18.1029 14.9242 17.9323C15.8148 17.7617 16.6146 17.2773 17.1785 16.5671C17.7423 15.8568 18.0328 14.968 17.9971 14.0619C17.9614 13.1557 17.6019 12.2924 16.984 11.6288C16.366 10.9652 15.5304 10.5453 14.6292 10.4452ZM14.6292 14.209C14.6292 14.3206 14.5849 14.4278 14.5059 14.5066C14.4271 14.5856 14.3199 14.6299 14.2083 14.6299H12.9875C12.7551 14.6299 12.5665 14.4416 12.5665 14.209C12.5665 13.9764 12.7551 13.788 12.9875 13.788H13.7874V12.5249C13.7874 12.2925 13.9757 12.104 14.2083 12.104C14.4409 12.104 14.6292 12.2925 14.6292 12.5249L14.6292 14.209Z" fill="#ECF4FE"/>
</svg>
