<svg width="24" height="24" viewBox="0 0 24 24" fill="none" xmlns="http://www.w3.org/2000/svg">
<path fill-rule="evenodd" clip-rule="evenodd" d="M16.2664 2.75546C17.2736 1.74818 18.9068 1.74818 19.914 2.75546L21.2445 4.08597C22.2518 5.09325 22.2518 6.72637 21.2445 7.73365L13.705 15.2732C13.3104 15.6678 12.7984 15.9238 12.2459 16.0027L9.45185 16.4019C8.3705 16.5564 7.44364 15.6295 7.59811 14.5482L7.99727 11.7541C8.07619 11.2016 8.33218 10.6896 8.7268 10.295L16.2664 2.75546ZM18.9274 3.74212C18.465 3.27976 17.7154 3.27976 17.253 3.74212L16.1619 4.83325C16.1812 4.9307 16.2112 5.05164 16.2574 5.19025C16.3935 5.59869 16.673 6.16696 17.253 6.74699C17.833 7.32701 18.4013 7.60649 18.8098 7.74264C18.9484 7.78884 19.0693 7.81876 19.1668 7.83811L20.2579 6.74699C20.7202 6.28463 20.7202 5.53499 20.2579 5.07263L18.9274 3.74212ZM18.0553 8.94953C17.5214 8.72891 16.8898 8.35714 16.2664 7.73365C15.6429 7.11016 15.2711 6.47855 15.0505 5.94467L9.71346 11.2817C9.53232 11.4628 9.41482 11.6978 9.37859 11.9514L8.97944 14.7455C8.95652 14.9059 9.09406 15.0435 9.25452 15.0206L12.0486 14.6214C12.3022 14.5852 12.5372 14.4677 12.7183 14.2865L18.0553 8.94953ZM16.1268 4.57766L16.1268 4.57681L16.1268 4.57478L16.1268 4.57209C16.1268 4.57129 16.1268 4.57103 16.1268 4.5713L16.1268 4.57207C16.1268 4.5721 16.1268 4.57212 16.1268 4.57214M16.1268 4.57766C16.1268 4.57788 16.1268 4.57809 16.1268 4.57831C16.1268 4.57842 16.1268 4.57853 16.1268 4.57864C16.1268 4.57864 16.1268 4.57864 16.1268 4.57863L16.1268 4.57831V4.578L16.1268 4.57766ZM6.4186 3.39535C4.74891 3.39535 3.39535 4.74891 3.39535 6.4186V17.5814C3.39535 19.2511 4.74891 20.6047 6.4186 20.6047H17.5814C19.2511 20.6047 20.6047 19.2511 20.6047 17.5814V12C20.6047 11.6147 20.917 11.3023 21.3023 11.3023C21.6876 11.3023 22 11.6147 22 12V17.5814C22 20.0217 20.0217 22 17.5814 22H6.4186C3.97828 22 2 20.0217 2 17.5814V6.4186C2 3.97828 3.97828 2 6.4186 2H12C12.3853 2 12.6977 2.31236 12.6977 2.69767C12.6977 3.08299 12.3853 3.39535 12 3.39535H6.4186Z" fill="currentcolor"/>
</svg>
