<svg width="14" height="14" viewBox="0 0 14 14" fill="none" xmlns="http://www.w3.org/2000/svg">
<path fill-rule="evenodd" clip-rule="evenodd" d="M13.3333 6.66667C13.3333 10.3486 10.349 13.3334 6.66666 13.3334C2.98437 13.3334 0 10.3486 0 6.66667C0 2.9847 2.98437 0 6.66666 0C10.349 0 13.3333 2.9847 13.3333 6.66667ZM4.54687 6.0446C4.84375 6.0446 5.13411 5.95671 5.38021 5.79199C5.47526 5.72884 5.5612 5.65544 5.63802 5.57357C5.76302 5.44173 5.86198 5.28793 5.93229 5.11898C6.04557 4.84489 6.07552 4.54346 6.01823 4.25244C5.95963 3.96159 5.81771 3.69434 5.60807 3.4847C5.53255 3.40869 5.44791 3.34147 5.35807 3.28386C5.20052 3.18262 5.02474 3.11117 4.83984 3.07422C4.54948 3.01644 4.24739 3.04606 3.97396 3.15967C3.69922 3.27311 3.46484 3.46533 3.30078 3.71192C3.13541 3.9585 3.04817 4.24854 3.04817 4.54509C3.04817 4.94271 3.20573 5.3239 3.48698 5.60498C3.76823 5.88607 4.14974 6.04427 4.54687 6.0446ZM8.78779 7.28646C8.49219 7.28646 8.20182 7.37451 7.95573 7.53923C7.70833 7.70394 7.51693 7.93815 7.40234 8.21224C7.28906 8.48617 7.25911 8.78775 7.31771 9.07865C7.375 9.36965 7.51823 9.63675 7.72786 9.84655C7.9375 10.0562 8.20443 10.199 8.49609 10.2569C8.78649 10.3148 9.08849 10.285 9.36199 10.1715C9.46349 10.1295 9.55989 10.0768 9.64839 10.0145C9.79949 9.90835 9.93099 9.77455 10.0352 9.61935C10.2005 9.37255 10.2878 9.08265 10.2878 8.78615C10.2878 8.38851 10.1289 8.00733 9.84769 7.72624C9.56639 7.44515 9.18619 7.28695 8.78779 7.28646ZM10.5208 2.81315C10.474 2.76677 10.4193 2.72982 10.3581 2.70475C10.2969 2.67953 10.2331 2.66667 10.1667 2.66667C10.1016 2.66667 10.0365 2.67953 9.97529 2.70475L9.92969 2.7264C9.88669 2.74935 9.84769 2.77865 9.81379 2.81315L2.8151 9.81125C2.76823 9.85755 2.73177 9.91255 2.70573 9.97345C2.67969 10.0342 2.66666 10.0995 2.66666 10.1653C2.66666 10.2311 2.67969 10.2965 2.70442 10.3574C2.72916 10.4182 2.76692 10.4736 2.8125 10.5203C2.85937 10.5668 2.91536 10.6039 2.97656 10.629C3.03646 10.6539 3.10156 10.6669 3.16797 10.6666C3.23437 10.6665 3.29948 10.6532 3.35937 10.6278L3.42578 10.5935C3.46094 10.5724 3.49349 10.5471 3.52213 10.5181L10.5208 3.51986C10.5664 3.47347 10.6029 3.41846 10.6289 3.35775C10.6537 3.2972 10.6667 3.2321 10.6667 3.16651C10.6667 3.10091 10.6537 3.03581 10.6289 2.97526C10.6159 2.94434 10.6003 2.91488 10.582 2.88737C10.5638 2.86084 10.543 2.83594 10.5208 2.81315ZM4.71484 4.07406C4.66146 4.05502 4.60416 4.04525 4.54687 4.04525C4.41406 4.04525 4.28776 4.09798 4.19401 4.19173C4.10026 4.28548 4.04687 4.41244 4.04687 4.54509C4.04687 4.64388 4.07682 4.74056 4.13151 4.82276C4.1862 4.90495 4.26432 4.96908 4.35547 5.00684C4.44791 5.04476 4.54818 5.05453 4.64453 5.03532C4.74219 5.01595 4.83073 4.96843 4.90104 4.89844C4.94271 4.85661 4.97656 4.80778 5.0013 4.75456C5.01693 4.71908 5.02995 4.68148 5.03776 4.64258C5.05729 4.54558 5.04687 4.44515 5.00911 4.35384C4.97135 4.26237 4.90755 4.18441 4.82552 4.1294C4.79036 4.10628 4.7526 4.08773 4.71484 4.07406ZM8.51041 9.20165C8.59245 9.25665 8.68879 9.28595 8.78779 9.28595C8.92059 9.28585 9.04819 9.23325 9.14189 9.13945C9.23569 9.04575 9.28779 8.91865 9.28779 8.78615C9.28779 8.68715 9.25909 8.59066 9.20439 8.50847C9.14839 8.42611 9.07029 8.36214 8.97919 8.32422C8.88799 8.28646 8.78779 8.27653 8.69139 8.2959C8.59375 8.31511 8.50521 8.3628 8.43489 8.43262C8.40885 8.45882 8.38541 8.4878 8.36588 8.51888C8.33203 8.57048 8.30989 8.62809 8.29818 8.68865C8.27864 8.78545 8.28906 8.88605 8.32682 8.97735C8.36458 9.06865 8.42838 9.14685 8.51041 9.20165Z" fill="currentColor"/>
</svg>
