<svg xmlns="http://www.w3.org/2000/svg" width="24" height="24" viewBox="0 0 24 24" fill="currentColor">
<path d="M19.4188 4.76907L16.1688 4.01909C15.8157 3.93784 15.4532 4.12221 15.3095 4.45345L13.8095 7.95338C13.6783 8.25963 13.7658 8.61899 14.0251 8.82836L15.9188 10.3783C14.7939 12.7752 12.8283 14.7689 10.3814 15.9157L8.83148 14.022C8.61898 13.7626 8.26274 13.6751 7.95649 13.8064L4.45657 15.3064C4.1222 15.4532 3.93783 15.8157 4.01908 16.1688L4.76906 19.4188C4.84718 19.7563 5.14718 20 5.50029 20C13.5033 20 20 13.5158 20 5.50031C20 5.15031 19.7594 4.8472 19.4188 4.76907Z" fill="currentColor"/>
</svg>