<svg width="24" height="24" viewBox="0 0 24 24" fill="none" xmlns="http://www.w3.org/2000/svg">
<path d="M17 12.5C17 13 17 13 17 13.5C17 15 17 15.5 17 17.5C16.2632 17.0088 15.2263 17.3024 15 18C14.7656 18.7226 15 20 16.2719 20.78C14.7619 21.2975 11.1599 21.1402 9.60477 20.78C8.04967 20.4198 6.62685 19.6304 5.49813 18.5016C4.36942 17.3729 3.5801 15.95 3.21994 14.3949C2.85978 12.8398 2.94324 11.2148 3.46083 9.70477C3.97841 8.19473 4.90935 6.86024 6.14777 5.85306C7.38619 4.84587 8.88239 4.20642 10.4662 4.00741C11.05 3.93384 11.5298 4.41804 11.5298 5.00699V10.6046C11.5298 11.0994 11.7263 11.574 12.0762 11.9239C12.426 12.2739 12.9006 12.4705 13.3954 12.4706L17 12.5Z" fill="currentColor"/>
<path d="M13 3.57771C13 2.63135 13.7734 1.84857 14.703 2.02499C16.5051 2.36694 18.1625 3.24347 19.4595 4.54047C20.7565 5.83748 21.6331 7.49489 21.975 9.29698C22.1514 10.2262 21.3682 11 20.4223 11H14.7129C14.2586 11 13.8229 10.8195 13.5017 10.4983C13.1805 10.1771 13 9.74141 13 9.28713V3.57771Z" fill="currentColor"/>
<path d="M21.9998 18.7135C22.0013 18.6608 21.9946 18.6082 21.9802 18.5589C21.9657 18.5096 21.9439 18.4646 21.9159 18.4266C21.8879 18.3886 21.8543 18.3584 21.8172 18.3378C21.7801 18.3171 21.7402 18.3065 21.6999 18.3066L20.3551 18.3011C20.2669 18.2984 20.1968 18.2262 20.1968 18.1379L20.1968 12.3928C20.1968 12.2886 20.1652 12.1887 20.1089 12.1151C20.0527 12.0414 19.9764 12 19.8968 12L18.0998 12C18.0205 12.0004 17.9445 12.042 17.8885 12.1156C17.8325 12.1892 17.8011 12.2889 17.8011 12.3928L17.8011 18.1389C17.8011 18.2226 17.7337 18.2908 17.6499 18.2916L16.3015 18.2854C16.2433 18.2849 16.1863 18.3067 16.1374 18.3481C16.0884 18.3894 16.0497 18.4485 16.026 18.5181C16.0023 18.5878 15.9946 18.6649 16.0038 18.7402C16.013 18.8155 16.0387 18.8857 16.0778 18.9422L18.7854 22.8705C18.8135 22.9113 18.8478 22.9439 18.8862 22.9662C18.9245 22.9885 18.966 23 19.0079 23C19.0499 23 19.0913 22.9885 19.1297 22.9662C19.168 22.9439 19.2023 22.9113 19.2305 22.8705L21.9218 18.9634C21.9695 18.8948 21.9972 18.8063 21.9998 18.7135Z" fill="currentColor"/>
</svg>
