<svg width="10" height="17" viewBox="0 0 10 17" fill="none" xmlns="http://www.w3.org/2000/svg">
    <path
        d="M8.33333 0.5C8.54573 0.500236 8.75003 0.581566 8.90447 0.727374C9.05892 0.873181 9.15186 1.07246 9.16431 1.2845C9.17676 1.49653 9.10777 1.70532 8.97145 1.86819C8.83512 2.03107 8.64175 2.13575 8.43083 2.16083L8.33333 2.16667V6.13667L9.91167 9.29417C9.95525 9.38058 9.98345 9.47391 9.995 9.57L10 9.66667V11.3333C9.99997 11.5374 9.92504 11.7344 9.7894 11.887C9.65377 12.0395 9.46688 12.137 9.26417 12.1608L9.16667 12.1667H5.83333V15.5C5.8331 15.7124 5.75177 15.9167 5.60596 16.0711C5.46015 16.2256 5.26087 16.3185 5.04884 16.331C4.8368 16.3434 4.62802 16.2744 4.46514 16.1381C4.30226 16.0018 4.19759 15.8084 4.1725 15.5975L4.16667 15.5V12.1667H0.833333C0.629222 12.1666 0.432219 12.0917 0.27969 11.9561C0.127161 11.8204 0.0297143 11.6335 0.00583331 11.4308L0 11.3333V9.66667C0.000113669 9.57004 0.0170324 9.47416 0.05 9.38333L0.0883333 9.29417L1.66667 6.135V2.16667C1.45427 2.16643 1.24997 2.0851 1.09553 1.93929C0.941079 1.79349 0.848138 1.59421 0.83569 1.38217C0.823242 1.17014 0.892229 0.96135 1.02855 0.798473C1.16488 0.635595 1.35825 0.53092 1.56917 0.505833L1.66667 0.5H8.33333Z"
        fill="currentColor" />
</svg>
    