<svg width="20" height="20" viewBox="0 0 20 20" fill="none" xmlns="http://www.w3.org/2000/svg">
    <path fill-rule="evenodd" clip-rule="evenodd" d="M5.83341 6.52369V8.47631C5.83341 8.91834 5.65782 9.34226 5.34526 9.65482C4.29532 10.7048 5.03893 12.5 6.52377 12.5H9.37508V17.5C9.37508 17.8452 9.6549 18.125 10.0001 18.125C10.3453 18.125 10.6251 17.8452 10.6251 17.5V12.5H13.4764C14.9612 12.5 15.7048 10.7048 14.6549 9.65482C14.3423 9.34226 14.1667 8.91834 14.1667 8.47631V6.52369C14.1667 6.08166 14.3423 5.65774 14.6549 5.34518C15.7048 4.29524 14.9612 2.5 13.4764 2.5H6.52377C5.03893 2.5 4.29532 4.29524 5.34526 5.34518C5.65782 5.65774 5.83341 6.08166 5.83341 6.52369Z" fill="currentColor"/>
    </svg>
    