<svg width="25" height="24" viewBox="0 0 25 24" fill="none" xmlns="http://www.w3.org/2000/svg">
<path fill-rule="evenodd" clip-rule="evenodd" d="M2.33301 6C2.33301 3.79086 4.12387 2 6.33301 2H18.333C20.5421 2 22.333 3.79086 22.333 6V18C22.333 20.2091 20.5421 22 18.333 22H6.33301C4.12387 22 2.33301 20.2091 2.33301 18V6ZM7.58301 12C7.58301 11.5858 7.91879 11.25 8.33301 11.25H11.583V8C11.583 7.58579 11.9188 7.25 12.333 7.25C12.7472 7.25 13.083 7.58579 13.083 8V11.25H16.333C16.7472 11.25 17.083 11.5858 17.083 12C17.083 12.4142 16.7472 12.75 16.333 12.75H13.083V16C13.083 16.4142 12.7472 16.75 12.333 16.75C11.9188 16.75 11.583 16.4142 11.583 16V12.75H8.33301C7.91879 12.75 7.58301 12.4142 7.58301 12Z" fill="currentcolor"/>
</svg>
