<svg width="18" height="18" viewBox="0 0 18 18" fill="none" xmlns="http://www.w3.org/2000/svg">
<path d="M8.16699 6.63335V0.666687C4.00033 1.08335 0.666992 4.65835 0.666992 9.00002C0.666992 13.3417 4.00033 16.9167 8.16699 17.3334V11.3667C7.33366 11.025 6.50033 10.1 6.50033 9.00002C6.50033 7.90002 7.33366 6.97502 8.16699 6.63335ZM11.3837 8.16669H17.3337C16.9337 4.20835 14.0003 1.05835 9.83366 0.666687V6.63335C10.667 6.88335 11.1003 7.45002 11.3837 8.16669ZM9.83366 11.3667V17.3334C14.0003 16.9417 16.9337 13.7917 17.3337 9.83335H11.3837C11.1003 10.55 10.667 11.1167 9.83366 11.3667Z" fill="currentColor"/>
</svg>
