<svg width="14" height="22" viewBox="0 0 14 22" fill="none" xmlns="http://www.w3.org/2000/svg">
    <path
        d="M5.97691 11.3684C6.82288 9.90526 8.44889 9.04211 9.39374 7.74737C10.3935 6.38947 9.8332 3.85263 6.99867 3.85263C5.14194 3.85263 4.23005 5.2 3.84552 6.31579L1 5.16842C1.78005 2.92632 3.90045 1 6.98768 1C9.56952 1 11.3384 2.12632 12.2393 3.53684C13.0083 4.74737 13.4588 7.01053 12.2722 8.69474C10.9538 10.5579 9.69037 11.1263 9.00921 12.3263C8.73454 12.8105 8.62468 13.1263 8.62468 14.6842H5.44956C5.43857 13.8632 5.30673 12.5263 5.97691 11.3684ZM9.19598 18.8947C9.19598 20.0526 8.20719 21 6.99867 21C5.79014 21 4.80135 20.0526 4.80135 18.8947C4.80135 17.7368 5.79014 16.7895 6.99867 16.7895C8.20719 16.7895 9.19598 17.7368 9.19598 18.8947Z"
        stroke="currentColor" stroke-width="1.5" stroke-linejoin="round" />
</svg>