<svg xmlns="http://www.w3.org/2000/svg" width="24" height="24" viewBox="0 0 24 24" fill="none">
  <path d="M4.50912 2H13.6758C14.3382 2.00198 14.9729 2.26601 15.4414 2.73442C15.9098 3.20283 16.1738 3.83757 16.1758 4.5V9.5H8.67578C8.01274 9.5 7.37685 9.76339 6.90801 10.2322C6.43917 10.7011 6.17578 11.337 6.17578 12C6.17578 12.663 6.43917 13.2989 6.90801 13.7678C7.37685 14.2366 8.01274 14.5 8.67578 14.5H16.1758V19.5C16.1738 20.1624 15.9098 20.7972 15.4414 21.2656C14.9729 21.734 14.3382 21.998 13.6758 22H4.50912C3.84668 21.998 3.21195 21.734 2.74353 21.2656C2.27512 20.7972 2.01109 20.1624 2.00912 19.5V4.5C2.01109 3.83757 2.27512 3.20283 2.74353 2.73442C3.21195 2.26601 3.84668 2.00198 4.50912 2Z" fill="#ECF4FE"/>
  <path d="M19.1657 12.8332H8.67402C8.45301 12.8332 8.24104 12.7454 8.08476 12.5891C7.92848 12.4328 7.84069 12.2208 7.84069 11.9998C7.84069 11.7788 7.92848 11.5669 8.08476 11.4106C8.24104 11.2543 8.45301 11.1665 8.67402 11.1665H19.1657L18.0824 10.0915C17.9254 9.93458 17.8373 9.72175 17.8373 9.49983C17.8373 9.27791 17.9254 9.06508 18.0824 8.90816C18.2393 8.75124 18.4521 8.66309 18.674 8.66309C18.8959 8.66309 19.1088 8.75124 19.2657 8.90816L21.7657 11.4082C21.9162 11.5684 22 11.78 22 11.9998C22 12.2197 21.9162 12.4313 21.7657 12.5915L19.2657 15.0915C19.1061 15.2433 18.8943 15.328 18.674 15.328C18.4538 15.328 18.2419 15.2433 18.0824 15.0915C17.9262 14.9342 17.8386 14.7215 17.8386 14.4998C17.8386 14.2782 17.9262 14.0655 18.0824 13.9082L19.1657 12.8332Z" fill="#ECF4FE"/>
</svg>