<svg xmlns="http://www.w3.org/2000/svg" width="17" height="16" viewBox="0 0 17 16" fill="currentColor">
<g clip-path="url(#clip0_2732_142135)">
<path d="M2.65 0.0449781C2.09062 0.179353 1.60313 0.638728 1.42813 1.1981L1.35938 1.41685V6.96373V12.5106L1.42813 12.7294C1.51562 13.0106 1.69063 13.2794 1.9125 13.4794C2.1125 13.6606 5.75313 15.7762 6.07188 15.895C6.90625 16.2106 7.90313 15.7294 8.2125 14.8606C8.28438 14.6575 8.29375 14.5794 8.30625 14.0356L8.31875 13.4356L9.77812 13.4262L11.2344 13.4169L11.4656 13.3325C12.0063 13.1356 12.3906 12.7231 12.5563 12.1669C12.6156 11.9606 12.65 9.89185 12.5969 9.68873C12.4969 9.31998 12.0938 9.1731 11.8 9.40435C11.6406 9.52935 11.6406 9.53248 11.625 10.745L11.6094 11.8887L11.5281 12.0419C11.4406 12.2169 11.2594 12.3606 11.075 12.4012C11.0094 12.4169 10.3594 12.4325 9.63438 12.4325H8.3125V8.45435C8.3125 4.0856 8.31875 4.24185 8.12188 3.84185C7.97813 3.5481 7.7125 3.2981 7.26562 3.03873C7.05938 2.91685 6.18438 2.41373 5.31875 1.91373L3.75 1.0106L7.37813 1.00123C9.83125 0.998103 11.0469 1.00435 11.1281 1.02623C11.2812 1.06685 11.45 1.21685 11.5406 1.38248C11.6062 1.50748 11.6094 1.5481 11.625 2.80748C11.6438 4.25748 11.6344 4.1981 11.8719 4.33248C12.1031 4.46373 12.3781 4.3981 12.525 4.1731L12.6094 4.04498V2.73248C12.6094 1.4606 12.6062 1.4106 12.5406 1.1981C12.3625 0.632478 11.875 0.176229 11.3063 0.041853C11.0219 -0.0237713 2.925 -0.0237713 2.65 0.0449781ZM4.69062 2.70748C5.93438 3.42623 6.99375 4.03873 7.04063 4.06998C7.0875 4.10435 7.16563 4.19498 7.2125 4.2731L7.29688 4.41685L7.30625 9.3856C7.31563 14.9856 7.33125 14.5794 7.07812 14.8012C6.8375 15.0137 6.5375 15.045 6.26562 14.8919C4.20312 13.7075 2.625 12.7856 2.56875 12.7325C2.52813 12.6981 2.4625 12.6106 2.42813 12.5419L2.35938 12.4169V6.99498C2.35938 2.25123 2.36875 1.40123 2.41875 1.40123C2.425 1.40123 3.44688 1.98873 4.69062 2.70748Z" fill="currentColor"/>
<path d="M13.275 4.64849C13.2125 4.68286 13.1344 4.75786 13.0969 4.81411C13.0188 4.94224 13.0094 5.17349 13.075 5.29849C13.1 5.34536 13.2969 5.55786 13.5125 5.77349C13.7281 5.98911 13.9062 6.17349 13.9062 6.18599C13.9062 6.20161 12.8469 6.21099 11.55 6.21099H9.19688L9.09375 6.27974C8.91563 6.40161 8.85938 6.50474 8.85938 6.71099C8.85938 6.93286 8.925 7.03911 9.125 7.13911L9.2625 7.21099H11.5906H13.9219L13.5281 7.60786C13.3094 7.82974 13.1094 8.04224 13.0813 8.08599C13.0188 8.18286 13.0156 8.43286 13.0781 8.55161C13.1438 8.67974 13.2969 8.79849 13.425 8.82349C13.6781 8.87036 13.7375 8.82661 14.6312 7.93599C15.0938 7.47974 15.5031 7.05474 15.5469 6.98911C15.6438 6.85474 15.6594 6.61724 15.5844 6.47349C15.5125 6.33911 13.8125 4.65786 13.7094 4.62036C13.5781 4.57036 13.4031 4.58286 13.275 4.64849Z" fill="currentColor"/>
</g>
<defs>
<clipPath id="clip0_2732_142135">
<rect width="16" height="16" fill="white" transform="translate(0.5)"/>
</clipPath>
</defs>
</svg>