<svg width="172" height="31" viewBox="0 0 172 31" fill="none" xmlns="http://www.w3.org/2000/svg">
<path d="M28.9375 12.4062C28.9375 13.5651 28.7943 14.6003 28.5078 15.5117C28.2214 16.4232 27.8307 17.2305 27.3359 17.9336C26.8542 18.6237 26.2943 19.2161 25.6562 19.7109C25.0182 20.2057 24.3477 20.6159 23.6445 20.9414C22.9544 21.2539 22.2513 21.4818 21.5352 21.625C20.832 21.7682 20.168 21.8398 19.543 21.8398L30.1484 31H22.2969L11.7109 21.8398H8.05859V16.7617H19.543C20.181 16.7096 20.7604 16.5794 21.2812 16.3711C21.8151 16.1497 22.2708 15.8568 22.6484 15.4922C23.0391 15.1276 23.3385 14.6914 23.5469 14.1836C23.7552 13.6628 23.8594 13.0703 23.8594 12.4062V9.20312C23.8594 8.91667 23.8203 8.70182 23.7422 8.55859C23.6771 8.40234 23.5859 8.29167 23.4688 8.22656C23.3646 8.14844 23.2474 8.10286 23.1172 8.08984C23 8.07682 22.8893 8.07031 22.7852 8.07031H6.02734V31H0.949219V5.55078C0.949219 5.19922 1.01432 4.86719 1.14453 4.55469C1.27474 4.24219 1.45052 3.96875 1.67188 3.73438C1.90625 3.5 2.17969 3.31771 2.49219 3.1875C2.80469 3.05729 3.14323 2.99219 3.50781 2.99219H22.7852C23.918 2.99219 24.875 3.20052 25.6562 3.61719C26.4375 4.02083 27.069 4.53516 27.5508 5.16016C28.0456 5.77214 28.3971 6.4362 28.6055 7.15234C28.8268 7.86849 28.9375 8.53906 28.9375 9.16406V12.4062ZM54.9922 24.0078C54.9922 24.7109 54.8685 25.4727 54.6211 26.293C54.3737 27.1003 53.9701 27.8555 53.4102 28.5586C52.8633 29.2487 52.1406 29.8281 51.2422 30.2969C50.3568 30.7656 49.276 31 48 31H38.8398C38.1367 31 37.375 30.8763 36.5547 30.6289C35.7474 30.3815 34.9922 29.9844 34.2891 29.4375C33.599 28.8776 33.0195 28.1549 32.5508 27.2695C32.082 26.3711 31.8477 25.2839 31.8477 24.0078C31.8477 23.3047 31.9714 22.543 32.2188 21.7227C32.4661 20.9023 32.8633 20.1471 33.4102 19.457C33.9701 18.7539 34.6927 18.168 35.5781 17.6992C36.4766 17.2305 37.5638 16.9961 38.8398 16.9961H48V21.8398H38.8398C38.1497 21.8398 37.6159 22.0547 37.2383 22.4844C36.8607 22.901 36.6719 23.4219 36.6719 24.0469C36.6719 24.7109 36.8867 25.2318 37.3164 25.6094C37.7591 25.974 38.2799 26.1562 38.8789 26.1562H48C48.6901 26.1562 49.224 25.9479 49.6016 25.5312C49.9792 25.1146 50.168 24.5938 50.168 23.9688V16.8789C50.168 16.2148 49.9596 15.6875 49.543 15.2969C49.1393 14.9062 48.625 14.7109 48 14.7109H36.8477V9.88672H48C48.7031 9.88672 49.4583 10.0104 50.2656 10.2578C51.0859 10.5052 51.8411 10.9089 52.5312 11.4688C53.2344 12.0156 53.8203 12.7383 54.2891 13.6367C54.7578 14.5221 54.9922 15.6029 54.9922 16.8789V24.0078ZM78.1758 31H73.0977V16.9961C73.0977 16.332 72.9219 15.8307 72.5703 15.4922C72.2188 15.1406 71.6979 14.9648 71.0078 14.9648H64.4062V31H59.3281V12.4062C59.3281 12.0547 59.3932 11.7292 59.5234 11.4297C59.6536 11.1172 59.8359 10.8503 60.0703 10.6289C60.3047 10.3945 60.5781 10.2122 60.8906 10.082C61.2031 9.95182 61.5352 9.88672 61.8867 9.88672H71.0469C71.75 9.88672 72.5052 10.0104 73.3125 10.2578C74.1198 10.5052 74.888 10.9023 75.6172 11.4492V9.88672H82.4922C82.974 9.88672 83.4818 9.94531 84.0156 10.0625C84.5495 10.1667 85.0768 10.3359 85.5977 10.5703C86.1315 10.8047 86.6393 11.1107 87.1211 11.4883C87.6029 11.8529 88.026 12.3021 88.3906 12.8359C88.7552 13.3568 89.0482 13.9622 89.2695 14.6523C89.4909 15.3424 89.6016 16.1237 89.6016 16.9961V31H84.5234V16.9961C84.5234 16.332 84.3542 15.8307 84.0156 15.4922C83.6901 15.1406 83.1823 14.9648 82.4922 14.9648H77.9219C78.0911 15.5898 78.1758 16.2669 78.1758 16.9961V31ZM116.086 24.0078C116.086 24.7109 115.962 25.4727 115.715 26.293C115.467 27.1003 115.064 27.8555 114.504 28.5586C113.957 29.2487 113.234 29.8281 112.336 30.2969C111.451 30.7656 110.37 31 109.094 31H99.9336C99.2305 31 98.4688 30.8763 97.6484 30.6289C96.8411 30.3815 96.0859 29.9844 95.3828 29.4375C94.6927 28.8776 94.1133 28.1549 93.6445 27.2695C93.1758 26.3711 92.9414 25.2839 92.9414 24.0078C92.9414 23.3047 93.0651 22.543 93.3125 21.7227C93.5599 20.9023 93.957 20.1471 94.5039 19.457C95.0638 18.7539 95.7865 18.168 96.6719 17.6992C97.5703 17.2305 98.6576 16.9961 99.9336 16.9961H109.094V21.8398H99.9336C99.2435 21.8398 98.7096 22.0547 98.332 22.4844C97.9544 22.901 97.7656 23.4219 97.7656 24.0469C97.7656 24.7109 97.9805 25.2318 98.4102 25.6094C98.8529 25.974 99.3737 26.1562 99.9727 26.1562H109.094C109.784 26.1562 110.318 25.9479 110.695 25.5312C111.073 25.1146 111.262 24.5938 111.262 23.9688V16.8789C111.262 16.2148 111.053 15.6875 110.637 15.2969C110.233 14.9062 109.719 14.7109 109.094 14.7109H97.9414V9.88672H109.094C109.797 9.88672 110.552 10.0104 111.359 10.2578C112.18 10.5052 112.935 10.9089 113.625 11.4688C114.328 12.0156 114.914 12.7383 115.383 13.6367C115.852 14.5221 116.086 15.6029 116.086 16.8789V24.0078ZM143.82 31H138.742V19.2812C138.742 18.6172 138.625 18.0247 138.391 17.5039C138.169 16.9701 137.863 16.5143 137.473 16.1367C137.082 15.7591 136.62 15.4727 136.086 15.2773C135.565 15.069 134.999 14.9648 134.387 14.9648H125.5V31H120.422V12.4062C120.422 12.0547 120.487 11.7292 120.617 11.4297C120.747 11.1172 120.93 10.8503 121.164 10.6289C121.398 10.3945 121.672 10.2122 121.984 10.082C122.297 9.95182 122.629 9.88672 122.98 9.88672H134.426C135.064 9.88672 135.734 9.95833 136.438 10.1016C137.154 10.2448 137.857 10.4792 138.547 10.8047C139.25 11.1172 139.914 11.5208 140.539 12.0156C141.177 12.4974 141.737 13.0898 142.219 13.793C142.714 14.4831 143.104 15.2839 143.391 16.1953C143.677 17.1068 143.82 18.1354 143.82 19.2812V31ZM171.438 23.8711C171.438 24.7435 171.327 25.5312 171.105 26.2344C170.884 26.9245 170.591 27.5365 170.227 28.0703C169.862 28.5911 169.439 29.0404 168.957 29.418C168.475 29.7826 167.967 30.082 167.434 30.3164C166.913 30.5508 166.379 30.7266 165.832 30.8438C165.298 30.9479 164.79 31 164.309 31H155.148C154.276 31 153.495 30.8893 152.805 30.668C152.115 30.4466 151.503 30.1536 150.969 29.7891C150.448 29.4115 149.999 28.9818 149.621 28.5C149.257 28.0182 148.957 27.5169 148.723 26.9961C148.488 26.4622 148.312 25.9284 148.195 25.3945C148.091 24.8477 148.039 24.3398 148.039 23.8711V16.9961C148.039 15.694 148.273 14.5938 148.742 13.6953C149.224 12.7839 149.816 12.0482 150.52 11.4883C151.236 10.9154 152.01 10.5052 152.844 10.2578C153.677 10.0104 154.445 9.88672 155.148 9.88672H164.309V14.9648H155.188C154.51 14.9648 153.996 15.1406 153.645 15.4922C153.293 15.8307 153.117 16.332 153.117 16.9961V23.832C153.117 24.5221 153.286 25.043 153.625 25.3945C153.977 25.7461 154.484 25.9219 155.148 25.9219H164.309C164.999 25.9219 165.513 25.7461 165.852 25.3945C166.19 25.043 166.359 24.5352 166.359 23.8711V0.960938H171.438V23.8711Z" fill="white"/>
</svg>
