<svg width="16" height="16" viewBox="0 0 16 16" fill="none" xmlns="http://www.w3.org/2000/svg">
<path d="M2.66797 3.9987V12.6654C2.66797 13.77 3.5634 14.6654 4.66797 14.6654H11.3346C12.4392 14.6654 13.3346 13.77 13.3346 12.6654V5.9987C13.3346 4.89413 12.4392 3.9987 11.3346 3.9987H2.66797ZM2.66797 3.9987V3.33203" stroke="#939CAD"/>
<path d="M12.0013 3.99815V4.49815H12.5013V3.99815H12.0013ZM3.38202 4.49815H12.0013V3.49815H3.38202V4.49815ZM12.5013 3.99815V2.86883H11.5013V3.99815H12.5013ZM10.4087 1.05393L3.21032 2.08227L3.35174 3.07221L10.5501 2.04387L10.4087 1.05393ZM3.21032 2.08227C2.61222 2.16771 2.16797 2.67994 2.16797 3.28411H3.16797C3.16797 3.17759 3.2463 3.08728 3.35174 3.07221L3.21032 2.08227ZM12.5013 2.86883C12.5013 1.75316 11.5132 0.896147 10.4087 1.05393L10.5501 2.04387C11.0522 1.97216 11.5013 2.36171 11.5013 2.86883H12.5013ZM3.38202 3.49815C3.2638 3.49815 3.16797 3.40232 3.16797 3.28411H2.16797C2.16797 3.95461 2.71152 4.49815 3.38202 4.49815V3.49815Z" fill="currentColor"/>
<path opacity="0.5" d="M5.33203 8H10.6654" stroke="#939CAD" stroke-linecap="round"/>
<path opacity="0.5" d="M5.33203 10.332H8.9987" stroke="#939CAD" stroke-linecap="round"/>
</svg>
