<svg width="16" height="16" viewBox="0 0 16 16" fill="none" xmlns="http://www.w3.org/2000/svg">
<path d="M2.75312 0C1.24192 0 0 1.24192 0 2.75312V4.44688C0 5.95808 1.24193 7.2 2.75312 7.2H4.44688C5.95808 7.2 7.2 5.95808 7.2 4.44688V2.75312C7.2 1.24192 5.95808 0 4.44688 0H2.75312ZM2.75312 8.8C1.24192 8.8 0 10.0419 0 11.5531V13.2469C0 14.7581 1.24193 16 2.75312 16H4.44688C5.95808 16 7.2 14.7581 7.2 13.2469V11.5531C7.2 10.0419 5.95808 8.8 4.44688 8.8H2.75312ZM11.5531 8.8C10.0419 8.8 8.8 10.0419 8.8 11.5531V13.2469C8.8 14.7581 10.0419 16 11.5531 16H13.2469C14.7581 16 16 14.7581 16 13.2469V11.5531C16 10.0419 14.7581 8.8 13.2469 8.8H11.5531Z" fill="currentColor"/>
<path d="M12.3969 0C12.1847 0 11.9812 0.0842971 11.8312 0.234326C11.6812 0.384355 11.5969 0.587827 11.5969 0.8V2.8H9.59688C9.3847 2.8 9.18122 2.8843 9.03119 3.03433C8.88116 3.18436 8.79688 3.38783 8.79688 3.6C8.79688 3.81217 8.88116 4.01567 9.03119 4.1657C9.18122 4.31573 9.3847 4.4 9.59688 4.4H11.5969V6.4C11.5969 6.61217 11.6812 6.81567 11.8312 6.9657C11.9812 7.11573 12.1847 7.2 12.3969 7.2C12.609 7.2 12.8125 7.11573 12.9626 6.9657C13.1126 6.81567 13.1969 6.61217 13.1969 6.4V4.4H15.1969C15.409 4.4 15.6125 4.31573 15.7626 4.1657C15.9126 4.01567 15.9969 3.81217 15.9969 3.6C15.9969 3.38783 15.9126 3.18436 15.7626 3.03433C15.6125 2.8843 15.409 2.8 15.1969 2.8H13.1969V0.8C13.1969 0.587827 13.1126 0.384355 12.9626 0.234326C12.8125 0.0842971 12.609 0 12.3969 0Z" fill="currentColor"/>
</svg>
