<svg width="18" height="18" viewBox="0 0 18 18" fill="none" xmlns="http://www.w3.org/2000/svg">
<path d="M16.7588 5.26831L12.7317 1.24121C12.4968 1.00761 12.1792 0.87603 11.8479 0.875H6.1521C5.82079 0.87603 5.50325 1.00761 5.26831 1.24121L1.24121 5.26831C1.00761 5.50325 0.87603 5.82079 0.875 6.1521V11.8479C0.87603 12.1792 1.00761 12.4968 1.24121 12.7317L5.26831 16.7588C5.50325 16.9924 5.82079 17.124 6.1521 17.125H11.8479C12.1792 17.124 12.4968 16.9924 12.7317 16.7588L16.7588 12.7317C16.9924 12.4968 17.124 12.1792 17.125 11.8479V6.1521C17.124 5.82079 16.9924 5.50325 16.7588 5.26831ZM8.375 5.25C8.375 5.08424 8.44085 4.92527 8.55806 4.80806C8.67527 4.69085 8.83424 4.625 9 4.625C9.16576 4.625 9.32473 4.69085 9.44194 4.80806C9.55915 4.92527 9.625 5.08424 9.625 5.25V9.625C9.625 9.79076 9.55915 9.94973 9.44194 10.0669C9.32473 10.1842 9.16576 10.25 9 10.25C8.83424 10.25 8.67527 10.1842 8.55806 10.0669C8.44085 9.94973 8.375 9.79076 8.375 9.625V5.25ZM9 13.375C8.81458 13.375 8.63332 13.32 8.47915 13.217C8.32498 13.114 8.20482 12.9676 8.13386 12.7963C8.06291 12.625 8.04434 12.4365 8.08051 12.2546C8.11669 12.0727 8.20598 11.9057 8.33709 11.7746C8.4682 11.6435 8.63525 11.5542 8.8171 11.518C8.99896 11.4818 9.18746 11.5004 9.35876 11.5714C9.53007 11.6423 9.67649 11.7625 9.7795 11.9167C9.88252 12.0708 9.9375 12.2521 9.9375 12.4375C9.93749 12.6861 9.83871 12.9246 9.6629 13.1004C9.48709 13.2762 9.24864 13.375 9 13.375Z" fill="#F5A300"/>
</svg>