<svg width="20" height="20" viewBox="0 0 20 20" fill="none" xmlns="http://www.w3.org/2000/svg">
    <path fill-rule="evenodd" clip-rule="evenodd" d="M8.26795 2.14254C9.33975 1.50782 10.6603 1.50782 11.732 2.14254L15.7679 4.53261C16.8397 5.16733 17.5 6.34034 17.5 7.60977V12.3899C17.5 13.6593 16.8397 14.8323 15.7679 15.4671L11.732 17.8571C10.6603 18.4919 9.33975 18.4919 8.26795 17.8571L4.23205 15.4671C3.16025 14.8323 2.5 13.6593 2.5 12.3899V7.60977C2.5 6.34034 3.16025 5.16733 4.23205 4.53261L8.26795 2.14254ZM9.16667 14.1665C9.16667 13.7063 9.53976 13.3332 10 13.3332C10.4602 13.3332 10.8333 13.7063 10.8333 14.1665C10.8333 14.6267 10.4602 14.9998 10 14.9998C9.53976 14.9998 9.16667 14.6267 9.16667 14.1665ZM9.375 11.6665C9.375 12.0117 9.65482 12.2915 10 12.2915C10.3452 12.2915 10.625 12.0117 10.625 11.6665L10.625 5.83317C10.625 5.48799 10.3452 5.20817 10 5.20817C9.65482 5.20817 9.375 5.48799 9.375 5.83317L9.375 11.6665Z" fill="currentColor"/>
    </svg>
    