<svg width="24" height="24" viewBox="0 0 24 24" fill="none" xmlns="http://www.w3.org/2000/svg">
    <path d="M2.05346 20.5166L3.85402 14.5091C3.95467 14.1734 4.2238 13.9148 4.56335 13.8276L9.86263 12.4677C9.89058 12.4606 9.9191 12.4558 9.94787 12.4535C10.5644 12.4048 10.5644 11.5016 9.94787 11.4529C9.9191 11.4506 9.89058 11.4459 9.86262 11.4387L4.54908 10.075C4.21739 9.98985 3.95233 9.74092 3.84656 9.41522L2.07716 3.96625C2.0614 3.91771 2.04885 3.86604 2.04148 3.81554C1.70133 1.48417 3.5362 1.88386 4.50691 2.38213L20.6995 10.4419C23.0548 11.6509 21.6809 12.9606 20.6995 13.4643L4.50688 21.5241C2.15159 22.7331 1.8899 21.3562 2.05346 20.5166Z" stroke="currentcolor" stroke-width="1.5"/>
</svg>
