<svg xmlns="http://www.w3.org/2000/svg" width="15" height="17" viewBox="0 0 15 17" fill="none">
<path d="M13.8454 14.7292C13.9313 14.7292 14.0019 14.7568 14.0571 14.812C14.1124 14.8673 14.14 14.9378 14.14 15.0237V16.2021C14.14 16.288 14.1124 16.3586 14.0571 16.4138C14.0019 16.469 13.9313 16.4967 13.8454 16.4967H0.294583C0.208663 16.4967 0.138086 16.469 0.0828516 16.4138C0.0276172 16.3586 0 16.288 0 16.2021V15.0237C0 14.9378 0.0276172 14.8673 0.0828516 14.812C0.138086 14.7568 0.208663 14.7292 0.294583 14.7292H13.8454ZM1.19674 14.14C1.21516 13.8025 1.26425 13.4741 1.34404 13.155C1.42382 12.8359 1.51588 12.5443 1.62021 12.2804C1.72454 12.0165 1.86569 11.7496 2.04367 11.4795C2.22165 11.2095 2.38582 10.9763 2.53618 10.7799C2.68654 10.5835 2.88446 10.3703 3.12995 10.1401C3.37543 9.90997 3.57796 9.72585 3.73753 9.58777C3.89709 9.44968 4.11343 9.28091 4.38653 9.08145C4.65963 8.88199 4.86369 8.73624 4.99871 8.64418C5.13373 8.55212 5.33319 8.42017 5.59708 8.24833C5.33319 8.07649 5.13373 7.94454 4.99871 7.85249C4.86369 7.76043 4.65963 7.61467 4.38653 7.41521C4.11343 7.21576 3.89709 7.04699 3.73753 6.9089C3.57796 6.77081 3.37543 6.5867 3.12995 6.35656C2.88446 6.12641 2.68654 5.91315 2.53618 5.71676C2.38582 5.52037 2.22165 5.28716 2.04367 5.01712C1.86569 4.74709 1.72454 4.48012 1.62021 4.21622C1.51588 3.95233 1.42382 3.66081 1.34404 3.34168C1.26425 3.02255 1.21516 2.69421 1.19674 2.35667H12.9433C12.9248 2.69421 12.8757 3.02255 12.796 3.34168C12.7162 3.66081 12.6241 3.95233 12.5198 4.21622C12.4155 4.48012 12.2743 4.74709 12.0963 5.01712C11.9184 5.28716 11.7542 5.52037 11.6038 5.71676C11.4535 5.91315 11.2555 6.12641 11.0101 6.35656C10.7646 6.5867 10.562 6.77081 10.4025 6.9089C10.2429 7.04699 10.0266 7.21576 9.75347 7.41521C9.48037 7.61467 9.27631 7.76043 9.14129 7.85249C9.00627 7.94454 8.80682 8.07649 8.54292 8.24833C8.80682 8.42017 9.00627 8.55212 9.14129 8.64418C9.27631 8.73624 9.48037 8.88199 9.75347 9.08145C10.0266 9.28091 10.2429 9.44968 10.4025 9.58777C10.562 9.72585 10.7646 9.90997 11.0101 10.1401C11.2555 10.3703 11.4535 10.5835 11.6038 10.7799C11.7542 10.9763 11.9184 11.2095 12.0963 11.4795C12.2743 11.7496 12.4155 12.0165 12.5198 12.2804C12.6241 12.5443 12.7162 12.8359 12.796 13.155C12.8757 13.4741 12.9248 13.8025 12.9433 14.14H1.19674ZM13.8454 0C13.9313 0 14.0019 0.0276172 14.0571 0.0828516C14.1124 0.138086 14.14 0.208663 14.14 0.294583V1.47292C14.14 1.55884 14.1124 1.62941 14.0571 1.68465C14.0019 1.73988 13.9313 1.7675 13.8454 1.7675H0.294583C0.208663 1.7675 0.138086 1.73988 0.0828516 1.68465C0.0276172 1.62941 0 1.55884 0 1.47292V0.294583C0 0.208663 0.0276172 0.138086 0.0828516 0.0828516C0.138086 0.0276172 0.208663 0 0.294583 0H13.8454Z" fill="#F47213"/>
</svg>