<svg xmlns="http://www.w3.org/2000/svg" width="20" height="20" viewBox="0 0 20 20" fill="none">
  <path fill-rule="evenodd" clip-rule="evenodd" d="M14.3473 8.40944C14.3473 9.97147 13.0858 11.2378 11.5295 11.2378C9.97317 11.2378 8.71148 9.97147 8.71148 8.40944C8.71148 6.84742 9.97317 5.58121 11.5295 5.58121C13.0858 5.58121 14.3473 6.84742 14.3473 8.40944ZM18.1276 14.3854L14.8231 11.0688C15.407 10.3413 15.7564 9.41628 15.7564 8.4094C15.7564 6.06638 13.864 4.16699 11.5296 4.16699C9.19513 4.16699 7.3027 6.06638 7.3027 8.4094C7.3027 10.7524 9.19513 12.6518 11.5296 12.6518C12.3514 12.6518 13.1184 12.4164 13.7674 12.0091L17.1314 15.3854C17.4052 15.6603 17.851 15.66 18.1262 15.3839C18.4032 15.1058 18.4019 14.6608 18.1276 14.3854ZM2.19381 5.93478C1.9064 5.93478 1.66699 6.2513 1.66699 6.64181C1.66699 7.03505 1.90286 7.34884 2.19381 7.34884H3.07357V8.22831C3.07357 8.51571 3.39009 8.75512 3.7806 8.75512C4.17384 8.75512 4.48763 8.51926 4.48763 8.22831V7.34884H5.36698C5.65438 7.34884 5.8938 7.03232 5.8938 6.64181C5.8938 6.24857 5.65793 5.93478 5.36698 5.93478H4.48763V5.05514C4.48763 4.76773 4.17112 4.52832 3.7806 4.52832C3.38736 4.52832 3.07357 4.76419 3.07357 5.05514V5.93478H2.19381ZM2.19381 10.1772C1.9064 10.1772 1.66699 10.4937 1.66699 10.8842C1.66699 11.2775 1.90286 11.5912 2.19381 11.5912H5.36698C5.65438 11.5912 5.8938 11.2747 5.8938 10.8842C5.8938 10.491 5.65793 10.1772 5.36698 10.1772H2.19381ZM2.19466 14.4196C1.89874 14.4196 1.66699 14.7361 1.66699 15.1266C1.66699 15.5199 1.90323 15.8337 2.19466 15.8337H12.235C12.5309 15.8337 12.7626 15.5171 12.7626 15.1266C12.7626 14.7334 12.5264 14.4196 12.235 14.4196H2.19466Z" fill="currentColor"/>
</svg>