<svg width="20" height="20" viewBox="0 0 20 20" fill="none" xmlns="http://www.w3.org/2000/svg">
    <path d="M8.75 5.625H15.625" stroke="currentColor" stroke-width="2" stroke-linecap="round"
        stroke-linejoin="round" />
    <path
        d="M6.25 5.58594C6.24703 5.92006 6.11553 6.24022 5.88277 6.47995C5.65002 6.71969 5.33389 6.8606 5 6.87344C4.66611 6.8606 4.34998 6.71969 4.11723 6.47995C3.88447 6.24022 3.75297 5.92006 3.75 5.58594C3.75 5.25442 3.8817 4.93647 4.11612 4.70205C4.35054 4.46763 4.66848 4.33594 5 4.33594C5.33152 4.33594 5.64946 4.46763 5.88388 4.70205C6.1183 4.93647 6.25 5.25442 6.25 5.58594Z"
        stroke="currentColor" stroke-linecap="round" stroke-linejoin="round" />
    <path
        d="M6.25 5.58594C6.24703 5.92006 6.11553 6.24022 5.88277 6.47995C5.65002 6.71969 5.33389 6.8606 5 6.87344C4.66611 6.8606 4.34998 6.71969 4.11723 6.47995C3.88447 6.24022 3.75297 5.92006 3.75 5.58594C3.75 5.25442 3.8817 4.93647 4.11612 4.70205C4.35054 4.46763 4.66848 4.33594 5 4.33594C5.33152 4.33594 5.64946 4.46763 5.88388 4.70205C6.1183 4.93647 6.25 5.25442 6.25 5.58594Z"
        fill="currentColor" />
    <path d="M8.75 10H15.625" stroke="currentColor" stroke-width="2" stroke-linecap="round"
        stroke-linejoin="round" />
    <path
        d="M6.25 9.96094C6.24703 10.2951 6.11553 10.6152 5.88277 10.855C5.65002 11.0947 5.33389 11.2356 5 11.2484C4.66611 11.2356 4.34998 11.0947 4.11723 10.855C3.88447 10.6152 3.75297 10.2951 3.75 9.96094C3.75 9.62942 3.8817 9.31147 4.11612 9.07705C4.35054 8.84263 4.66848 8.71094 5 8.71094C5.33152 8.71094 5.64946 8.84263 5.88388 9.07705C6.1183 9.31147 6.25 9.62942 6.25 9.96094Z"
        stroke="currentColor" stroke-linecap="round" stroke-linejoin="round" />
    <path d="M8.75 14.375H15.625" stroke="currentColor" stroke-width="2" stroke-linecap="round"
        stroke-linejoin="round" />
    <path
        d="M6.25 14.3359C6.24703 14.6701 6.11553 14.9902 5.88277 15.23C5.65002 15.4697 5.33389 15.6106 5 15.6234C4.66611 15.6106 4.34998 15.4697 4.11723 15.23C3.88447 14.9902 3.75297 14.6701 3.75 14.3359C3.75 14.0044 3.8817 13.6865 4.11612 13.4521C4.35054 13.2176 4.66848 13.0859 5 13.0859C5.33152 13.0859 5.64946 13.2176 5.88388 13.4521C6.1183 13.6865 6.25 14.0044 6.25 14.3359Z"
        stroke="currentColor" stroke-linecap="round" stroke-linejoin="round" />
</svg>
    