<svg xmlns="http://www.w3.org/2000/svg" width="16" height="18" viewBox="0 0 16 18" fill="currentColor">
<path d="M14.2264 0.666992C14.0216 0.666992 13.8223 0.707915 13.6355 0.78848L9.68967 2.47943C9.13827 2.71555 8.78125 3.25661 8.78125 3.8572V15.8343C8.78125 16.6608 9.45414 17.3337 10.2806 17.3337C10.4855 17.3337 10.6847 17.2927 10.8715 17.2122L14.8174 15.5212C15.3688 15.2851 15.7258 14.744 15.7258 14.1434V2.16637C15.7258 1.34 15.0529 0.667111 14.2264 0.667111V0.666992ZM10.8645 10.042C10.8645 10.2337 10.709 10.3893 10.5173 10.3893C10.3257 10.3893 10.1701 10.2337 10.1701 10.042V8.65306C10.1701 8.46135 10.3257 8.3058 10.5174 8.3058C10.7091 8.3058 10.8646 8.46135 10.8646 8.65306L10.8645 10.042Z" fill="currentColor"/>
<path d="M7.98213 7.70664L5.89948 5.62331C5.76404 5.48787 5.54397 5.48787 5.40853 5.62331C5.27309 5.75875 5.27309 5.97881 5.40853 6.11426L6.89882 7.60527H0.792574C0.600866 7.60527 0.445312 7.76082 0.445312 7.95253C0.445312 8.14424 0.600866 8.29979 0.792574 8.29979H6.89882L5.40853 9.79009C5.27309 9.92553 5.27309 10.1456 5.40853 10.281C5.47584 10.3491 5.56478 10.3831 5.6536 10.3831C5.74253 10.3831 5.83136 10.3491 5.89948 10.2817L7.98213 8.1991C8.0141 8.16712 8.03979 8.12829 8.05781 8.08586C8.09327 8.00111 8.09327 7.90531 8.05781 7.82056C8.03979 7.77755 8.0141 7.7386 7.98213 7.70663L7.98213 7.70664Z" fill="currentColor"/>
<path d="M7.87393 9.59945C7.74407 9.54457 7.5948 9.57515 7.49551 9.67443L6.39408 10.7765C6.0017 11.1703 5.31485 11.1703 4.92122 10.7765C4.58932 10.4453 4.52396 9.92869 4.76149 9.51958C4.82333 9.41192 4.82403 9.27997 4.76149 9.17232C4.70033 9.06466 4.58582 8.99805 4.46143 8.99805H4.26914C4.07743 8.99805 3.92188 9.1536 3.92188 9.34531V13.512C3.92188 14.4689 4.70104 15.248 5.65795 15.248H7.74128C7.93299 15.248 8.08854 15.0925 8.08854 14.9008V9.92013C8.08854 9.77992 8.00379 9.65285 7.87393 9.59939V9.59945Z" fill="currentColor"/>
<path d="M10.6018 1.3329C10.7532 1.26826 10.8386 1.10516 10.8053 0.944034C10.772 0.783016 10.6303 0.666992 10.4651 0.666992H5.65795C4.70104 0.666992 3.92188 1.44616 3.92188 2.40306V6.56973C3.92188 6.76144 4.07743 6.91699 4.26914 6.91699H4.46154C4.46642 6.91699 4.47131 6.91629 4.47538 6.91699C4.66708 6.91699 4.82264 6.76144 4.82264 6.56973C4.82264 6.47742 4.78648 6.39267 4.72684 6.33082C4.53164 5.93299 4.60733 5.45308 4.92192 5.1385C5.3143 4.74475 6.00115 4.74475 6.39478 5.1385L7.49621 6.23993C7.59619 6.33991 7.74546 6.36979 7.87463 6.31491C8.00379 6.26213 8.08854 6.13506 8.08854 5.99473V3.85723C8.08854 2.97878 8.61006 2.18709 9.41842 1.84051L10.6018 1.3329Z" fill="currentColor"/>
</svg>