<svg width="24" height="24" viewBox="0 0 24 24" fill="none" xmlns="http://www.w3.org/2000/svg">
<path fill-rule="evenodd" clip-rule="evenodd" d="M5.37819 4.94321L10.376 2.72195C11.4103 2.26228 12.5909 2.26228 13.6251 2.72195L18.6031 4.9344C20.0588 5.58138 21.0144 7.03549 20.9124 8.62522C20.5211 14.723 18.7778 17.4796 14.0652 20.6776C12.8215 21.5215 11.181 21.5195 9.93637 20.6769C5.23825 17.4962 3.4302 14.7781 3.07057 8.60384C2.97858 7.02455 3.93257 5.5857 5.37819 4.94321ZM15.565 10.4938C15.8378 10.1821 15.8062 9.70826 15.4944 9.43549C15.1827 9.16273 14.7089 9.19432 14.4361 9.50605L11.5662 12.7859C11.4781 12.8866 11.3264 12.9001 11.2219 12.8165L9.46909 11.4143C9.14564 11.1555 8.67367 11.208 8.41492 11.5314C8.15616 11.8549 8.2086 12.3268 8.53205 12.5856L10.2849 13.9878C11.0162 14.5729 12.0784 14.4785 12.6951 13.7737L15.565 10.4938Z" fill="currentcolor"/>
</svg>
