<svg  width="21" height="21" viewBox="0 0 21 21" fill="none" xmlns="http://www.w3.org/2000/svg">
    <path width='100%' height='100%' d="M18.2364 7.39649L13.2774 6.67579L11.0606 2.18165C11.0001 2.0586 10.9005 1.95899 10.7774 1.89844C10.4688 1.7461 10.0938 1.87305 9.93952 2.18165L7.72272 6.67579L2.76374 7.39649C2.62702 7.41602 2.50202 7.48047 2.40632 7.57813C2.29062 7.69705 2.22686 7.85704 2.22906 8.02294C2.23126 8.18884 2.29923 8.34708 2.41804 8.4629L6.00592 11.9609L5.15827 16.9004C5.13839 17.0153 5.15111 17.1335 5.19497 17.2415C5.23884 17.3496 5.3121 17.4431 5.40645 17.5117C5.5008 17.5802 5.61246 17.6209 5.72878 17.6292C5.84509 17.6375 5.9614 17.613 6.06452 17.5586L10.5001 15.2266L14.9356 17.5586C15.0567 17.6231 15.1973 17.6445 15.3321 17.6211C15.6719 17.5625 15.9005 17.2402 15.8419 16.9004L14.9942 11.9609L18.5821 8.4629C18.6797 8.36719 18.7442 8.24219 18.7637 8.10547C18.8165 7.76368 18.5782 7.44727 18.2364 7.39649Z" fill="currentColor"/>
</svg>
    