<svg xmlns="http://www.w3.org/2000/svg" width="22" height="22" viewBox="0 0 22 22" fill="currentColor">
  <path d="M6.41469 11.0044C6.41469 13.5353 8.47352 15.5942 11.0044 15.5942C13.5354 15.5942 15.5942 13.5353 15.5942 11.0044C15.5942 8.47349 13.5354 6.41465 11.0044 6.41465C8.47352 6.41465 6.41469 8.47349 6.41469 11.0044ZM10.0859 17.4211H11.9193V20.1711H10.0859V17.4211ZM10.0859 1.83774H11.9193V4.58774H10.0859V1.83774ZM1.83594 10.0877H4.58594V11.9211H1.83594V10.0877ZM17.4193 10.0877H20.1693V11.9211H17.4193V10.0877ZM5.16985 18.1342L3.87369 16.8381L5.81794 14.8938L7.1141 16.19L5.16985 18.1342ZM14.8911 5.81974L16.8363 3.87457L18.1324 5.17074L16.1873 7.1159L14.8911 5.81974ZM5.81794 7.11682L3.87369 5.17165L5.17077 3.87549L7.1141 5.82065L5.81794 7.11682ZM18.1324 16.8381L16.8363 18.1342L14.8911 16.1891L16.1873 14.8929L18.1324 16.8381Z" fill="currentColor"/>
</svg>