<svg width="32" height="32" viewBox="0 0 32 32" fill="none" xmlns="http://www.w3.org/2000/svg">
<g clip-path="url(#clip0_8487_34223)">
<path fill-rule="evenodd" clip-rule="evenodd" d="M0.000675818 0H32.0007V0.185174L23.8476 8.23755C21.8506 6.35269 19.1581 5.19772 16.1953 5.19772C10.0359 5.19772 5.04228 10.1913 5.04228 16.3508C5.04228 18.9249 5.91476 21.2957 7.37994 23.1826H0.000675818V0ZM8.02061 23.9368C10.0575 26.1305 12.9656 27.5038 16.1953 27.5038C22.3554 27.5038 27.3483 22.5102 27.3483 16.3508C27.3483 13.6056 26.3556 11.0922 24.7106 9.14923H32V32.0007H0V31.8581L8.01994 23.9375L8.02061 23.9368Z" fill="#254A6F"/>
<path d="M16.1521 24.7222C20.8658 24.7222 24.687 20.901 24.687 16.1873C24.687 11.4736 20.8658 7.65234 16.1521 7.65234C11.4384 7.65234 7.61719 11.4736 7.61719 16.1873C7.61719 20.901 11.4384 24.7222 16.1521 24.7222Z" fill="#254A6F"/>
</g>
<defs>
<clipPath id="clip0_8487_34223">
<rect width="32" height="32" fill="white"/>
</clipPath>
</defs>
</svg>
