<svg xmlns="http://www.w3.org/2000/svg" width="24" height="24" viewBox="0 0 24 24" fill="currentColor">
<path d="M5 11.4286H11.4286V5H5V11.4286ZM7.14286 7.14286H9.28571V9.28571H7.14286V7.14286ZM13.5714 5V11.4286H20V5H13.5714ZM17.8571 9.28571H15.7143V7.14286H17.8571V9.28571ZM5 20H11.4286V13.5714H5V20ZM7.14286 15.7143H9.28571V17.8571H7.14286V15.7143ZM18.9286 13.5714H20V17.8571H16.7857V16.7857H15.7143V20H13.5714V13.5714H16.7857V14.6429H18.9286V13.5714ZM18.9286 18.9286H20V20H18.9286V18.9286ZM16.7857 18.9286H17.8571V20H16.7857V18.9286Z" fill="currentColor"/>
</svg>