<svg width="20" height="20" viewBox="0 0 20 20" fill="none" xmlns="http://www.w3.org/2000/svg">
<path d="M17.9997 13.6342C17.9997 13.777 17.9496 13.9138 17.8602 14.0148C17.7709 14.1158 17.6499 14.1725 17.5235 14.1725H7.53913V17.7852C7.53887 17.8742 7.49051 17.9536 7.41704 17.9856C7.3437 18.0176 7.26052 17.9952 7.20765 17.9294L2.28602 11.7503C2.23567 11.6872 2.22291 11.5965 2.25334 11.5189C2.28376 11.4411 2.35179 11.3909 2.42699 11.3908H18L17.9997 13.6342ZM2.00018 8.60924H17.5711C17.6462 8.60909 17.7144 8.55893 17.7448 8.48114C17.7752 8.4035 17.7625 8.31279 17.712 8.24971L12.7941 2.07058C12.7412 2.0048 12.6581 1.98242 12.5847 2.01441C12.5114 2.0464 12.4629 2.12584 12.4626 2.21475V5.82754H2.47618C2.21311 5.82754 2 6.06843 2 6.36579L2.00018 8.60924Z" fill="#ECF4FE"/>
</svg>
