<svg width="24" height="24" viewBox="0 0 24 24" fill="none" xmlns="http://www.w3.org/2000/svg">
<path fill-rule="evenodd" clip-rule="evenodd" d="M12 22C17.5228 22 22 17.5228 22 12C22 6.47715 17.5228 2 12 2C6.47715 2 2 6.47715 2 12C2 17.5228 6.47715 22 12 22ZM12.6599 6.05163L12 4.5L11.3401 6.05163C10.3276 8.43211 8.43211 10.3276 6.05163 11.3401L4.5 12L6.05163 12.6599C8.43211 13.6724 10.3276 15.5679 11.3401 17.9484L12 19.5L12.6599 17.9484C13.6724 15.5679 15.5679 13.6724 17.9484 12.6599L19.5 12L17.9484 11.3401C15.5679 10.3276 13.6724 8.43211 12.6599 6.05163Z" fill="currentColor"/>
</svg>
