<svg width="20" height="20" viewBox="0 0 20 20" fill="none" xmlns="http://www.w3.org/2000/svg">
    <path fill-rule="evenodd" clip-rule="evenodd" d="M9.9974 18.3333C14.5998 18.3333 18.3307 14.6023 18.3307 9.99996C18.3307 5.39759 14.5998 1.66663 9.9974 1.66663C5.39502 1.66663 1.66406 5.39759 1.66406 9.99996C1.66406 14.6023 5.39502 18.3333 9.9974 18.3333ZM10.2843 4.42459L9.9974 3.74996L9.71047 4.42459C8.69802 6.80506 6.8025 8.70059 4.42203 9.71303L3.7474 9.99996L4.42203 10.2869C6.8025 11.2993 8.69802 13.1949 9.71047 15.5753L9.9974 16.25L10.2843 15.5753C11.2968 13.1949 13.1923 11.2993 15.5728 10.2869L16.2474 9.99996L15.5728 9.71303C13.1923 8.70059 11.2968 6.80507 10.2843 4.42459Z" fill="#5E6781"/>
    </svg>
    