<svg width="20" height="20" viewBox="0 0 20 20" fill="none" xmlns="http://www.w3.org/2000/svg">
<path d="M10 1.875C5.51992 1.875 1.875 5.51992 1.875 10C1.875 14.4801 5.51992 18.125 10 18.125C14.4801 18.125 18.125 14.4801 18.125 10C18.125 5.51992 14.4801 1.875 10 1.875ZM14.6875 9.32695H11.2109L12.6516 7.88633L12.4328 7.63203C12.0415 7.22583 11.5557 6.92291 11.0187 6.75037C10.4818 6.57782 9.9104 6.54103 9.35574 6.64327C8.80108 6.74552 8.2804 6.98362 7.84025 7.33628C7.4001 7.68895 7.0542 8.14519 6.83348 8.66421C6.61275 9.18323 6.52408 9.74886 6.57539 10.3105C6.6267 10.8722 6.8164 11.4124 7.12751 11.8828C7.43863 12.3533 7.86147 12.7393 8.35824 13.0063C8.85501 13.2734 9.41021 13.4132 9.97422 13.4133C10.6801 13.4126 11.3684 13.1936 11.9449 12.7862C12.5213 12.3788 12.9575 11.803 13.1938 11.1379L13.4035 10.5469L14.582 10.9637L14.375 11.5547C14.0901 12.3609 13.5891 13.0732 12.9267 13.6139C12.2644 14.1546 11.4661 14.5028 10.6192 14.6205C9.77229 14.7381 8.90934 14.6207 8.12466 14.2811C7.33997 13.9414 6.66376 13.3926 6.16992 12.6946C5.67608 11.9966 5.38362 11.1762 5.3245 10.3233C5.26539 9.47026 5.44189 8.61743 5.83472 7.85797C6.22755 7.09852 6.82159 6.46166 7.55191 6.017C8.28224 5.57235 9.12074 5.33702 9.97578 5.33672C10.6068 5.33431 11.2317 5.46112 11.8118 5.70936C12.392 5.95759 12.9152 6.32198 13.3492 6.78008L13.3711 6.8043L13.5395 6.99961L14.6875 5.85195V9.32695Z" fill="#EEEEEE"/>
</svg>
