<svg width="24" height="24" viewBox="0 0 24 24" fill="none" xmlns="http://www.w3.org/2000/svg">
    <path fill-rule="evenodd" clip-rule="evenodd" d="M4 6.75C3.30964 6.75 2.75 7.30964 2.75 8C2.75 8.69036 3.30964 9.25 4 9.25C4.69036 9.25 5.25 8.69036 5.25 8C5.25 7.30964 4.69036 6.75 4 6.75ZM1.25 8C1.25 6.48122 2.48122 5.25 4 5.25C5.51878 5.25 6.75 6.48122 6.75 8C6.75 9.51878 5.51878 10.75 4 10.75C2.48122 10.75 1.25 9.51878 1.25 8ZM9.25 6C9.25 5.58579 9.58579 5.25 10 5.25H16C16.4142 5.25 16.75 5.58579 16.75 6C16.75 6.41421 16.4142 6.75 16 6.75H10C9.58579 6.75 9.25 6.41421 9.25 6ZM9.25 10C9.25 9.58579 9.58579 9.25 10 9.25H22C22.4142 9.25 22.75 9.58579 22.75 10C22.75 10.4142 22.4142 10.75 22 10.75H10C9.58579 10.75 9.25 10.4142 9.25 10ZM4 14.75C3.30964 14.75 2.75 15.3096 2.75 16C2.75 16.6904 3.30964 17.25 4 17.25C4.69036 17.25 5.25 16.6904 5.25 16C5.25 15.3096 4.69036 14.75 4 14.75ZM1.25 16C1.25 14.4812 2.48122 13.25 4 13.25C5.51878 13.25 6.75 14.4812 6.75 16C6.75 17.5188 5.51878 18.75 4 18.75C2.48122 18.75 1.25 17.5188 1.25 16ZM9.25 14C9.25 13.5858 9.58579 13.25 10 13.25H16C16.4142 13.25 16.75 13.5858 16.75 14C16.75 14.4142 16.4142 14.75 16 14.75H10C9.58579 14.75 9.25 14.4142 9.25 14ZM9.25 18C9.25 17.5858 9.58579 17.25 10 17.25H22C22.4142 17.25 22.75 17.5858 22.75 18C22.75 18.4142 22.4142 18.75 22 18.75H10C9.58579 18.75 9.25 18.4142 9.25 18Z" fill="currentcolor"/>
</svg>
