<svg width="24" height="24" viewBox="0 0 24 24" fill="none" xmlns="http://www.w3.org/2000/svg">
<path d="M17.0681 20.3008L16.9982 20.2982C16.7638 20.2789 16.5447 20.1632 16.3849 19.9743C16.225 19.7854 16.1363 19.5372 16.1363 19.2796V15.7061L14.9316 15.7056C14.7473 15.7055 14.5672 15.6456 14.414 15.5334C14.2608 15.4212 14.1414 15.2617 14.0709 15.0752C14.0004 14.8886 13.982 14.6833 14.0179 14.4852C14.0538 14.2872 14.1425 14.1053 14.2728 13.9624L17.3411 10.5998C17.5158 10.4083 17.7528 10.3008 17.9998 10.3008C18.2469 10.3008 18.4839 10.4083 18.6586 10.5998L21.7269 13.9624C21.8573 14.1052 21.9461 14.2872 21.9821 14.4854C22.0181 14.6835 21.9996 14.8889 21.9291 15.0755L21.8974 15.1495C21.8193 15.3169 21.7005 15.4574 21.5542 15.5555C21.4079 15.6536 21.2397 15.7055 21.0681 15.7056L19.8634 15.7061V19.2796C19.8634 19.5504 19.7652 19.8102 19.5905 20.0017C19.4157 20.1932 19.1787 20.3008 18.9316 20.3008H17.0681Z" fill="currentColor"/>
<path d="M14.0864 2.30529L2.77396 3.90235C2.55943 3.93256 2.36222 4.03828 2.22021 4.20009C2.07819 4.36191 2 4.56895 2 4.78318V19.2555C2 19.4697 2.07819 19.6768 2.22021 19.8386C2.36222 20.0004 2.55853 20.1061 2.77306 20.1363L13.872 21.703C12.1233 20.3299 11 18.1965 11 15.8008C11 15.7263 11.0011 15.6522 11.0032 15.5783H9.74051L8.30059 13.5443L6.86066 15.5783H4.70076L7.22064 12.0193L4.70076 8.46043H6.86066L8.30059 10.4943L9.74051 8.46043H11.9004L9.38053 12.0193L11.1173 14.4723C11.5016 12.3223 12.802 10.4899 14.6003 9.3931V2.7457C14.6003 2.68194 14.5864 2.61892 14.5596 2.56091C14.5329 2.50291 14.4938 2.45127 14.445 2.40951C14.3963 2.36774 14.3391 2.33682 14.2772 2.31884C14.2153 2.30085 14.1502 2.29623 14.0864 2.30529Z" fill="currentColor"/>
<path d="M20 8.45081C19.5153 8.35243 19.0137 8.30078 18.5 8.30078C17.4334 8.30078 16.4189 8.52342 15.5002 8.92475V4.01179H19.1C19.3387 4.01179 19.5676 4.10553 19.7364 4.27238C19.9052 4.43924 20 4.66555 20 4.90152V8.45081Z" fill="currentColor"/>
</svg>
