<svg xmlns="http://www.w3.org/2000/svg" width="24" height="24" viewBox="0 0 24 24" fill="currentColor">
<path d="M21.7074 15.4038L18.8854 12.5849C18.5103 12.2099 18.0009 12.0005 17.4697 12.0005H14.9914C14.4382 12.0005 13.9913 12.4474 13.9913 13.0005V15.4757C13.9913 16.007 14.2007 16.5132 14.5757 16.8883L17.3978 19.7072C17.7884 20.0978 18.4228 20.0978 18.8135 19.7072L21.7043 16.8164C22.0981 16.4257 22.0981 15.7944 21.7074 15.4038ZM15.9946 14.7475C15.5789 14.7475 15.2445 14.4131 15.2445 13.9975C15.2445 13.5818 15.5789 13.2474 15.9946 13.2474C16.4102 13.2474 16.7446 13.5818 16.7446 13.9975C16.7446 14.41 16.4102 14.7475 15.9946 14.7475ZM9.00041 11.9973C11.2099 11.9973 13.0006 10.2066 13.0006 7.99711C13.0006 5.79073 11.2099 4 9.00041 4C6.79091 4 5.00018 5.79073 5.00018 8.00023C5.00018 10.2066 6.79091 11.9973 9.00041 11.9973ZM12.9944 15.4725V13.188C12.6131 13.0755 12.2162 12.9943 11.8006 12.9943H11.2787C10.5849 13.313 9.81296 13.4943 9.00041 13.4943C8.18786 13.4943 7.41907 13.313 6.72215 12.9943H6.20025C3.88136 12.9974 2 14.8788 2 17.1976V18.4977C2 19.3259 2.67191 19.9978 3.50009 19.9978H14.5007C14.9851 19.9978 15.4102 19.7634 15.6852 19.4072L13.8726 17.5945C13.3069 17.0289 12.9944 16.2757 12.9944 15.4725Z" fill="currentColor"/>
</svg>