<svg width="15" height="16" viewBox="0 0 15 16" fill="none" xmlns="http://www.w3.org/2000/svg">
<path d="M6.00033 0.5C3.97187 0.5 2.32749 2.13096 2.32749 4.14286C2.32749 6.15475 3.97187 7.78572 6.00033 7.78572C8.02878 7.78572 9.67317 6.15475 9.67317 4.14286C9.67317 2.13096 8.02878 0.5 6.00033 0.5Z" fill="currentColor"/>
<path d="M3.83286 9.40638L3.67895 9.43075C1.65572 9.75101 0.166992 11.4819 0.166992 13.514C0.166992 14.6109 1.06346 15.5 2.16931 15.5H6.66924C6.24381 14.7646 6.00033 13.9107 6.00033 13C6.00033 11.5491 6.61833 10.2425 7.60547 9.32914C6.35123 9.18295 5.08173 9.2087 3.83286 9.40638Z" fill="currentColor"/>
<path d="M14.1908 10.6429C14.0003 10.4524 13.7146 10.4524 13.5241 10.6429L9.95271 14.2143L8.47652 12.7381C8.28604 12.5476 8.00033 12.5476 7.80985 12.7381C7.61937 12.9286 7.61937 13.2143 7.80985 13.4048L9.61937 15.2143C9.71461 15.3095 9.80985 15.3571 9.95271 15.3571C10.0956 15.3571 10.1908 15.3095 10.286 15.2143L14.1908 11.3095C14.3813 11.119 14.3813 10.8333 14.1908 10.6429Z" fill="currentColor"/>
</svg>
