<svg width="24" height="24" viewBox="0 0 24 24" fill="none" xmlns="http://www.w3.org/2000/svg">
    <path fill-rule="evenodd" clip-rule="evenodd" d="M12 5C12.7068 5 13.3979 5.09592 14.0673 5.2653C14.0231 5.50346 14 5.74903 14 6C14 8.20914 15.7909 10 18 10C18.922 10 19.7711 9.68806 20.4476 9.16397C20.6908 9.39933 20.9188 9.63053 21.1303 9.8531C22.2899 11.0732 22.2899 12.9268 21.1303 14.1469C19.1745 16.2047 15.8155 19 12 19C8.18448 19 4.82549 16.2047 2.86971 14.1469C1.7101 12.9268 1.7101 11.0732 2.86971 9.8531C4.82549 7.79533 8.18448 5 12 5ZM12 15C13.6569 15 15 13.6569 15 12C15 10.3431 13.6569 9 12 9C10.3431 9 9 10.3431 9 12C9 13.6569 10.3431 15 12 15ZM21 6.75C21 6.33579 20.6642 6 20.25 6L15.75 6C15.3358 6 15 6.33579 15 6.75C15 7.16421 15.3358 7.5 15.75 7.5L20.25 7.5C20.6642 7.5 21 7.16421 21 6.75Z" fill="currentColor"/>
</svg>
    